<svg xmlns="http://www.w3.org/2000/svg" viewBox="0 0 44.37 44.36"><defs><style>.cls-1{fill:#385988;}.cls-2{fill:#fff;}</style></defs><title>Artboard 7</title><g id="Layer_7" data-name="Layer 7"><path class="cls-1" d="M44.36,22.18A22.18,22.18,0,1,1,22.18,0,22.18,22.18,0,0,1,44.36,22.18"/><path class="cls-2" d="M22.37,16.65h-.69c-2-.24-1.66-2.77-1.34-3.36.46-.83,1.42-1,.83-2.06a8.36,8.36,0,0,1,1.93,1.39c1.15,1.2.57,3.85-.73,4m3,0a6.72,6.72,0,0,0,1.32-3.07,3.38,3.38,0,0,1,2-2.8,2.86,2.86,0,0,0-3.06.22c0-.25,1.07-3.61-1-4.63-2.41-1.17-3.08-1.81-3.06-3.31,0,.06-1.46,2.14-.51,3.31,1.47,1.81.85,3.21,0,3.08-1.43-.22-1.26-2.1-1-2.57a2.36,2.36,0,0,0-2,1c-1.29,1.93,1.5,3.77.51,5.14-.76,1-2-1-2-1a5.33,5.33,0,0,0,1.05,4.8,5.82,5.82,0,0,0,1.76,1.32l-2.91.07a.13.13,0,0,0,0,.2,2.53,2.53,0,0,0,.67.56,1.31,1.31,0,0,0,.26.13,8.89,8.89,0,0,0,0,1.22c0,.09.2.25.28.28s1.67.75,2,.88l.15.15V34l-.05,0a1,1,0,0,0-.67.58c-.07.13-.05.45.31.92s.53.4.64.37a1.4,1.4,0,0,0-.2.72,1.72,1.72,0,0,0,1.43,1.58,2.7,2.7,0,0,0,.44.08h.24a3.17,3.17,0,0,0,.42-.08,1.73,1.73,0,0,0,1.44-1.58,1.4,1.4,0,0,0-.24-.77c.12,0,.34,0,.63-.38s.37-.8.3-.92a1,1,0,0,0-.68-.59V21.66c0-.09.14-.13.16-.16.31-.13,1.8-.74,2-.88s.28-.2.28-.28a.85.85,0,0,0,0-.18c0-.17-.07-.83-.07-1a1.41,1.41,0,0,0,.28-.14,2.47,2.47,0,0,0,.63-.51h0a.32.32,0,0,0,.06-.13h0v0a17.82,17.82,0,0,0-3.47-.18,4,4,0,0,0,1.82-1.48"/></g></svg>