<svg xmlns="http://www.w3.org/2000/svg" viewBox="0 0 44.37 44.36"><defs><style>.cls-1{fill:#385988;}.cls-2{fill:#fff;}</style></defs><title>Artboard 3</title><g id="Layer_3" data-name="Layer 3"><path class="cls-1" d="M44.36,22.18A22.18,22.18,0,1,1,22.18,0,22.18,22.18,0,0,1,44.36,22.18"/><path class="cls-2" d="M21.8,16.17a19.47,19.47,0,0,0,2-4.78,3.5,3.5,0,0,0-1.47-1.88c.74-.81.54-1.56-.3-2.29a.77.77,0,0,0-.22-.15h0a1.8,1.8,0,0,0-.22.15c-.83.74-1,1.49-.3,2.29a3.52,3.52,0,0,0-1.47,1.88,19.69,19.69,0,0,0,2,4.78"/><path class="cls-2" d="M36.12,21.94a18.86,18.86,0,0,0-4.26-1.49c.42-.11,2.3-1.07,3-.95s1.84,2.59,2.1,3a6.66,6.66,0,0,0-.85-.52m-28.57,0a6.84,6.84,0,0,0-.85.52c.26-.36,1.36-2.83,2.1-3s2.59.83,3,.95a18.86,18.86,0,0,0-4.26,1.49m32.95-4.2a3.53,3.53,0,0,0-.72-.3c-.07,0-.36-.06-.39.1s0,.56,0,.56c-.85.54-1,1.42-.33,2.58.17,1-.54,1.53-.89,1.35-.81-.41-.82-1.51-1.49-2.51a2.58,2.58,0,0,0-2.05-1.4,6.21,6.21,0,0,0-1.06.22A2.2,2.2,0,0,0,33.44,15a1.25,1.25,0,0,0-.88-.36,1.48,1.48,0,0,0-.55.15.56.56,0,0,0-.16.14,1.43,1.43,0,0,0-.24.68c.08.66.38,1,.85,1a.92.92,0,0,0,.85-1s0-.08,0-.11a1.52,1.52,0,0,1-.56,2.38c-1.36.67-2.72-1.4-3.91-1.51a1.89,1.89,0,0,0-1,.07c0-1.93-.32-3.36-2.33-3.62-1.1-.15-1.64.4-2.05,1.47a1.8,1.8,0,0,0-.09.84,1,1,0,0,0,1,1,1.06,1.06,0,0,0,1-1.13,1.24,1.24,0,0,0-.11-.52l0-.06-.05-.09v0a.87.87,0,0,0-.74-.44s0-.08.14-.15c1.3-1,4.25,2.27.45,4.18a1.2,1.2,0,0,0-1.8-.4,2.07,2.07,0,0,0-.29.26c-.32-.37-.78-.77-1-.77s-.74.4-1.06.77a1.93,1.93,0,0,0-.29-.26,1.2,1.2,0,0,0-1.8.4c-3.81-1.92-.86-5.21.45-4.18.09.08.17.15.14.15a.88.88,0,0,0-.74.44v0l-.05.09,0,.06a1.24,1.24,0,0,0-.11.52,1.06,1.06,0,0,0,1,1.13,1,1,0,0,0,1-1,1.74,1.74,0,0,0-.09-.84c-.41-1.06-1-1.61-2.05-1.47-2,.26-2.3,1.69-2.33,3.62a1.89,1.89,0,0,0-1-.07c-1.19.11-2.55,2.18-3.91,1.51a1.52,1.52,0,0,1-.56-2.38s0,.07,0,.11a.92.92,0,0,0,.85,1c.47,0,.77-.31.85-1a1.4,1.4,0,0,0-.24-.68.59.59,0,0,0-.15-.14,1.5,1.5,0,0,0-.56-.15,1.26,1.26,0,0,0-.89.36,2.2,2.2,0,0,0-.08,3.36,6.24,6.24,0,0,0-1.06-.22A2.58,2.58,0,0,0,7,19.52c-.67,1-.69,2.1-1.49,2.51-.44.22-1.43-.68-.59-2.15l-.12.06a1.49,1.49,0,0,0-.65-1.84s0-.4,0-.56-.31-.1-.39-.1a3.47,3.47,0,0,0-.72.3c-.06.06-.32.24-.24.36l.28.46a1.57,1.57,0,0,0,1,2.13,2.82,2.82,0,0,0,.4,1.83,1.31,1.31,0,0,0,1.47.37c-.22.15-1.16.64-1.15.95s.7,2.32.83,2.68c1.16,1.07,5.45,2.57,7.73,2.5,0-.22.09-.88.09-1-.29-.15-3.43-.73-4.58-1.25a10,10,0,0,1-1.38-.66c-2.25-1.09-.15-1.61.22-1.73s3-1,5.1-1.43c3.08-.59,9-1.07,9-1.07h0s5.93.48,9,1.07c2.05.44,4.73,1.31,5.1,1.43s2.48.64.23,1.73a9.9,9.9,0,0,1-1.38.66c-1.15.51-4.3,1.1-4.59,1.25,0,.15.1.81.1,1,2.28.07,6.57-1.42,7.73-2.5.13-.36.82-2.37.83-2.68S38,23,37.73,22.9a1.31,1.31,0,0,0,1.47-.37,2.77,2.77,0,0,0,.38-1.89,1.54,1.54,0,0,0,.88-2.07l.28-.46c.08-.13-.18-.31-.24-.36"/></g></svg>