<svg id="Layer_1" data-name="Layer 1" xmlns="http://www.w3.org/2000/svg" viewBox="0 0 44.37 44.36"><defs><style>.cls-1{fill:#385988;}.cls-2{fill:#fff;}</style></defs><title>Artboard 1</title><path class="cls-1" d="M44.36,22.18A22.18,22.18,0,1,1,22.18,0,22.18,22.18,0,0,1,44.36,22.18"/><path class="cls-2" d="M31.79,38.49a1.43,1.43,0,0,1-.48,0s-1.11-.91-1.21-3.61v-5.7h.58v5.7a6.42,6.42,0,0,0,1.12,3.62m-1.22-.37-.23-.2C29,36.62,29,34,29,34V29.18h.69v5.7a6.89,6.89,0,0,0,.85,3.26M29,28.44v-.79a1.31,1.31,0,0,1,2.62,0v.79ZM33,37.93a2.28,2.28,0,0,1-.76.47A5.9,5.9,0,0,1,31,34.87v-5.7h.62V34s0,2.62,1.31,3.92m-.57-8.72V27.65a2,2,0,0,0-1.58-2v-2.8L33,21.73a13.22,13.22,0,0,1,1.56,5.66,21.68,21.68,0,0,1-2.22,1.81m-2.57-3.53a2,2,0,0,0-1.52,2v3.81a16.38,16.38,0,0,1-6.12,1.22A18.54,18.54,0,0,1,9.74,27.4a13.25,13.25,0,0,1,1.56-5.66l10.88,5.44,7.65-3.83ZM27.27,15s-1.73,6.56-1.75,6.64H23.21l-1-4.18-1.1,4.18H18.75L17.09,15h-1V13.58h4.31V15H19.36l1.06,4.27s1.52-5.65,1.54-5.73h1.49l1.43,5.73L26,15H25V13.58h3.22V15ZM22.17,8.49,4.54,17.26l17.64,8.82,17.64-8.82Z"/></svg>