<svg xmlns="http://www.w3.org/2000/svg" viewBox="0 0 44.37 44.36"><defs><style>.cls-1{fill:#385988;}.cls-2{fill:#fff;}</style></defs><title>Artboard 8</title><g id="Layer_8" data-name="Layer 8"><path class="cls-1" d="M44.36,22.18A22.18,22.18,0,1,1,22.18,0,22.18,22.18,0,0,1,44.36,22.18"/><polygon class="cls-2" points="6.39 13.63 6.39 13.63 6.42 13.62 6.39 13.63"/><path class="cls-2" d="M11.58,23.67l-5,2.18a4.36,4.36,0,0,0,3.17-.07,3.34,3.34,0,0,0,1.86-2.11"/><path class="cls-2" d="M37.76,21.19c-1.4.41-3.87,1.35-11.6-.46l0,2.94-.69.59h0l.05-4.8.6.18a40.94,40.94,0,0,0,4.42,1,22.87,22.87,0,0,0,8.07,0c-.21,0-.34.35-.86.5m.77-1.87a16,16,0,0,0-2.29-1.49c-1.11-.61-2.23-1.14-2.86-1.43v-.83L24.8,19.23v5.52a19.46,19.46,0,0,0,4,.1,12.52,12.52,0,0,1-4.06.48c-3.28,2.74-1.36,5.6-.25,6.7l7-4,.73.29L25,32.59v2.12l-.76.74V32.59a3.17,3.17,0,0,1-.79-.56,3.11,3.11,0,0,1-.73-1,4.74,4.74,0,0,1-.34-3.92,4.21,4.21,0,0,1,1.57-2.33L24,19.19,7.73,14.05c.07,0,1.34-.42,1.34-.42l15.55,4.74L33,14.86,16,10.64h0l-9.61,3v2.16l.24.06a13.48,13.48,0,0,1,3.1,1.44,6.21,6.21,0,0,1,2.35,3.08,7.08,7.08,0,0,1,.2,1.05c.06,2.93-1.32,4.58-2.64,5a3.93,3.93,0,0,1-3.25-.31v2.1l4.79,2a3.79,3.79,0,0,1,4.7-1.39,5.53,5.53,0,0,1,3.33,4.87L24.48,36l8-4.73v-3.4a5.13,5.13,0,0,1-1.8-.66,2.72,2.72,0,0,1-1.22-2.43c.29,0,1.74-.13,2.31-.18a20.53,20.53,0,0,0,4.3-.79,7,7,0,0,0,2.52-1.31,3.57,3.57,0,0,0,.94-1.88,2.47,2.47,0,0,0-1-1.32"/><polygon class="cls-2" points="31.81 28.46 31.81 28.46 31.82 28.46 31.81 28.46"/></g></svg>