<svg xmlns="http://www.w3.org/2000/svg" viewBox="0 0 44.37 44.36"><defs><style>.cls-1{fill:#385988;}.cls-2{fill:#fff;}</style></defs><title>Artboard 4</title><g id="Layer_4" data-name="Layer 4"><path class="cls-1" d="M44.36,22.18A22.18,22.18,0,1,1,22.18,0,22.18,22.18,0,0,1,44.36,22.18"/><g id="layer1"><g id="g496"><g id="g498"><path id="path500" class="cls-2" d="M25,17.17c.4,0,.6.13.62.44,0,.06-.06.41-.19,1A2.21,2.21,0,0,0,26,20a4,4,0,0,1,.53.63c0,.25-.19.41-.63.47a1.5,1.5,0,0,1-1.48-.88c-.21-.7-.31-1.08-.31-1.08a3.9,3.9,0,0,1,.06-1c.15-.63.4-.94.78-1m5.26,1.1a3.55,3.55,0,0,0-1.41-2.36,3.34,3.34,0,0,0-2.67-.66,3.5,3.5,0,0,0-2.35,1.48,3.62,3.62,0,0,0,.78,5,3.57,3.57,0,0,0,5.64-3.47"/></g></g><g id="g502"><g id="g504"><path id="path506" class="cls-2" d="M36.4,17.33a.75.75,0,0,1-.44.32,2.53,2.53,0,0,0-.47-1.92.2.2,0,0,1,.13,0,.93.93,0,0,1,.56.22,1,1,0,0,1,.35.47.38.38,0,0,1,0,.19,1,1,0,0,1-.15.75m-.32.85H36s.06,0,.06,0Zm-1.6,2.46a1.27,1.27,0,0,0-.38-.13c-.15,0-.25.1-.31.29a.5.5,0,0,0-.1.28,4.12,4.12,0,0,0,.13.82c0,.51-.25.76-.79.76-.18,0-.34-.25-.4-.79a6.82,6.82,0,0,1-.06-.75,1.48,1.48,0,0,1,.28-.82A1.4,1.4,0,0,1,34,19.79c.5,0,.75.16.75.51s-.09.35-.28.35M29,32.45a1.63,1.63,0,0,1-1-.66c.09-.19.22-.41.35-.63,0,0,0,0,.06-.09a2,2,0,0,0,.09-.22,2,2,0,0,1,.22-.34.12.12,0,0,1,0-.1,1.24,1.24,0,0,0,.18.29,1.44,1.44,0,0,0,.72.38Zm-.79,2.3h0v0l-.25-.1a3.48,3.48,0,0,1-.63-.25h-.06a3,3,0,0,0-.38-.32.36.36,0,0,1-.06-.09.09.09,0,0,0-.06,0,.14.14,0,0,1,0-.09l.5-.85a1.31,1.31,0,0,1,.19-.32c0,.06.06.09.06.13a2.8,2.8,0,0,0,.41.28,1.43,1.43,0,0,0,.75.22h.09c-.22.47-.37.92-.57,1.39m-2.32,3.69a1,1,0,0,1-1-.76c-.13-.5-.19-.72-.19-.76,0-.84.28-1.25.85-1.25.28,0,.41.22.44.66l-.16.82c0,.38.31.57.91.57a.2.2,0,0,1,.22.21c0,.35-.38.51-1.1.51m4.55-16.91-.19.22a4.7,4.7,0,0,1-.69.72,10.08,10.08,0,0,0-.94.54,1.27,1.27,0,0,1-.31.13,3.76,3.76,0,0,1-.84.19,4.21,4.21,0,0,1-3.39-.79,4.53,4.53,0,0,1-1.82-3,4.43,4.43,0,0,1,.82-3.4,5,5,0,0,1,.79-.85,4.21,4.21,0,0,1,.53-.38,5,5,0,0,1,1.66-.6,3.6,3.6,0,0,1,1-.06,5,5,0,0,1,1.19.22,3.74,3.74,0,0,1,1.22.66,4.41,4.41,0,0,1,1.82,3,4.49,4.49,0,0,1-.84,3.43m-8.09-5.29h0s0,0,0,0ZM24,11.85a.87.87,0,0,1,.35.66,1,1,0,0,1-.16.79c-.1.06-.16.16-.25.22h0v-.19a3.39,3.39,0,0,0-.31-1.39,3.65,3.65,0,0,0-.19-.32,1.07,1.07,0,0,1,.6.22m-2.32,5.83a1.34,1.34,0,0,1-.81.6.83.83,0,0,1-.85-.19h-.1v0a.12.12,0,0,1,0-.06c0-.06-.06-.06-.12-.1s0-.09-.06-.13a1.33,1.33,0,0,1-.16-.5l0,0a1.49,1.49,0,0,1,.22-1,1.24,1.24,0,0,1,.82-.63h0a1.16,1.16,0,0,1,.85.16,1.25,1.25,0,0,1,.41.88,1.66,1.66,0,0,1-.22,1.07m-3-.5a.63.63,0,0,0-.19.25c-.06,0-.09.06-.09.1l-.63.59s-.06.06-.06.1a4.92,4.92,0,0,1-1.82.79.64.64,0,0,1-.21,0,4.52,4.52,0,0,1-3.42-.79,4.61,4.61,0,0,1-1.82-3,4.68,4.68,0,0,1,.84-3.47c.13-.16.25-.31.41-.47l.41-.38.35-.25a1,1,0,0,1,.18-.13,4.17,4.17,0,0,1,1.67-.6,5.34,5.34,0,0,1,1-.06,3.24,3.24,0,0,1,1.22.22,4.21,4.21,0,0,1,1.22.66,4.34,4.34,0,0,1,1.79,3,4.43,4.43,0,0,1-.82,3.43M9.7,12.45a4.43,4.43,0,0,0-.28,1.07,1.05,1.05,0,0,1-.22-.66c0-.63.22-.95.69-.95H10a3.51,3.51,0,0,0-.28.54m27.85,2.74a1.74,1.74,0,0,0-1.22-.57,2.59,2.59,0,0,0-1.19.19.48.48,0,0,0-.15.13,1.69,1.69,0,0,0-.16.12v0a1.37,1.37,0,0,0-.47-.25.26.26,0,0,0-.16-.06,6.2,6.2,0,0,0-1.66-.5c-.6-.13-1.79-.29-3.52-.44-1-.06-1.66-.12-2-.16a3.18,3.18,0,0,0-.63,0c-.16,0-.25,0-.38,0l-.44.09a2.12,2.12,0,0,0,.4-1.54,2.25,2.25,0,0,0-.82-1.39,1,1,0,0,0-.19-.09,1.68,1.68,0,0,0-.34-.16,4.23,4.23,0,0,0-.54-.13,2,2,0,0,0-.62,0,.84.84,0,0,0-.47.22.57.57,0,0,0-.22.13v0l0,0a1.74,1.74,0,0,0-.62-.32h0c-.19-.06-.41-.09-.66-.19s-1-.22-2.14-.38c-.57-.09-1.32-.25-2.35-.44-.28-.06-.54-.12-.79-.16a7.67,7.67,0,0,1-.85,0,6.4,6.4,0,0,0-.78,0,2.46,2.46,0,0,0-.69.1,1,1,0,0,1-.31.06,4.86,4.86,0,0,0-2.64,1.86l-.09-.1a1.32,1.32,0,0,0-1.09-.06,1.7,1.7,0,0,0-.94.82,1.8,1.8,0,0,0-.19,1.23,1.31,1.31,0,0,0,.66.91,1.3,1.3,0,0,0,.62.19,7.74,7.74,0,0,0,0,.85,5.14,5.14,0,0,0,2,3.37,4.76,4.76,0,0,0,3.76.88.69.69,0,0,0,.26,0,1.08,1.08,0,0,0,.31-.06,1.12,1.12,0,0,1,.34-.12c.31-.13.75-.25,1.28-.41l1.48-.5c.06.06.12.16.22.25a1.47,1.47,0,0,0,1.13.44,1.55,1.55,0,0,0,1-.32,7.14,7.14,0,0,0,.1.82,4.9,4.9,0,0,0,2,3.34,4.84,4.84,0,0,0,3.79.88,5.29,5.29,0,0,0,.91-.19l.22-.09A15.84,15.84,0,0,0,32,21.71a4.63,4.63,0,0,1,.06.95v.16a2.47,2.47,0,0,1-.25.95c-.22.35-.38.75-.56,1.13-.13.19-.19.44-.32.63s-.19.32-.25.47a6.94,6.94,0,0,1-.41.76l-1.15,2.08,0,0-2.82,5a.09.09,0,0,1,0,.06h0a4.21,4.21,0,0,1-.57.76c-.09.13-.22.28-.31.41a2,2,0,0,0-.22.19,5.46,5.46,0,0,0-.84,1.1,1.48,1.48,0,0,0-.19,1,3.47,3.47,0,0,0,.35.85,1.75,1.75,0,0,0,.22.28,4.19,4.19,0,0,0,.35.29,2.3,2.3,0,0,0,1.76.22,2.09,2.09,0,0,0,1.09-.82,3.48,3.48,0,0,0,.47-1.73,4.5,4.5,0,0,1,.1-.7,8.49,8.49,0,0,1,.25-.95l1.59-4h0a.21.21,0,0,0,0-.12c.26-.54.48-1.07.72-1.6s.5-1.14.72-1.7a1.77,1.77,0,0,0,.16-.35c.28-.59.47-1.1.69-1.48v-.1a12.68,12.68,0,0,1,.53-1.17,1,1,0,0,1,.22-.41,0,0,0,0,0,0,0l.06-.09a1.22,1.22,0,0,1,.47-.35c.35-.22.66-.47,1-.7a2.24,2.24,0,0,0,.69-.94,1.86,1.86,0,0,0,.1-1.16,1.81,1.81,0,0,0-.25-.54V20c0-.06-.09-.09-.13-.13l-.06-.06s-.06,0-.1-.06-.06-.06-.06-.09a1.86,1.86,0,0,1,.19-.22,3.38,3.38,0,0,0,.44-.82l0,0h0a2.26,2.26,0,0,0,.66,0,2.14,2.14,0,0,0,.43-.12,2.42,2.42,0,0,0,.95-.66,2.11,2.11,0,0,0,.37-1.54,1.78,1.78,0,0,0-.6-1.17"/></g></g><g id="g508"><g id="g510"><path id="path512" class="cls-2" d="M12.21,14.69a2.93,2.93,0,0,1,.16-1c.16-.63.44-.91.85-.91s.6.16.6.44a7,7,0,0,1-.26,1,2.24,2.24,0,0,0,.5,1.48,3.6,3.6,0,0,1,.47.63c0,.28-.22.44-.66.44a1.44,1.44,0,0,1-1.38-1c-.19-.66-.28-1-.28-1.07m2-3.5v0Zm2.82.44A3.3,3.3,0,0,0,14.38,11,3.48,3.48,0,0,0,12,12.42a3.38,3.38,0,0,0-.66,2.68,3.61,3.61,0,0,0,1.44,2.36A3.59,3.59,0,0,0,18.45,14,3.42,3.42,0,0,0,17,11.63"/></g></g><g id="g962"><g id="g964"><path id="path966" class="cls-2" d="M18.23,13.8a3.49,3.49,0,0,0-1.44-2.37,3.34,3.34,0,0,0-2.71-.67,3.55,3.55,0,0,0-2.39,1.47A3.45,3.45,0,0,0,11,15a3.67,3.67,0,0,0,1.47,2.4,3.65,3.65,0,0,0,5.74-3.55"/></g></g><g id="g968"><g id="g970"><path id="path972" class="cls-2" d="M28.92,15.74a3.4,3.4,0,0,0-2.71-.67,3.6,3.6,0,0,0-2.39,1.5,3.69,3.69,0,0,0,.8,5.09,3.42,3.42,0,0,0,2.71.64,3.59,3.59,0,0,0,3-4.16,3.64,3.64,0,0,0-1.43-2.4"/></g></g><g id="g974"><g id="g976"><path id="path978" class="cls-2" d="M36.13,17.5a2.62,2.62,0,0,0-.48-2s.61,0,.88.67a1,1,0,0,1-.4,1.29m-9.36,5.91a4.72,4.72,0,1,1,4.7-4.72,4.71,4.71,0,0,1-4.7,4.72m-2.83-11.8a1.13,1.13,0,0,1,.35.67,1.09,1.09,0,0,1-.16.8.58.58,0,0,1-.29.22v-.19a3.39,3.39,0,0,0-.32-1.41,2.73,2.73,0,0,0-.19-.32,1.06,1.06,0,0,1,.6.22M21.79,17a1,1,0,0,1,0,.1,1.1,1.1,0,0,1,0,.11v0a2.25,2.25,0,0,1-.14.32l-.11.13a1.23,1.23,0,0,1-1.37.53,1.37,1.37,0,0,1-.6-1.82c0-.06,0-.11.07-.16a1.31,1.31,0,0,1,.08-.19l.12-.14a1.22,1.22,0,0,1,1.35-.5,1.31,1.31,0,0,1,.66,1.6m-7.07,2.13a4.79,4.79,0,1,1,4.77-4.79,4.78,4.78,0,0,1-4.77,4.79m-5.3-6.9a4.65,4.65,0,0,0-.28,1.09,1.05,1.05,0,0,1-.22-.67c0-.64.22-1,.7-1h.09a4.87,4.87,0,0,0-.29.55m28.09,4.08c-.2-1-.48-1.4-1-1.55a3.82,3.82,0,0,0-1.55.16,10.66,10.66,0,0,0-2.33-.83c-.6-.13-1.82-.29-3.57-.45-1-.06-2.55-.16-2.71-.13a6.33,6.33,0,0,0-.83.13A2.16,2.16,0,0,0,26,12.06a2.32,2.32,0,0,0-.83-1.41,4.57,4.57,0,0,0-.54-.26,3.84,3.84,0,0,0-.54-.13,2.18,2.18,0,0,0-.64,0,2.29,2.29,0,0,0-.7.39l-.7-.35c-.19-.06-5.77-1.15-6-1.18s-.16,0-.86,0a11.44,11.44,0,0,0-1.82.19,4.94,4.94,0,0,0-2.68,1.89l-.1-.1A1.36,1.36,0,0,0,9.4,11a1.74,1.74,0,0,0-1,.83,1.86,1.86,0,0,0-.19,1.25,1.31,1.31,0,0,0,.67.93,1.34,1.34,0,0,0,.64.19,8,8,0,0,0,0,.86,5.23,5.23,0,0,0,2.07,3.43,4.85,4.85,0,0,0,3.83.95,2.91,2.91,0,0,0,.62-.1,20.08,20.08,0,0,0,2.76-1.32l0,.06a1.53,1.53,0,0,0,1.16.91,1.55,1.55,0,0,0,1.29-.31l.51,1.6h0a5.07,5.07,0,0,0,5.7,3.45,5.59,5.59,0,0,0,.93-.19l.22-.09a15.88,15.88,0,0,0,3.38-1.86,8.41,8.41,0,0,1,.06,1.12,2.54,2.54,0,0,1-.26,1c-.22.35-2.78,5.19-2.78,5.19L26.27,34l-1.16,1.12h0a2,2,0,1,0,3.29,1.53s.2-1.32.3-1.64c0,0,2.11-5.28,2.36-5.83s2.46-5.41,2.46-5.41A14.81,14.81,0,0,1,35,22.69a2.17,2.17,0,0,0,.83-1.2,2,2,0,0,0-.29-1.55,1.24,1.24,0,0,0-.35-.35,7.17,7.17,0,0,0,.72-1.25s.67-.16.9-.19a1.9,1.9,0,0,0,.7-1.85"/></g></g></g></g></svg>