<svg xmlns="http://www.w3.org/2000/svg" viewBox="0 0 44.37 44.36"><defs><style>.cls-1{fill:#385988;}.cls-2{fill:#fff;}</style></defs><title>Artboard 12</title><g id="Layer_12" data-name="Layer 12"><path class="cls-1" d="M44.36,22.18A22.18,22.18,0,1,1,22.18,0,22.18,22.18,0,0,1,44.36,22.18"/><path class="cls-2" d="M13.64,12.25l-.1.1a1.18,1.18,0,0,1-1.15,0,1.29,1.29,0,0,1,0-.36c0-.07.07-.13.17-.2.51-.33.91-.27,1.18.13v.2Zm19.75,2.13a.07.07,0,0,1-.07.07c-.54.7-.84,1.13-.95,1.26a3.66,3.66,0,0,1-1.45.73,14,14,0,0,0-1.68.6s-.34,0-.61,0H26.82a10.84,10.84,0,0,0-1.62.13c-.3,0-.57.1-.91.13a26.08,26.08,0,0,0-2.73.76,26.92,26.92,0,0,1-2.93.76l-1.48,0-.77-6v-.36a3,3,0,0,0,.67-.1,2.94,2.94,0,0,0,1.11-.47s.07-.1.13-.17a2.06,2.06,0,0,0,.27-.46,8.84,8.84,0,0,0,.67-1.36v-.1c-.27.07-.74.1-1.42.17a3.24,3.24,0,0,0-.81.23,1.6,1.6,0,0,0-.5.4c-.13.23-.2.36-.23.36a2.46,2.46,0,0,1-.24-.3v0c0-.3.5-.63,1.48-1,.1,0,.2-.1.4-.17a1.84,1.84,0,0,1,.27-.13s.13-.07.17-.1.2-.13.34-.2a1.67,1.67,0,0,0,.44-.3,1.13,1.13,0,0,0,.24-.34A2.24,2.24,0,0,0,19.51,8a3.67,3.67,0,0,0,.13-.53,3.79,3.79,0,0,0,0-.63.71.71,0,0,1,0-.27c-.1-.33-.24-.5-.41-.46s-.13.07-.2.13a.85.85,0,0,0-.1.56,3.41,3.41,0,0,1,0,.57,1.41,1.41,0,0,1-.13.53.76.76,0,0,1-.3.27l-.24.16a5.83,5.83,0,0,0,.07-.7c0-.23,0-.46-.07-.6a1.19,1.19,0,0,0-.07-.4,1.45,1.45,0,0,0-.2-.4,3,3,0,0,0-.34-.57,1.43,1.43,0,0,0-.27-.33A1.64,1.64,0,0,0,17,5.07l-.47.17A4.15,4.15,0,0,1,17.29,8a3.49,3.49,0,0,1-.27.66,1.74,1.74,0,0,1-.13.17l-.84.5a1.65,1.65,0,0,0-.37.26c-.1.07-.23.2-.4.34a1.39,1.39,0,0,1-.17-.44,2.66,2.66,0,0,1,.23-.2A3.57,3.57,0,0,1,15.8,9a1,1,0,0,0,.31-.5,1.07,1.07,0,0,0,0-.57c-.07-.2-.13-.36-.2-.53a4.55,4.55,0,0,0-.3-.5l-.3.13s0,.13,0,.2a1.76,1.76,0,0,1,0,.83,2.38,2.38,0,0,1-.3.53.27.27,0,0,1-.14.07h0s-.1,0-.1,0a.73.73,0,0,1-.37-.4,1.62,1.62,0,0,1-.17-.36c0-.2-.07-.36-.1-.53S14,7,13.95,6.8A1.88,1.88,0,0,1,14,6.13l0-.07L13.51,6a2.61,2.61,0,0,0-.23,1.76,3.22,3.22,0,0,0,.17.63.67.67,0,0,0,.14.27,4.68,4.68,0,0,0,.23.46,2.33,2.33,0,0,1,.17.83c0,.1,0,.1-.07.1s-.54-.73-.57-.73l-.34.3.23,1-1.08.43a2.84,2.84,0,0,0-.67.73,1.77,1.77,0,0,1-.88.67c-.37.16-.77.26-1.18.4a4.85,4.85,0,0,0-1,.44l.4.8,0,.46,3.84.07-1.45,7.71.23,2.43-2.86.73c-.1.56-.2,1.19-.3,1.76,0,0-.1.67-.14,1a6.33,6.33,0,0,0-.1.8,3.72,3.72,0,0,0,0,.63,1.24,1.24,0,0,0,.2.56,6.12,6.12,0,0,0,.67.67,3.4,3.4,0,0,0,1.58.8c.68.2,1.38.33,2.09.53L13,32l-1.21-1.73-1.21.37.2-.43-.94-.27a2.47,2.47,0,0,1-.27-.63,1.75,1.75,0,0,1-.14-.73,4.37,4.37,0,0,1,.6-2h5.09v.13c-.2.6-.44,1.2-.67,1.73a8.25,8.25,0,0,0-.78,3.46c0,.34,0,.7,0,1.1a12.32,12.32,0,0,1-.37,1.86,1.25,1.25,0,0,0-.07.36,4,4,0,0,0,.07.67,4.42,4.42,0,0,0,.2.7A22.65,22.65,0,0,0,14,39a1,1,0,0,0,.1.17s0,0,.07,0,0,0,.07,0a5,5,0,0,0,.88-1.33,10.22,10.22,0,0,0,.07-1.4l-.74-.5a2.31,2.31,0,0,0,.34-.83,3.13,3.13,0,0,0,0-.8A6.21,6.21,0,0,1,15,32.8a1.87,1.87,0,0,0,.1-.46,10.38,10.38,0,0,1,.37-1.66,2.14,2.14,0,0,1,.37-.73,3.27,3.27,0,0,1,.4-.5,14.05,14.05,0,0,0,1.62-2.09,4.92,4.92,0,0,0,.41-.83,3.1,3.1,0,0,0,.27-.56s2.33-.53,2.43-.57a2.59,2.59,0,0,0,.54-.13,9.29,9.29,0,0,0,1.11-.37l3.07-1.73c.3.17.57.36.84.53a3.74,3.74,0,0,0,.64.33c.37.13.74.24,1.11.33s.74-.1,1.15-.13l3.37-.63.1,2.23a2.78,2.78,0,0,1,.1.4,3,3,0,0,0,.54,1,4.6,4.6,0,0,0,.94.63l1,.3-.57-2.43-.44.43-.4,0,.34-2.83c.13.07.51.33.57.36.34.33.71.67,1,1l1.42,1.26c.23.23.5.43.74.63a3.58,3.58,0,0,0,.37.33c.14,0,.24.1.4.13.4.13.78.23,1.18.34.2,0,.4,0,.58.07a3.59,3.59,0,0,1,.6-.07l.27-.3L40,25.58,39,26l-3.94-5.19-.67.27-.17-1.76-2.46,1.49-.71-.33s0,0,0-.07c-.07-.2-.1-.4-.13-.53a4.5,4.5,0,0,0-.23-.87c-.07-.13-.23-.66-.23-.66a6.8,6.8,0,0,0,1.21,0A2.27,2.27,0,0,0,33.57,17a2.86,2.86,0,0,0,.27-1.53,3,3,0,0,0-.37-1Z"/></g></svg>