<svg xmlns="http://www.w3.org/2000/svg" viewBox="0 0 44.37 44.36"><defs><style>.cls-1{fill:#385988;}.cls-2{fill:#fff;}</style></defs><title>Artboard 10</title><g id="Layer_10" data-name="Layer 10"><path class="cls-1" d="M44.36,22.18A22.18,22.18,0,1,1,22.18,0,22.18,22.18,0,0,1,44.36,22.18"/><path class="cls-2" d="M34,16,33,16.8,31,12.58l-2,.23L25.22,9.27s-3.86,2.93-4.05,3-4.6,6.36-4.6,6.36l3.34-1.23,2.43,1.86,2.31-1.86L27,20.08a14,14,0,0,0,1.92-1.62s3,2.41,3.07,2.41l0,0v.05l1.91-2.79,5.6,9.23-6.93,1.34h-16l-5.87-1.93L15,20.88l-1.58.46L9.32,26.63l-3.39.31L14.2,14l1-.72.5,1.62,2-1.21.46,1.07L20,12l4.43-3.22-2,.62-2-1.57s-2.87,2.42-3,2.39l-1.29-.78-2.81,4.18L3.69,28.17l6.43-.39,6.1,2.09,16.43,0,8.78-1.78Z"/></g></svg>