<svg xmlns="http://www.w3.org/2000/svg" viewBox="0 0 44.37 44.36"><defs><style>.cls-1{fill:#385988;}.cls-2{fill:#fff;}</style></defs><title>Artboard 15</title><g id="Layer_15" data-name="Layer 15"><path class="cls-1" d="M44.36,22.18A22.18,22.18,0,1,1,22.18,0,22.18,22.18,0,0,1,44.36,22.18"/><path class="cls-2" d="M38.19,19.37a3.71,3.71,0,0,0-.47-2.06l-1.13.53h0A3.71,3.71,0,0,0,38,19.47Z"/><path class="cls-2" d="M36.93,20.25a3.71,3.71,0,0,0-.47-2.06l-1.13.53h0a3.71,3.71,0,0,0,1.37,1.61Z"/><path class="cls-2" d="M35.69,21.17a3.72,3.72,0,0,0-.46-2.06l-1.13.53h0a3.74,3.74,0,0,0,1.37,1.61Z"/><path class="cls-2" d="M34.43,22.13A3.72,3.72,0,0,0,34,20.07l-1.13.53h0a3.72,3.72,0,0,0,1.37,1.61Z"/><path class="cls-2" d="M33.14,22.94a3.7,3.7,0,0,0-.63-2l-1.08.62h0a3.7,3.7,0,0,0,1.49,1.5Z"/><path class="cls-2" d="M31.72,23.87a3.73,3.73,0,0,0-.64-2L30,22.49h0A3.72,3.72,0,0,0,31.5,24Z"/><path class="cls-2" d="M20.9,11.27a8.29,8.29,0,0,1,3.74,3.25l.21.29c.26.34.87,1.32,1.46,2.26.36.58.76,1.13,1,1.52.68,1,2.27,3,2.34,3.08l.46-.5-2.18-3.09c-.25-.39-.6-.94-1-1.52-.6-1-1.21-1.94-1.49-2.3L25.31,14a8.81,8.81,0,0,0-4-3.47,5.93,5.93,0,0,0-4.07,0l-1.41.84,1-.24a7.48,7.48,0,0,1,4.09.13"/><path class="cls-2" d="M27.19,24.65h0L28.26,24a3.67,3.67,0,0,1,.64,2l-.21.12a3.67,3.67,0,0,1-1.5-1.48M38.9,21.48s-9.23,7.17-9.25,7.17a2,2,0,0,0-.17-.44l9.2-7.37s-.31-.9-.37-1.09c0,0-9.33,7.45-9.47,7.58,0,0-.51-.8-.48-.76l2.72-1.92-1.13-1a3.91,3.91,0,0,1,.3,1.35L30,25.1a3.73,3.73,0,0,1-1.5-1.48h0l.86-.5-.22-.2c-.2-.21-1.58-1.84-1.72-2-.39-.52-.64-.9-.81-1.17-.05-.11-.64-1-.69-1.09-.44-.74-.81-1.36-1.14-1.91-.05-.08-2.08-3.05-3.55-4a6.92,6.92,0,0,0-4.88-1c-.17.05-.88.22-1.05.27s-1.16.87-1.75,1.31-1.11,1-1.44,1.25a25.52,25.52,0,0,1-2.58,1.74,9.47,9.47,0,0,1,1,.11,7.38,7.38,0,0,1,3.71,1.5,16.1,16.1,0,0,1,2.05,1.74,15.24,15.24,0,0,1,2,3.1c.78,1.53,1.94,4.82,3.62,6.56s2.75,2.16,4.06,2.27a7.9,7.9,0,0,0,2.88-.22,4.3,4.3,0,0,0,1-.52c-.08.27-.41.54-.49.72A5.85,5.85,0,0,1,27.63,33c-4,1.15-7-3.13-7.37-3.68a18.4,18.4,0,0,1-1.55-2.67c-.25-.46-2.4-5-3.19-6.08a9.93,9.93,0,0,0-2.93-2.27c-3.73-2.27-6.34,0-6.34,0a1.64,1.64,0,0,0-.32.36,4,4,0,0,0-.72,2.48,7,7,0,0,0,.22,1,4.18,4.18,0,0,0,.41.76L6,23.1a6.44,6.44,0,0,0,1,1.17c.5-.46,5.16-4.28,5.67-4.7.06,0,.35.07.44.12l-.51.43h0l-5.26,4.4a7.14,7.14,0,0,0,.57.61c.15-.13,5.83-4.84,5.89-4.88A3.67,3.67,0,0,1,15,21.54c.17.32,1.61,3.46,1.91,4.22a17.4,17.4,0,0,0,5,7,4.45,4.45,0,0,0,1.08.66h0c.06,0,3.9,1.83,6.31-.68.06,0,1-1.05,1.15-1.27.36-.35,3-3,4.46-4.27,1.72-1.61,2.74-2.53,3-2.83a2.51,2.51,0,0,0,.75-.82,2.33,2.33,0,0,0,.28-1,5.6,5.6,0,0,0-.06-1.09"/><path class="cls-2" d="M8.23,25.35a3.7,3.7,0,0,0,.63,2l1.08-.62h0a3.7,3.7,0,0,0-1.49-1.5Z"/><path class="cls-2" d="M9.5,24.28a3.7,3.7,0,0,0,.63,2l1.08-.62h0a3.74,3.74,0,0,0-1.49-1.5Z"/><path class="cls-2" d="M10.76,23.28a3.72,3.72,0,0,0,.63,2l1.08-.62h0A3.72,3.72,0,0,0,11,23.15Z"/><path class="cls-2" d="M12.13,22.21a3.7,3.7,0,0,0,.63,2l1.08-.62h0a3.72,3.72,0,0,0-1.49-1.5Z"/><path class="cls-2" d="M13.49,21.27a3.72,3.72,0,0,0,.63,2l1.08-.62h0a3.74,3.74,0,0,0-1.49-1.5Z"/></g></svg>