<svg xmlns="http://www.w3.org/2000/svg" viewBox="0 0 44.37 44.36"><defs><style>.cls-1{fill:#385988;}.cls-2{fill:#fff;}</style></defs><title>Artboard 6</title><g id="Layer_6" data-name="Layer 6"><path class="cls-1" d="M44.36,22.18A22.18,22.18,0,1,1,22.18,0,22.18,22.18,0,0,1,44.36,22.18"/><path class="cls-2" d="M9,16.87a.51.51,0,1,1,.52-.51.51.51,0,0,1-.52.51m-2.51-.7A.51.51,0,1,1,7,15.67a.52.52,0,0,1-.52.51m34.9,1.21a18.78,18.78,0,0,1,2.09-.24,4.38,4.38,0,0,0-1.27-1,3.67,3.67,0,0,0-1.12-.54A4.45,4.45,0,0,0,40,15.36a.32.32,0,0,1,0-.11,5.57,5.57,0,0,1,.94-.71,5.69,5.69,0,0,0-4.41.59l-.14.11a.7.7,0,0,0,0-.08,3.69,3.69,0,0,1,.39-.8,5.61,5.61,0,0,0-3,1.78.56.56,0,0,1-.19.11,3.43,3.43,0,0,1,0-.86,4.43,4.43,0,0,0-1.21,1.26,2.91,2.91,0,0,0-.25.38,4.2,4.2,0,0,0-.57,1.54.39.39,0,0,1-.08.11.63.63,0,0,1-.42-.51c-.44.16-.62,1.81-.62,2a9,9,0,0,1-.2,1.1,2.41,2.41,0,0,1-.35-.57,5.82,5.82,0,0,0-.29,2.92c0,.09-.25,2.2-1.92,2.21a1.84,1.84,0,0,1-1.33-.56h0a1.09,1.09,0,0,1-.35-.53,1.75,1.75,0,0,1-.16-.73s0,0,0-.05A2.46,2.46,0,0,1,26.9,21.8c1.6-1.37,3.72-5.12,3.69-5.78,0-.05,0-.15,0-.24a2.9,2.9,0,0,1,.68.34,5.77,5.77,0,0,0-1.4-2.71,5.68,5.68,0,0,1,1.18,0,6,6,0,0,0-2.57-1.83,4.15,4.15,0,0,1,.88-.5,6.06,6.06,0,0,0-4.06-.23,5.4,5.4,0,0,1,.8-.84,5.85,5.85,0,0,0-4,1.09l-.15.06a4.66,4.66,0,0,1,.48-1,4.56,4.56,0,0,0-1.6.58,2.18,2.18,0,0,0-.65.39,4.12,4.12,0,0,0-1.4,1.53h0a.45.45,0,0,1-.27-.27c0-.07,0-.17,0-.24a4.45,4.45,0,0,0-.69,1.16,5.89,5.89,0,0,0-.31.72c-1,2.92-2.71,6.66-2.71,6.66a1.6,1.6,0,0,1-1.53.92,1.71,1.71,0,0,1-.63-.17,1.86,1.86,0,0,1-.65-1.79c.24,0,1.1.39,1.24.39A9.65,9.65,0,0,0,13,18.31c.42-.07,1.7-.2,1.77-.27a18,18,0,0,0-2-1.78c.35-.27.73-.51,1.11-.79a21.21,21.21,0,0,0,1.95-2.42c-.21,0-3.27,1.57-4.17,2L11,14.89s1.18-.89,1.42-1.09a12.17,12.17,0,0,0,1.42-1.64c-.11,0-1.49.55-1.74.58a4.54,4.54,0,0,0-1.84,1.16L10,13a4.94,4.94,0,0,0-1.11,1.23,3.62,3.62,0,0,1-.32-1.06c-.17,0-.84.82-.9,1.06H7.31c-1.39,0-2.14.55-2.09,1.43a2.92,2.92,0,0,0,.24,1.2,1.46,1.46,0,0,1-.94,0,1.83,1.83,0,0,0-.73,0c-.1,0-.22,0-.29.11a.84.84,0,0,0-.07.34,1,1,0,0,0,.21.61.84.84,0,0,0,.86.25c.31-.08.41-.44.62-.65A.86.86,0,0,1,6,17.26a.59.59,0,0,1,.48.26,1.23,1.23,0,0,1-.11,1.29.8.8,0,0,1-.38.18.7.7,0,0,1-.56-.21.49.49,0,0,1-.11-.37.7.7,0,0,1,.33-.53c.35-.07.48.14.38.41a.21.21,0,1,0-.37.19.24.24,0,0,0,.2.11.49.49,0,0,0,.38-.37c.06-.25.05-.42-.27-.53a.56.56,0,0,0-.34,0,1.44,1.44,0,0,0-.37.3,2.8,2.8,0,0,1-.5.49.83.83,0,0,1-.35.1A1.36,1.36,0,0,1,3.24,18c-.12-.15-.37-.8.07-1.14,0,0-.56,0-.73.31a1.12,1.12,0,0,0,.07,1l.07.07c.11.31.21.69.35,1.23a7.34,7.34,0,0,0,.38-.75c.07,0,.34.17.45.24a5.79,5.79,0,0,0,.68.29l.46.88a1.92,1.92,0,0,0,.38-.75,4.08,4.08,0,0,0,2.33-.79c.17-.1,1.77-1.3,2.78-.78l-.09.36-.83-.07a2.79,2.79,0,0,0-.49.65,4.07,4.07,0,0,1-.26.36s-1,.38-1,.38a3.74,3.74,0,0,0-.84,0A2.38,2.38,0,0,0,5.88,20c-.34.27-.76.59-1.21.34a2.46,2.46,0,0,1-.76-.93s-.17.1-.35.51.69.92,1,1a1.17,1.17,0,0,1,.48.17,4.31,4.31,0,0,1,.32.51,2.53,2.53,0,0,1,.07.51v.31l.38-.14.38-1a5,5,0,0,0,.73.38v-.58a1.09,1.09,0,0,1,.27-.68l1.57.07c0,.1.24.48.24.55s0,.34,0,.51a7.13,7.13,0,0,0,.14,1c0,.31.14.65.21,1a3.87,3.87,0,0,0,.24.68c.07.14.28.55.35.65l.11.24a4.43,4.43,0,0,0-.21,1.57c0,.1.14.58.17.72l-1.53-.1-.14-.14a.93.93,0,0,1-.14-.24c.07-.17.17-.34.24-.51a1.12,1.12,0,0,0,.17-.82c-.11-.36-.69-.72-.76-.75a1.93,1.93,0,0,1,.07.75c-.07.3-.35.41-.52.58-.07,0-1.07-1-1.39-1.06a4.14,4.14,0,0,0-1.21.41,6.05,6.05,0,0,1,1,.45,2.9,2.9,0,0,1,.51.71,1.64,1.64,0,0,0-.5.07c-.31.07-.33.12-.69.41a1.57,1.57,0,0,0-.45.89.93.93,0,0,1,.59-.44,8,8,0,0,1,1.53-.14,3.22,3.22,0,0,1,.8,1,1.44,1.44,0,0,1,.14,1.06.41.41,0,0,1-.1.31,2.35,2.35,0,0,0,.63-.34.63.63,0,0,0,.28-.34A4.26,4.26,0,0,0,8.59,28l1.77.79a.68.68,0,0,0,.28-.07,4.1,4.1,0,0,0,.52-.27,3.18,3.18,0,0,0,.69-.65c.07-.14.38-.86.49-1.09A5.74,5.74,0,0,0,16,26.41a4.45,4.45,0,0,0,1.85.51,3,3,0,0,1-.28,1.33c0,.14-.23.44-.26.58-.38-.41-.54-.65-1.84-.78-.28.27-.5.4-.64.71a1.18,1.18,0,0,1,1.53.51,3.66,3.66,0,0,0-1.22,1.4l.39.95a4.42,4.42,0,0,1,1.07-1.56,3.38,3.38,0,0,0,.55,1.81,5.86,5.86,0,0,1,1.08.36,2,2,0,0,1-.49-1.73c0-.77,1.12-1.4,1.57-1.74A4.64,4.64,0,0,0,20,29a2.34,2.34,0,0,1-.24-.62,1.07,1.07,0,0,0-1.35.1A26.26,26.26,0,0,0,19.5,26a.55.55,0,0,0-.14-.61,1.31,1.31,0,0,0-.59-.55,8,8,0,0,0-1.22-.37s3.33-8,5.49-8.93h0a1.75,1.75,0,0,1,.84-.21A1.67,1.67,0,0,1,25.66,17c-.16,1.46-3.48,4.64-3.75,5.36a5.75,5.75,0,0,0-.31,3.31,5.28,5.28,0,0,0,1.7,2.8,3.13,3.13,0,0,0,1.25,2s-1.25.86-1.39.92a11.62,11.62,0,0,0-.21-1.3.54.54,0,0,0-.42-.34c-.07,0-1-.17-1.46-.17a6.62,6.62,0,0,1,.63.48.64.64,0,0,1,.28.58v.41l-1.91.07a5.66,5.66,0,0,0-.55,1.3l.8-.58a1.54,1.54,0,0,1,1.67.48s-.9.55-1.15.68l-.17.37a3.55,3.55,0,0,0,.24,1,1.16,1.16,0,0,0,.17.27,5.81,5.81,0,0,1,.56-1.23A3.11,3.11,0,0,1,24,32.87a.49.49,0,0,1,.35.62l-.35.41a7.73,7.73,0,0,0,.94-.34.93.93,0,0,0,.1-.51c0-.14-.1-.82-.14-.89a6.3,6.3,0,0,0-1-.31c.21-.07,1.63-.41,1.88-.55a1,1,0,0,0,.55-.92,3.54,3.54,0,0,0,0-.6,6.36,6.36,0,0,0,5.4-.93c0,.17.24.81.28.92l0,1c-.24-.07-.34-.15-.66-.24a1.61,1.61,0,0,0-1.09.16,2.55,2.55,0,0,0-.47.56,2,2,0,0,1,.52-.21,5,5,0,0,1,1.32.55,2.81,2.81,0,0,0-.77,1.67,1.7,1.7,0,0,0,.24.72s.44-1.44,1.15-1.57c0,.17,0,.91,1.6,1.57l-.52-.65a5.49,5.49,0,0,1-.14-1.85l.8-1.13c.24,0,.55.1.83.17l0-.24a1.27,1.27,0,0,0-.42-.27,3.13,3.13,0,0,0-.83-.13l-.56.48.11-.72a3.5,3.5,0,0,1,.35-1,.75.75,0,0,0,0-.55,1.51,1.51,0,0,0-.42-.51,1.89,1.89,0,0,0-.55-.34c0-.1.52-1.57.55-1.88,0,0,.14-.92.18-1.3s.48-2.73.48-2.87a6,6,0,0,1,1-2.63,5,5,0,0,1,1.77-1.37,4.51,4.51,0,0,1,2.85.07c2.24.9,3.56,4,3.56,4s1.25-1.73-1.63-3.9"/></g></svg>