<svg xmlns="http://www.w3.org/2000/svg" viewBox="0 0 44.37 44.36"><defs><style>.cls-1{fill:#385988;}.cls-2{fill:#fff;}</style></defs><title>Artboard 13</title><g id="Layer_13" data-name="Layer 13"><path class="cls-1" d="M44.36,22.18A22.18,22.18,0,1,1,22.18,0,22.18,22.18,0,0,1,44.36,22.18"/><path class="cls-2" d="M36.52,13.24l.23-.89a4.92,4.92,0,0,0-2.33,1.47,10.67,10.67,0,0,1-1.72.42,3.76,3.76,0,0,0-1.55,1c-.37.31-1.05,1.11-1.1,1.16a5.29,5.29,0,0,1-.91.22c-.73.22-2.51.8-2.75.89a17.8,17.8,0,0,0-2.3,1.38c.54.8,2.39,3.44,3.93,3.31a4,4,0,0,0,2.08-.82c.19-.22,1.21-1.33,1.21-1.33.37-.31.65-.9.93-1.08a9.17,9.17,0,0,1,1-.62,6.12,6.12,0,0,1,1.24-.49c.46-.18,1-.36,1.64-.63s1.1-.4,1.55-.53,1-.4,1.28-.53c0,0,1.14-.8,1.37-.94a10.28,10.28,0,0,0,2-2.45c.32-.58.69-1.2,1-1.78a11.39,11.39,0,0,0-2.74,1.91c0,.09-.14.13-.23.23.23-.45.78-2.1.78-2.1-.27,0-.78.31-1.46,1a10,10,0,0,1-1.1.89l.32-1Z"/><path class="cls-2" d="M33.16,22.49c-.35,0-.5-.12-.5-.38s.23-.45.62-.45.42.11.42.37-.19.45-.54.45M18,29.77a30.45,30.45,0,0,1-3.89,2.34,2.91,2.91,0,0,0-.67-.08c-.19,0-1.42.32-1.58.32,0,0,1.07-.71,1.22-.82.38-.22,1.2-.76,1.62-1,.12-.08,1.85-1.16,2.31-1.39a7.53,7.53,0,0,1,1.52-.53h.23l.27.07c.45.26.62.29.94.5a15.15,15.15,0,0,1-2,.61m21.76-7.2a4.56,4.56,0,0,0-1-.6,9.67,9.67,0,0,0-1.15-.23,10.83,10.83,0,0,0-2.89-.07c0-.12-.42-.57-.46-.64a3.81,3.81,0,0,0-1-.11,4.56,4.56,0,0,0-3,1.16c-.08,0-.42.38-.65.57-.08,0-1.47.41-1.7.41a3.1,3.1,0,0,1-.81-.06l.86.67,1.34-.12c-.23.19-.64.38-.87.57l.31.3c.07,0,1.77-.54,1.85-.58a1.45,1.45,0,0,0,.27.58c.12.12.65.54.65.54a1.35,1.35,0,0,1,.76,1.27c0,.34-.5,1.05-1.39.49a2.76,2.76,0,0,1-.76-1l-2.28-1.62c-.31-.18-1.81-1.74-1.9-1.82A13.58,13.58,0,0,1,24.64,21a11.67,11.67,0,0,1-1.35-1.87,11,11,0,0,0-3.5-4.36A18,18,0,0,0,16,12.84a19.13,19.13,0,0,1-1.88-.69,10.63,10.63,0,0,1-1.21-.51L11.66,11A37.57,37.57,0,0,1,7.38,8.45C7,9.56,8.91,11.1,8.77,11.07a6.59,6.59,0,0,1-2.69-1A9,9,0,0,0,7.2,11.86,6,6,0,0,0,9,12.9a15.12,15.12,0,0,1-3.31-.23,7.27,7.27,0,0,0,1,.92,5.08,5.08,0,0,0,2.11.83c-.24.08-3.13.32-3.21.32a10.15,10.15,0,0,0,1.39.89A5,5,0,0,0,8.89,16a6.56,6.56,0,0,1-1.53,1,6.35,6.35,0,0,0,2.22.21c.08,0,.16-.08.24-.08s0,0,0,.08a2.23,2.23,0,0,0-.32.6s0,.12.12.28a1.53,1.53,0,0,0,.69.24,1.88,1.88,0,0,0,.9-.12c.12,0,.12,0,0,.16a1.34,1.34,0,0,0-.33.56c0,.08.12.16.29.32a1.81,1.81,0,0,0,.93.36,1.43,1.43,0,0,0,1-.2s0,0,0,0a1.25,1.25,0,0,0-.28.48s.08.16.28.32a2.06,2.06,0,0,0,.9.4h.73a.52.52,0,0,0-.16.28V21c0,.08.08.12.12.2a2.72,2.72,0,0,0,1.26.48.89.89,0,0,0,.53-.08.06.06,0,0,1,0,.08c-.25.28-.41.56-.37.64s.08.12.16.2a1.68,1.68,0,0,0,.9.4,1.81,1.81,0,0,0,.65,0,.48.48,0,0,0-.17.44.53.53,0,0,0,.08.44,1.4,1.4,0,0,0,.89.44,1.75,1.75,0,0,0,.78,0c.12,0,.16,0,.12.08a2.53,2.53,0,0,0-.41.52v.12s0,0,0,.12a1.22,1.22,0,0,0,.65.32c.1,0,1.32.27,1.48.26a19.23,19.23,0,0,0-6.14,1.55,3,3,0,0,1-.47,1.2s1.9-1,1.94-.93a12,12,0,0,1-2,1.55c.08.11,2.32-.76,2.36-.69-.5.34-4.38,3-4.65,3A6.77,6.77,0,0,0,8.84,32l1-.12-1,.84,1.48-.51a16,16,0,0,0-1.12,1.16h0s1.15-.41,1.38-.53l1-.26-1.19,1.09,1.14-.21-.6.66c.84-.26,1.66-.53,2.46-.82a8.67,8.67,0,0,0,1.69-.83,1.65,1.65,0,0,0,.35-.19c.27-.19.58-.37.89-.56.89-.57,1.58-1,2.12-1.28a4.65,4.65,0,0,1,1.38-.52A5.28,5.28,0,0,1,21,29.78c4,1.63,7.78-1.37,8-1.48,0,0,4.5,3.1,5.75-.9a5.94,5.94,0,0,0-1.1-3.16,4.81,4.81,0,0,0,1.45-.7,12.85,12.85,0,0,0,4.73-1"/></g></svg>