<svg xmlns="http://www.w3.org/2000/svg" viewBox="0 0 44.37 44.36"><defs><style>.cls-1{fill:#385988;}.cls-2{fill:#fff;}</style></defs><title>Artboard 11</title><g id="Layer_11" data-name="Layer 11"><path class="cls-1" d="M44.36,22.18A22.18,22.18,0,1,1,22.18,0,22.18,22.18,0,0,1,44.36,22.18"/><path class="cls-2" d="M11.93,20.79a.47.47,0,0,1-.18.64.48.48,0,0,1-.6-.11l0,0v0l0,0a.55.55,0,0,1,0-.12.47.47,0,0,1,.24-.52.48.48,0,0,1,.65.18M27.69,6.73c-.22,0-1.21,1.77-1.47,2s-1.1,1.08-1.67,1.61-1.23,1-1.86,1.44-3.6,2.05-4.32,2.46a5.09,5.09,0,0,0-1.92,1.61,2.43,2.43,0,0,0-.25,1.63c0,.13.06.27.1.37a1.74,1.74,0,0,0,.38.69,3.82,3.82,0,0,0,.72.54l.67.49c.21.11.36.25.57.37-.41,0-.82,0-1.23,0a5.94,5.94,0,0,1-1-.07,8.6,8.6,0,0,1-1-.23,34.89,34.89,0,0,0-3.83-.55,2.72,2.72,0,0,0-1.12.32,1.86,1.86,0,0,0-.53.58,1.82,1.82,0,0,0-.19.48A3.46,3.46,0,0,0,9.85,22c-.13,0-.43.32-.49.46a1.91,1.91,0,0,0-.11.48,4.83,4.83,0,0,0,0,.76,2.49,2.49,0,0,1,1.34-.7,15.4,15.4,0,0,1,1.9,0c.2.06.42.12.63.2s.58.26.87.39l.73.32c.18.12.44.24.65.35s2.47,1.37,2.71,1.51a3.44,3.44,0,0,0-1.92.7A2.7,2.7,0,0,0,15.48,29a2.78,2.78,0,0,0,.9,1.49c0,.05.58.48,1.58,1.25L19.43,33a10.91,10.91,0,0,1,2.1,3.2s.15.44.2.62a8.25,8.25,0,0,1,.1,1,1.85,1.85,0,0,0,.07.93c.09.19.58,0,1-.7a2.2,2.2,0,0,0,.36-1s0-.12,0-.23a3.7,3.7,0,0,0,0-1,8.46,8.46,0,0,0-.3-1.11c.11.08.69.88.8,1l.23.1.1,0h.07a.59.59,0,0,0,.18,0,.52.52,0,0,0,.08-.13.55.55,0,0,0,0-.25,3.07,3.07,0,0,0-.09-.44c0-.08-.06-.17-.11-.26s-.08-.19-.13-.28a1.38,1.38,0,0,0-.14-.27.23.23,0,0,0-.06-.1c-.06-.12-.35-.53-.41-.63l.25.31a.91.91,0,0,0,.69.24.56.56,0,0,0,.35-.16l0,0a.71.71,0,0,0,0-.57,2.15,2.15,0,0,0-.3-.74c-.07-.16-.45-.64-.53-.77.08,0,.45.41.52.45h0a.36.36,0,0,0,.57-.05c.1-.11,0-.4-.14-.83a3.58,3.58,0,0,0-.37-.65l-.11-.13,0,0h0c-.05-.06-.23-.24-.28-.3s.16.1.16.1c.22.18.44.35.67.52l.23.1.1,0h.07a.54.54,0,0,0,.18,0,.58.58,0,0,0,.08-.13.55.55,0,0,0,0-.25,3.63,3.63,0,0,0-.09-.44c0-.08-.06-.17-.11-.26s-.08-.19-.13-.28a1.46,1.46,0,0,0-.14-.27.2.2,0,0,0-.06-.1l-.23-.43.08.11a.9.9,0,0,0,.69.24.55.55,0,0,0,.35-.16l0,0a.71.71,0,0,0,0-.57,14.11,14.11,0,0,1-.46-2.55,4.17,4.17,0,0,0,2.66-1.68c.2,0,.38,0,.52,0s.52,0,.75,0,.73.11,1.08.18,5.62,1.82,5.65,1.81a3,3,0,0,0-1.14-2.7,11,11,0,0,0,1.77-2c.13-.3-2.08-.8-2.33-.77.08-.07,1.82-1.85,1.61-2a11.47,11.47,0,0,0-2.78-.44,4.31,4.31,0,0,0,.44-.56,5.34,5.34,0,0,0,.33-.8,8.3,8.3,0,0,0,.06-1.33c0-.14-.26-.76-.28-.87a16.11,16.11,0,0,1-2.45,2.33,22,22,0,0,1-5.61,3.28l-.58-.55a3.3,3.3,0,0,0,.69-.43c.37-.3.53-.6.49-.75s-.21-.35-.48-.31l-.22,0a4.46,4.46,0,0,0,.37-.27,2.12,2.12,0,0,0,.62-.52A.71.71,0,0,0,27,17a.1.1,0,0,0,0,0,.58.58,0,0,0-.23-.3.94.94,0,0,0-.73-.1h0l.32-.22a.22.22,0,0,0,.1-.06,1.94,1.94,0,0,0,.25-.18L27,16c.08-.06.15-.13.22-.18a3,3,0,0,0,.29-.35.55.55,0,0,0,.08-.39.54.54,0,0,0-.16-.1l-.06,0h-.11c-.08,0-.81.07-1.09.13,0,0,0,0-.1-.09l.18-.08h0l.06,0a6.43,6.43,0,0,0,.79-.47c.37-.3.55-.52.51-.67s-.62-.32-.7-.34a3.53,3.53,0,0,0,.38-.27,2,2,0,0,0,.61-.52.71.71,0,0,0,.28-.5v0a.53.53,0,0,0-.23-.3,1.8,1.8,0,0,0-.76-.1l.32-.22a.25.25,0,0,0,.1-.06,1.58,1.58,0,0,0,.25-.18l.25-.19c.08-.06.15-.13.22-.18a3.26,3.26,0,0,0,.29-.35.59.59,0,0,0,.09-.24.54.54,0,0,0,0-.15.51.51,0,0,0-.15-.1l-.06,0h-.11a6.42,6.42,0,0,0-.73.06c1-2.32.47-3,.43-3.06s-.11-.23-.33-.23"/></g></svg>