<svg xmlns="http://www.w3.org/2000/svg" viewBox="0 0 44.37 44.36"><defs><style>.cls-1{fill:#385988;}.cls-2{fill:#fff;}</style></defs><title>Artboard 9</title><g id="Layer_9" data-name="Layer 9"><path class="cls-1" d="M44.36,22.18A22.18,22.18,0,1,1,22.18,0,22.18,22.18,0,0,1,44.36,22.18"/><path class="cls-2" d="M37.09,22.38a33.54,33.54,0,0,1-5.9-1.58l-.21.45c-.08.18-.92,2.14-1.42,3a34.38,34.38,0,0,1-5.06,7.47.64.64,0,0,1-.7-.34h0v0h0l0,0A65,65,0,0,0,30.1,21l.22-.54c-2.39-.83-7.83-3.28-7.93-3.41a.43.43,0,0,1,0-.51.65.65,0,0,1,.39-.2,48.51,48.51,0,0,0,7.81,3.37,44.93,44.93,0,0,0,2.48-7.86c0-.11,0-.2.05-.26v0h0v0h0a.64.64,0,0,1,.74.27v.05a21.82,21.82,0,0,1-.6,2.68c-.24.88-.76,2.67-1.22,3.91-.2.56-.39,1.07-.61,1.62a33.84,33.84,0,0,0,5.87,1.58c.13.22-.07.63-.29.76M34.73,8.94l0-.18c-2.91,3.37-14.08,6.66-14.08,6.66s2.33,14.52,1.85,17.84a10,10,0,0,1-1.26,2.44,2.2,2.2,0,0,1-2,.82,3.88,3.88,0,0,1-2.59-1.64l-.5-.68a8.41,8.41,0,0,1-.55-1h0l3.33,1-1.31-4.31-2.24,2.65-.06,0a15,15,0,0,1-.57-1.79l-.13-.56-.09-.43-.16-.86,0-.17-.12-.54c-.16-.7-.35-1.41-.58-2.12l0,0,3.46.43-2-4-1.7,2.91c-.09-.25-.18-.49-.28-.73l0-.09-.36-.78a11.34,11.34,0,0,0-1.47-2.29,8.59,8.59,0,0,0-1.45-1.32L9.46,20l3.18-.88L9.15,16.16l-.41,3.36a9.92,9.92,0,0,0-3.41-1.35.13.13,0,0,0-.11,0,3.19,3.19,0,0,0-.07.73s0,.06.07.06a9.61,9.61,0,0,1,3,1.3l0,0-3.54,1,3.48,2.92.6-3.57.21.13a8.62,8.62,0,0,1,1.46,1.32,10.36,10.36,0,0,1,1.41,2.24l.11.24.32.76c.08.2.14.4.21.6l-3.6-.45,2,4,1.82-2.81c.17.57.33,1.13.45,1.69l.15.72.1.51h0l.18.89.18.73a15.64,15.64,0,0,0,.52,1.56l-3.35-1,1.31,4.31,2.36-2.55a9.14,9.14,0,0,0,.69,1.25l.39.53c.84,1,2.09,2.23,3.52,2.23a3.59,3.59,0,0,0,3-1.58,13.27,13.27,0,0,0,1.32-2.29c2.58-2,12.61-9.49,16.06-11v-.14s-3.55-4.48-4.87-13.6"/></g></svg>