<svg xmlns="http://www.w3.org/2000/svg" viewBox="0 0 44.37 44.36"><defs><style>.cls-1{fill:#385988;}.cls-2{fill:#fff;}</style></defs><title>Artboard 2</title><g id="Layer_2" data-name="Layer 2"><path class="cls-1" d="M44.36,22.18A22.18,22.18,0,1,1,22.18,0,22.18,22.18,0,0,1,44.36,22.18"/><path class="cls-2" d="M20.8,15.6l.29-.5c7.38,1.3,9.17,3.93,8.9,4.46l-.28.51c.27-.48-1.4-3.15-8.91-4.46M28.59,22l-.28.5c.27-.48-1.4-3.16-8.94-4.47l.29-.51c7.42,1.29,9.21,3.94,8.93,4.47m-1.4,2.49-.28.5c.27-.48-1.41-3.17-9-4.48l.29-.5c7.45,1.29,9.25,3.94,9,4.47M25.79,27l-.28.5c.27-.48-1.41-3.17-9-4.48l.29-.5c7.48,1.29,9.29,3.95,9,4.48m10.33-4.37,1.17-2a24.77,24.77,0,0,1-6.72-2.12l.55-1c.17-.57-1.6-3.13-8.89-4.42l.29-.5c7.21,1.27,9.07,3.81,8.88,4.42l1.12-2c.14-.26-.14-.71-.84-1.37-2.09-2-6.93-2.89-8-3.08l1-1.68a2,2,0,1,0-1.83-1.11L7.06,35.13H9.52l5.8-10a30.2,30.2,0,0,1,5.85,1.67l-.36.64c.13-.23.53-.3,1-.3a8.31,8.31,0,0,1,1,.57c-1.06-.09-2.08-.16-2.3.24l-1.14,2c-.17.3.13.84,1.2,1.84,1.72,1.6,4.26,2.52,8.33,3.35l1.17-2c-2.28-.47-6.21-1.32-8.38-3.39l1,.09c2.06,1.54,5.29,2.32,7.67,2.8l1.15-2A24.27,24.27,0,0,1,25,28.51c.09-.17.19-.34.28-.5a26.81,26.81,0,0,0,6.57,2.1l1.14-2a24.52,24.52,0,0,1-6.6-2.1l.29-.5a24.48,24.48,0,0,0,6.61,2.1l1.14-2a24.46,24.46,0,0,1-6.64-2.11L28,23a27.08,27.08,0,0,0,6.65,2.11l1.14-2A24.64,24.64,0,0,1,29.16,21l.29-.5a24.7,24.7,0,0,0,6.68,2.12"/></g></svg>