<svg xmlns="http://www.w3.org/2000/svg" viewBox="0 0 44.37 44.36"><defs><style>.cls-1{fill:#385988;}.cls-2{fill:#fff;}</style></defs><title>Artboard 5</title><g id="Layer_5" data-name="Layer 5"><path class="cls-1" d="M44.36,22.18A22.18,22.18,0,1,1,22.18,0,22.18,22.18,0,0,1,44.36,22.18"/><g id="g944"><g id="g946"><path id="path948" class="cls-2" d="M33.61,29.34c-.87.07-1.47.11-2.33.16V28.6c.86-.05,1.46-.09,2.33-.16Zm-3,.2c-.88,0-1.5.08-2.34.11v-.89c.84,0,1.46-.06,2.34-.11Zm-3,.13-2.33.05v-.89c.83,0,1.44,0,2.33,0Zm-3,.05H22.32v-.89h2.33Zm-3,0c-1,0-1.41,0-2.17-.07v-.89c.76,0,1.2.05,2.17.07Zm-7.6-2.23L4.78,21.82a1.13,1.13,0,0,1,.33,0,13,13,0,0,1,2.27.33,25.43,25.43,0,0,1,4.38,1.42,16.32,16.32,0,0,1,1.68.89c.05,0,.09,0,.1-.1-1.06-1-1-3.9.23-7,1-2.64,2.65-4.68,4-5.2a14.41,14.41,0,0,0-1.19,1.74c-1.12,1.86-1.64,3.63-1.23,4.07,0,0,.2.17.2.17s1.38-1,1.74-1.12a8.39,8.39,0,0,1,2-.76v2.11a4.29,4.29,0,0,1-.89.26c-.49.13-1,.23-1.48.36s-.62.17-.93.29h0c-1.14.11-1.94,1.66-1.77,3.46s1.23,3.18,2.37,3.08c0,0,2.23-.18,2.7-.18v1.95c-.56,0-5.18-.1-5.18-.1m4.78,2.14c-1.56-.06-2.27-.13-2.3-.13l.08-.89s.72.07,2.22.13ZM21.24,16a7.33,7.33,0,0,1,2.14.63l.13,0a.76.76,0,0,1,.33-.23,11.05,11.05,0,0,1,1.45-.13,12.27,12.27,0,0,1,1.61.2v2.31l-1.71.55c-1.2.31-1.81,2-1.37,3.75s1.79,2.94,3,2.64l.11,0v1.91h-7V25.62c.07,0,3,.53,3.49.69a12.84,12.84,0,0,1,1.51.69l.08-.13a5.65,5.65,0,0,1-3-4c-.69-2.74.17-5.25,2-5.72l.15-.07a1,1,0,0,1-.05-.21l-.82.21s-2.91,1-3.43,1.07l0-2A6.76,6.76,0,0,1,21.24,16m7.48,1a10.62,10.62,0,0,1,1.32.52.65.65,0,0,0,0,.08c-.21.09-2.39.89-2.49.93l0-2a9.93,9.93,0,0,1,1.19.43m3.9,9.91v.44c-1.77.06-4.52.15-5,.19V25.62c.07,0,2,.27,2.54.41a13.62,13.62,0,0,1,2.48.88m-2.43-8.74c.18.54.46.9.79.92,0,0,1.59,0,1.62,0v3.17l-.06.06a2.56,2.56,0,0,0-.5,2.08,3.42,3.42,0,0,0,.56,1.86v.46c-.07-.06-2.31-1.41-2.58-1.64a4.21,4.21,0,0,1-1.12-1.92,11.25,11.25,0,0,1-.1-2,5.27,5.27,0,0,1,.4-1.52,5,5,0,0,1,1-1.4M38.27,27l-5,.28v-.86a24.11,24.11,0,0,0,5.42-.17,4.62,4.62,0,0,1-2.49-2.69,5.5,5.5,0,0,1-.49-4c-.06.05-2,1.53-2.51,2V19.07a14.44,14.44,0,0,1,2.62.26,9.64,9.64,0,0,1-2-2.51c-.66-1.65-.49-3.31.36-4l-1,.27v-2a2.88,2.88,0,0,0-.59,0l0,2.15-2.11.56,0,.26a.53.53,0,0,0,.06.27h0A11,11,0,0,0,30,16.66a5.37,5.37,0,0,1-1.81-1.55s-.26-.43-.3-.46a4.29,4.29,0,0,1-.3-2,6.62,6.62,0,0,1,1.94-2.81c.19-.13.69-.38.74-.41l0-.32L27.5,10s0-2.31,0-2.35h-.56v2.54l-3.13,1a8,8,0,0,0-1,2.5A4.23,4.23,0,0,0,23,15.88a7.22,7.22,0,0,1-1.92-1.39,4.11,4.11,0,0,1-.51-1.26A2.9,2.9,0,0,1,22,10.08,8.32,8.32,0,0,1,23.4,9.6c0-.13,0-.23,0-.31s-3.52,1.14-3.55,1.17V7.7h-.56s0,2.89,0,2.89c-.26.19-1.81.77-2.07.91,0,.11-.07.26,0,.35s.27,0,.24,0A16.67,16.67,0,0,1,16,13.32S4.32,21.59,4.32,21.59h-.1s-.07-.06-.1-.06a3.94,3.94,0,0,0-.37.18l8.68,5.74-2.25-.32-.14.17c.07.07,4.24,2.73,4.34,2.76a.59.59,0,0,1,.33.3c.16.3,1.15,2.31,1.25,2.48A3.48,3.48,0,0,0,17.13,34c.13,0,1.38.23,1.48.23.72,0,7.41,0,13.4,0,.43,0,2.93-.11,2.95-.11a2.49,2.49,0,0,0,1-.4,1.55,1.55,0,0,0,.5-1.14,1.65,1.65,0,0,0-.67-1.2l.19-.73A7,7,0,0,1,37,30.25c.2-.3,1.35-3,1.39-3a.22.22,0,0,0-.17-.2"/></g></g></g></svg>