<svg xmlns="http://www.w3.org/2000/svg" viewBox="0 0 44.37 44.36"><defs><style>.cls-1{fill:#385988;}.cls-2{fill:#fff;}</style></defs><title>Artboard 16</title><g id="Layer_16" data-name="Layer 16"><path class="cls-1" d="M44.36,22.18A22.18,22.18,0,1,1,22.18,0,22.18,22.18,0,0,1,44.36,22.18"/><g id="g788"><g id="g790"><path id="path792" class="cls-2" d="M38,23.67s-.3.15-.44.21a11.81,11.81,0,0,0-.8-8.9,10.61,10.61,0,0,0-5-4.25c-1.65-.69-2.92-3.63-6.48-4.1A7.56,7.56,0,0,1,27,10.24c.21,1.14-1.07,2.13-1.71,2.49a3.3,3.3,0,0,0-1.65,2.78c2.4-.54,4.94-2.69,6.66-2.19,2.2.64,2.88,3.59,2.73,4.37s-.15,3.43-7.95,4.6c.16-.2.32-.4.5-.6a23.9,23.9,0,0,1-3.24-2.92,22.55,22.55,0,0,0-5.13,4.17c-.18,0-2.72-.13-4.35,0A21.87,21.87,0,0,0,5.71,24.8a5.05,5.05,0,0,1,3.61,2.55,4.93,4.93,0,0,1-4.19-.54,4.88,4.88,0,0,0,4.05,2.67c.25.11,1.42.55,2.24.77a5.1,5.1,0,0,0,3,3.44,5.59,5.59,0,0,0-.29-2.25,21.61,21.61,0,0,0,10.92,1.33,5,5,0,0,0,3.54,1.49,5.1,5.1,0,0,0-1.2-1.94c6.23-1.67,8.24-4.41,9-5.48a5.23,5.23,0,0,0,2.82-1.13,5.11,5.11,0,0,0-1.23-2m-26.48,2.4a.8.8,0,1,1,.79-.8.79.79,0,0,1-.79.8"/></g></g></g></svg>