<svg xmlns="http://www.w3.org/2000/svg" viewBox="0 0 44.37 44.36"><defs><style>.cls-1{fill:#385988;}.cls-2{fill:#fff;}</style></defs><title>Artboard 14</title><g id="Layer_14" data-name="Layer 14"><path class="cls-1" d="M44.36,22.18A22.18,22.18,0,1,1,22.18,0,22.18,22.18,0,0,1,44.36,22.18"/><path class="cls-2" d="M28.41,15.91a.72.72,0,0,0-.31-.32L28,15.51h0l-.29-.14-.15-.07-.11-.06-.3-.17L27,15a.67.67,0,0,0-.5,0h0a.54.54,0,0,0-.15.1c-.22.21-.08.7,0,.95v0c.07.15-1.78,3.87-1.84,4S19,30.24,19,30.24s-.62.2-1,.38-.54.13-2.25,4.11c0,.08-.22.51-.27.64l-.43,1.05c-1,2.07-.39,2.68-.15,2.83h0l0,0h0l.34.17s1,.71,2.27-1.78l.58-1c.07-.12.31-.52.35-.6,2.16-3.77,2-3.87,1.93-4.27s-.32-.91-.29-1L22.6,26c1.36-2.6,2.81-5.37,2.84-5.45s2-3.79,2.19-3.82h0c.25-.07.73-.25.78-.54a.52.52,0,0,0,0-.24v0h0"/><path class="cls-2" d="M12.87,16.8a8.82,8.82,0,0,1-1.33-.63,12.54,12.54,0,0,1-1.9-1.4c-.35-.31-.95-.9-1.86-1.87-.64-.62-1.06-1.09-1.34-1.33a1,1,0,0,0-.35-.08.74.74,0,0,0-.28,0c-.1.07-.9.64-.9.68a2,2,0,0,1,1,.34c.35.3.38.73.59,1.12l.95,1.88A18.29,18.29,0,0,0,9,18c.07,0,.6-.43,2,.21l.47.17a9.07,9.07,0,0,0-1.09,1.22l2.28,1.24s.75-.81,1.26-1.44c.37.16.62.27.62.28a58.55,58.55,0,0,0,8.29,2.17l1-2,.18-.37-2.22-.36a40.54,40.54,0,0,1-8.9-2.33"/><path class="cls-2" d="M39.09,20.73H39c-7.7-.19-12.54-.82-12.54-.82a18.14,18.14,0,0,0-1.24,2.19c2.56.35,5.07.52,7.2.62-.36.88-.78,2.19-.78,2.19A15,15,0,0,0,35,24.79s.32-1.09.46-1.94a23,23,0,0,0,2.81-.08s.8-2,.81-2"/><path class="cls-2" d="M17.79,23.39h0s-7.3-2.44-9.11-4.59a16.41,16.41,0,0,1-2.67-5c-.43-1.48-1.45-1.27-1.45-1.27-.28.1-.47.5-.47.5a2.79,2.79,0,0,0,.31.64c.42.66.81,1.25,1.09,1.71A26.47,26.47,0,0,1,6.92,18c.28.47.84,1.48,1.62,3.12.35.78,1.35,2.6,1.35,2.6.56.35,1.62.93,3.16,1.72.6.31,2.9,1.27,3.1,1.34a15.43,15.43,0,0,0,3.36,1.16l1.83-3.45c-1-.26-3.06-1-3.56-1.09"/><path class="cls-2" d="M42.07,26.64c0-.4,0-1,0-1.82,0-1.17,0-2.07,0-2.73-.07-.9-.3-3.42-.35-3.7s-1,.15-1.19.27-2.28,5.58-2.32,5.74a.72.72,0,0,1-.37.23,20.06,20.06,0,0,1-2.61.71c-.53.08-1.05.16-1.54.19H30.74a56.54,56.54,0,0,1-6.88-.62c-.08,0-1.84,3.59-1.84,3.59,1.1.21,1.91.25,3.47.48,0,0,9.81.61,15.69-1.36h0a1.87,1.87,0,0,0,.88-1"/></g></svg>