<svg xmlns="http://www.w3.org/2000/svg" viewBox="0 0 450 370"><defs><style>.cls-1,.cls-2{fill:none;stroke-miterlimit:10;}.cls-1{stroke:#8c8c8c;stroke-width:5.92px;}.cls-2{stroke:#ccc;}.cls-3{fill:#fff;}.cls-4{fill:#385988;}</style></defs><title>Artboard 1</title><g id="Line"><path class="cls-1" d="M53,26l342.26,0a48.3,48.3,0,0,1,48.31,48.07c0,26.54-21.78,48-48.31,48l-342.18-.31C25.93,121.76,4,143,4,169.43s21.93,48.24,49.08,48.24l341.68.36a48,48,0,0,1,0,96.05L53,314"/><path class="cls-2" d="M53,26l342.26,0a48.3,48.3,0,0,1,48.31,48.07c0,26.54-21.78,48-48.31,48l-342.18-.31C25.93,121.76,4,143,4,169.43s21.93,48.24,49.08,48.24l341.68.36a48,48,0,0,1,0,96.05L53,314"/></g><g data-stop="uw"><path class="cls-3" d="M27.65,55.46h1v5.09c0,1.44.72,2.1,1.9,2.1s1.91-.67,1.91-2.07V55.46h1v5.19a2.59,2.59,0,0,1-2.91,2.87,2.59,2.59,0,0,1-2.92-2.89Z"/><path class="cls-3" d="M35,55.46h1.17C37.59,57.85,38.86,60,40,62c-.06-2.23,0-4.37,0-6.55h1v7.9H39.73C38.45,61.15,37,58.69,36,56.8c0,2.24,0,4.37,0,6.55H35Z"/><path class="cls-3" d="M42.57,55.46h1v7.9h-1Z"/><path class="cls-3" d="M44.67,55.46h1.07c.76,2.33,1.6,4.73,2.21,6.77.61-2.06,1.44-4.44,2.2-6.77h1.05l-2.8,7.9h-1Z"/><path class="cls-3" d="M52.21,55.46h4.7v.78H53.22v2.59h2.87v.78H53.22v3h3.85v.78H52.21Z"/><path class="cls-3" d="M58.31,55.46h2.57c1.63,0,2.8.67,2.8,2.24a2,2,0,0,1-2.06,2,1.56,1.56,0,0,1,1,.85l1.57,2.77H63L61.74,61a1.5,1.5,0,0,0-1.44-1h-1v3.32h-1Zm2.6,3.77c1,0,1.7-.46,1.7-1.51s-.67-1.48-1.72-1.48H59.32v3Z"/><path class="cls-3" d="M65.42,61.53a2.71,2.71,0,0,0,2.34,1.15c1,0,1.79-.56,1.79-1.47s-.91-1.17-2.1-1.51c-1.35-.38-2.35-.93-2.35-2.23s1.11-2.19,2.67-2.19a3.59,3.59,0,0,1,2.7,1.08l-.68.64a2.72,2.72,0,0,0-2-.88c-1,0-1.62.41-1.62,1.24s.78,1.16,1.88,1.47c1.66.45,2.56,1,2.56,2.27,0,1.53-1.27,2.42-2.84,2.42a3.43,3.43,0,0,1-3-1.32Z"/><path class="cls-3" d="M71.9,55.46h1v7.9h-1Z"/><path class="cls-3" d="M76.38,56.24H74v-.78h5.67v.78H77.38v7.11h-1Z"/><path class="cls-3" d="M83,59.79l-2.67-4.33h1.15l2,3.55,2.09-3.55h1.14L84,59.79v3.57H83Z"/><path class="cls-3" d="M14.17,72.81c0-2.53,1.47-4.09,3.6-4.09s3.62,1.57,3.62,4.09-1.52,4.14-3.62,4.14S14.17,75.32,14.17,72.81Zm6.14,0c0-1.88-.94-3.22-2.56-3.22s-2.51,1.34-2.51,3.22,1,3.27,2.53,3.27S20.31,74.75,20.31,72.81Z"/><path class="cls-3" d="M22.64,68.88h4.74v.78H23.65v2.75h2.87v.77H23.65v3.59h-1Z"/><path class="cls-3" d="M30.48,68.88h1.07c.51,2.14,1.16,4.64,1.61,6.57.43-1.81,1.16-4.44,1.77-6.57h.86c.65,2.36,1.38,4.73,1.83,6.55.39-1.92,1-4.08,1.55-6.55h1.06l-2.16,7.9h-1c-.65-2.29-1.33-4.48-1.81-6.38-.45,1.91-1.14,4.32-1.72,6.38h-1Z"/><path class="cls-3" d="M43,68.88h.93l2.79,7.9H45.65l-.7-2.12h-3l-.7,2.13h-1Zm1.69,5c-.41-1.29-.83-2.51-1.24-3.87-.39,1.33-.84,2.58-1.26,3.87Z"/><path class="cls-3" d="M47.92,75a2.71,2.71,0,0,0,2.34,1.15c1,0,1.79-.56,1.79-1.47s-.91-1.17-2.1-1.51c-1.35-.38-2.35-.93-2.35-2.23s1.11-2.19,2.67-2.19A3.59,3.59,0,0,1,53,69.8l-.68.64a2.72,2.72,0,0,0-2-.88c-1,0-1.62.41-1.62,1.24s.78,1.16,1.88,1.47c1.66.45,2.56,1,2.56,2.27,0,1.53-1.27,2.42-2.84,2.42a3.43,3.43,0,0,1-3-1.32Z"/><path class="cls-3" d="M54.31,68.88h1v3.41h3.86V68.88h1v7.9h-1V73.13H55.31v3.65h-1Z"/><path class="cls-3" d="M61.84,68.88h1v7.9h-1Z"/><path class="cls-3" d="M64.52,68.88h1.17c1.38,2.39,2.64,4.52,3.77,6.55-.06-2.23,0-4.37,0-6.55h1v7.9H69.2c-1.27-2.2-2.72-4.66-3.77-6.55,0,2.24,0,4.37,0,6.55h-1Z"/><path class="cls-3" d="M77.67,75.4a2.58,2.58,0,0,1-2.45,1.54c-2.34,0-3.58-1.75-3.58-4.15s1.27-4.08,3.58-4.08a3.42,3.42,0,0,1,3.11,1.66l-1,.47a2.24,2.24,0,0,0-2.15-1.25c-1.68,0-2.52,1.42-2.52,3.21s.87,3.28,2.55,3.28a2.22,2.22,0,0,0,2.24-2.17v-.44H75.56v-.77h2.89v4.08h-.63Z"/><path class="cls-3" d="M81.46,69.66H79.12v-.78h5.67v.78H82.47v7.11h-1Z"/><path class="cls-3" d="M85,72.81c0-2.53,1.47-4.09,3.6-4.09s3.62,1.57,3.62,4.09-1.52,4.14-3.62,4.14S85,75.32,85,72.81Zm6.14,0c0-1.88-.94-3.22-2.56-3.22s-2.51,1.34-2.51,3.22,1,3.27,2.53,3.27S91.17,74.75,91.17,72.81Z"/><path class="cls-3" d="M93.51,68.88h1.17c1.38,2.39,2.64,4.52,3.77,6.55-.06-2.23,0-4.37,0-6.55h1v7.9H98.19c-1.27-2.2-2.72-4.66-3.77-6.55,0,2.24,0,4.37,0,6.55h-1Z"/><path d="M27.65,55.46h1v5.09c0,1.44.72,2.1,1.9,2.1s1.91-.67,1.91-2.07V55.46h1v5.19a2.59,2.59,0,0,1-2.91,2.87,2.59,2.59,0,0,1-2.92-2.89Z"/><path d="M35,55.46h1.17C37.59,57.85,38.86,60,40,62c-.06-2.23,0-4.37,0-6.55h1v7.9H39.73C38.45,61.15,37,58.69,36,56.8c0,2.24,0,4.37,0,6.55H35Z"/><path d="M42.57,55.46h1v7.9h-1Z"/><path d="M44.67,55.46h1.07c.76,2.33,1.6,4.73,2.21,6.77.61-2.06,1.44-4.44,2.2-6.77h1.05l-2.8,7.9h-1Z"/><path d="M52.21,55.46h4.7v.78H53.22v2.59h2.87v.78H53.22v3h3.85v.78H52.21Z"/><path d="M58.31,55.46h2.57c1.63,0,2.8.67,2.8,2.24a2,2,0,0,1-2.06,2,1.56,1.56,0,0,1,1,.85l1.57,2.77H63L61.74,61a1.5,1.5,0,0,0-1.44-1h-1v3.32h-1Zm2.6,3.77c1,0,1.7-.46,1.7-1.51s-.67-1.48-1.72-1.48H59.32v3Z"/><path d="M65.42,61.53a2.71,2.71,0,0,0,2.34,1.15c1,0,1.79-.56,1.79-1.47s-.91-1.17-2.1-1.51c-1.35-.38-2.35-.93-2.35-2.23s1.11-2.19,2.67-2.19a3.59,3.59,0,0,1,2.7,1.08l-.68.64a2.72,2.72,0,0,0-2-.88c-1,0-1.62.41-1.62,1.24s.78,1.16,1.88,1.47c1.66.45,2.56,1,2.56,2.27,0,1.53-1.27,2.42-2.84,2.42a3.43,3.43,0,0,1-3-1.32Z"/><path d="M71.9,55.46h1v7.9h-1Z"/><path d="M76.38,56.24H74v-.78h5.67v.78H77.38v7.11h-1Z"/><path d="M83,59.79l-2.67-4.33h1.15l2,3.55,2.09-3.55h1.14L84,59.79v3.57H83Z"/><path d="M14.17,72.81c0-2.53,1.47-4.09,3.6-4.09s3.62,1.57,3.62,4.09-1.52,4.14-3.62,4.14S14.17,75.32,14.17,72.81Zm6.14,0c0-1.88-.94-3.22-2.56-3.22s-2.51,1.34-2.51,3.22,1,3.27,2.53,3.27S20.31,74.75,20.31,72.81Z"/><path d="M22.64,68.88h4.74v.78H23.65v2.75h2.87v.77H23.65v3.59h-1Z"/><path d="M30.48,68.88h1.07c.51,2.14,1.16,4.64,1.61,6.57.43-1.81,1.16-4.44,1.77-6.57h.86c.65,2.36,1.38,4.73,1.83,6.55.39-1.92,1-4.08,1.55-6.55h1.06l-2.16,7.9h-1c-.65-2.29-1.33-4.48-1.81-6.38-.45,1.91-1.14,4.32-1.72,6.38h-1Z"/><path d="M43,68.88h.93l2.79,7.9H45.65l-.7-2.12h-3l-.7,2.13h-1Zm1.69,5c-.41-1.29-.83-2.51-1.24-3.87-.39,1.33-.84,2.58-1.26,3.87Z"/><path d="M47.92,75a2.71,2.71,0,0,0,2.34,1.15c1,0,1.79-.56,1.79-1.47s-.91-1.17-2.1-1.51c-1.35-.38-2.35-.93-2.35-2.23s1.11-2.19,2.67-2.19A3.59,3.59,0,0,1,53,69.8l-.68.64a2.72,2.72,0,0,0-2-.88c-1,0-1.62.41-1.62,1.24s.78,1.16,1.88,1.47c1.66.45,2.56,1,2.56,2.27,0,1.53-1.27,2.42-2.84,2.42a3.43,3.43,0,0,1-3-1.32Z"/><path d="M54.31,68.88h1v3.41h3.86V68.88h1v7.9h-1V73.13H55.31v3.65h-1Z"/><path d="M61.84,68.88h1v7.9h-1Z"/><path d="M64.52,68.88h1.17c1.38,2.39,2.64,4.52,3.77,6.55-.06-2.23,0-4.37,0-6.55h1v7.9H69.2c-1.27-2.2-2.72-4.66-3.77-6.55,0,2.24,0,4.37,0,6.55h-1Z"/><path d="M77.67,75.4a2.58,2.58,0,0,1-2.45,1.54c-2.34,0-3.58-1.75-3.58-4.15s1.27-4.08,3.58-4.08a3.42,3.42,0,0,1,3.11,1.66l-1,.47a2.24,2.24,0,0,0-2.15-1.25c-1.68,0-2.52,1.42-2.52,3.21s.87,3.28,2.55,3.28a2.22,2.22,0,0,0,2.24-2.17v-.44H75.56v-.77h2.89v4.08h-.63Z"/><path d="M81.46,69.66H79.12v-.78h5.67v.78H82.47v7.11h-1Z"/><path d="M85,72.81c0-2.53,1.47-4.09,3.6-4.09s3.62,1.57,3.62,4.09-1.52,4.14-3.62,4.14S85,75.32,85,72.81Zm6.14,0c0-1.88-.94-3.22-2.56-3.22s-2.51,1.34-2.51,3.22,1,3.27,2.53,3.27S91.17,74.75,91.17,72.81Z"/><path d="M93.51,68.88h1.17c1.38,2.39,2.64,4.52,3.77,6.55-.06-2.23,0-4.37,0-6.55h1v7.9H98.19c-1.27-2.2-2.72-4.66-3.77-6.55,0,2.24,0,4.37,0,6.55h-1Z"/><path class="cls-4" d="M79.54,26.18A22.18,22.18,0,1,1,57.36,4,22.18,22.18,0,0,1,79.54,26.18"/><path class="cls-3" d="M67,42.49a1.43,1.43,0,0,1-.48,0s-1.11-.91-1.21-3.61v-5.7h.58v5.7A6.42,6.42,0,0,0,67,42.49m-1.22-.37-.23-.2C64.21,40.62,64.21,38,64.21,38V33.18h.69v5.7a6.89,6.89,0,0,0,.85,3.26m-1.54-9.68v-.79a1.31,1.31,0,0,1,2.62,0v.79Zm3.93,9.48a2.28,2.28,0,0,1-.76.47,5.9,5.9,0,0,1-1.16-3.53v-5.7h.62V38s0,2.62,1.31,3.92m-.57-8.72V31.65a2,2,0,0,0-1.58-2v-2.8l2.25-1.12a13.22,13.22,0,0,1,1.56,5.66,21.68,21.68,0,0,1-2.22,1.81M65,29.68a2,2,0,0,0-1.52,2v3.81a16.38,16.38,0,0,1-6.12,1.22A18.54,18.54,0,0,1,44.92,31.4a13.25,13.25,0,0,1,1.56-5.66l10.88,5.44L65,27.35ZM62.45,19s-1.73,6.56-1.75,6.64H58.39l-1-4.18-1.1,4.18H53.93L52.26,19h-1V17.58h4.31V19H54.54l1.06,4.27s1.52-5.65,1.54-5.73h1.49l1.43,5.73L61.2,19h-1V17.58H63.4V19Zm-5.09-6.55L39.72,21.26l17.64,8.82L75,21.26Z"/></g><g data-stop="capitol"><path d="M155.59,61.69a3.23,3.23,0,0,1-3.13,1.83c-2.36,0-3.6-1.81-3.6-4.15s1.27-4.08,3.6-4.08a3.34,3.34,0,0,1,3.06,1.64l-1,.48a2.31,2.31,0,0,0-2.11-1.25c-1.68,0-2.54,1.42-2.54,3.21s.89,3.28,2.54,3.28a2.2,2.2,0,0,0,2.18-1.44Z"/><path d="M159,55.46h.93l2.79,7.9h-1.05l-.71-2.12h-3l-.71,2.13h-1Zm1.69,5c-.41-1.29-.83-2.51-1.24-3.87-.39,1.33-.84,2.58-1.26,3.87Z"/><path d="M163.75,55.46h2.65c1.59,0,2.74.69,2.74,2.29,0,1.8-1.19,2.45-2.73,2.45h-1.66v3.15h-1Zm2.49,3.94c1.15,0,1.83-.46,1.83-1.64s-.78-1.51-1.8-1.51h-1.52V59.4Z"/><path d="M170.41,55.46h1v7.9h-1Z"/><path d="M174.89,56.24h-2.34v-.78h5.67v.78h-2.33v7.11h-1Z"/><path d="M178.45,59.38c0-2.53,1.47-4.09,3.6-4.09s3.62,1.57,3.62,4.09-1.52,4.14-3.62,4.14S178.45,61.9,178.45,59.38Zm6.14,0c0-1.88-.94-3.22-2.56-3.22s-2.5,1.34-2.5,3.22,1,3.27,2.53,3.27S184.59,61.33,184.59,59.38Z"/><path d="M186.93,55.46h1v7.11h3.77v.78h-4.78Z"/><path d="M160,68.88h1v3.41h3.86V68.88h1v7.9h-1V73.13H161v3.65h-1Z"/><path d="M167.51,68.88h1v7.9h-1Z"/><path d="M170.18,68.88h1V76H175v.78h-4.78Z"/><path d="M176.12,68.88h1V76h3.77v.78h-4.78Z"/><path d="M155.59,61.69a3.23,3.23,0,0,1-3.13,1.83c-2.36,0-3.6-1.81-3.6-4.15s1.27-4.08,3.6-4.08a3.34,3.34,0,0,1,3.06,1.64l-1,.48a2.31,2.31,0,0,0-2.11-1.25c-1.68,0-2.54,1.42-2.54,3.21s.89,3.28,2.54,3.28a2.2,2.2,0,0,0,2.18-1.44Z"/><path d="M159,55.46h.93l2.79,7.9h-1.05l-.71-2.12h-3l-.71,2.13h-1Zm1.69,5c-.41-1.29-.83-2.51-1.24-3.87-.39,1.33-.84,2.58-1.26,3.87Z"/><path d="M163.75,55.46h2.65c1.59,0,2.74.69,2.74,2.29,0,1.8-1.19,2.45-2.73,2.45h-1.66v3.15h-1Zm2.49,3.94c1.15,0,1.83-.46,1.83-1.64s-.78-1.51-1.8-1.51h-1.52V59.4Z"/><path d="M170.41,55.46h1v7.9h-1Z"/><path d="M174.89,56.24h-2.34v-.78h5.67v.78h-2.33v7.11h-1Z"/><path d="M178.45,59.38c0-2.53,1.47-4.09,3.6-4.09s3.62,1.57,3.62,4.09-1.52,4.14-3.62,4.14S178.45,61.9,178.45,59.38Zm6.14,0c0-1.88-.94-3.22-2.56-3.22s-2.5,1.34-2.5,3.22,1,3.27,2.53,3.27S184.59,61.33,184.59,59.38Z"/><path d="M186.93,55.46h1v7.11h3.77v.78h-4.78Z"/><path d="M160,68.88h1v3.41h3.86V68.88h1v7.9h-1V73.13H161v3.65h-1Z"/><path d="M167.51,68.88h1v7.9h-1Z"/><path d="M170.18,68.88h1V76H175v.78h-4.78Z"/><path d="M176.12,68.88h1V76h3.77v.78h-4.78Z"/><path class="cls-4" d="M192.19,26.18A22.18,22.18,0,1,1,170,4a22.18,22.18,0,0,1,22.18,22.18"/><path class="cls-3" d="M168.63,19.6l.29-.5c7.38,1.3,9.17,3.93,8.9,4.46l-.28.51c.27-.48-1.4-3.15-8.91-4.46M176.42,26l-.28.5c.27-.48-1.4-3.16-8.94-4.47l.29-.51c7.42,1.29,9.21,3.94,8.93,4.47M175,28.54l-.28.5c.27-.48-1.41-3.17-9-4.48l.29-.5c7.45,1.29,9.25,3.94,9,4.47M173.62,31l-.28.5c.27-.48-1.41-3.17-9-4.48l.29-.5c7.48,1.29,9.29,3.95,9,4.48M184,26.65l1.17-2a24.77,24.77,0,0,1-6.72-2.12l.55-1c.17-.57-1.6-3.13-8.89-4.42l.29-.5c7.21,1.27,9.07,3.81,8.88,4.42l1.12-2c.14-.26-.14-.71-.84-1.37-2.09-2-6.93-2.89-8-3.08l1-1.68a2,2,0,1,0-1.83-1.11L154.89,39.13h2.46l5.8-10A30.2,30.2,0,0,1,169,30.76l-.36.64c.13-.23.53-.3,1-.3a8.31,8.31,0,0,1,1,.57c-1.06-.09-2.08-.16-2.3.24l-1.14,2c-.17.3.13.84,1.2,1.84,1.72,1.6,4.26,2.52,8.33,3.35l1.17-2c-2.28-.47-6.21-1.32-8.38-3.39l1,.09c2.06,1.54,5.29,2.32,7.67,2.8l1.15-2a24.27,24.27,0,0,1-6.57-2.1c.09-.17.19-.34.28-.5a26.81,26.81,0,0,0,6.57,2.1l1.14-2a24.52,24.52,0,0,1-6.6-2.1l.29-.5a24.48,24.48,0,0,0,6.61,2.1l1.14-2a24.46,24.46,0,0,1-6.64-2.11l.28-.5a27.08,27.08,0,0,0,6.65,2.11l1.14-2A24.64,24.64,0,0,1,177,25l.29-.5A24.7,24.7,0,0,0,184,26.65"/></g><g data-stop="westlake"><path d="M257,55.46h1.07c.51,2.14,1.16,4.64,1.61,6.57.43-1.81,1.16-4.44,1.77-6.57h.86c.65,2.36,1.38,4.73,1.83,6.55.39-1.92,1-4.08,1.55-6.55h1.06l-2.16,7.9h-1c-.65-2.29-1.33-4.48-1.81-6.38-.45,1.91-1.14,4.32-1.72,6.38h-1Z"/><path d="M267.85,55.46h4.7v.78h-3.69v2.59h2.88v.78h-2.87v3h3.85v.78h-4.85Z"/><path d="M274.24,61.53a2.71,2.71,0,0,0,2.34,1.15c1,0,1.79-.56,1.79-1.47s-.91-1.17-2.1-1.51c-1.35-.38-2.35-.93-2.35-2.23s1.11-2.19,2.67-2.19a3.59,3.59,0,0,1,2.7,1.08l-.68.64a2.72,2.72,0,0,0-2-.88c-1,0-1.62.41-1.62,1.24s.78,1.16,1.88,1.47c1.66.45,2.56,1,2.56,2.27,0,1.53-1.28,2.42-2.84,2.42a3.43,3.43,0,0,1-3-1.32Z"/><path d="M282.26,56.24h-2.34v-.78h5.67v.78h-2.33v7.11h-1Z"/><path d="M286.62,55.46h1v7.11h3.77v.78h-4.78Z"/><path d="M294.86,55.46h.93l2.79,7.9h-1.05l-.71-2.12h-3l-.71,2.13h-1Zm1.69,5c-.41-1.29-.83-2.51-1.24-3.87-.39,1.33-.84,2.58-1.26,3.87Z"/><path d="M299.64,55.46h1v4.09l3.58-4.09h1.2l-2.91,3.27,3.27,4.63h-1.19l-2.74-3.88-1.21,1.35v2.53h-1Z"/><path d="M306.79,55.46h4.7v.78H307.8v2.59h2.88v.78H307.8v3h3.85v.78h-4.85Z"/><path d="M257,55.46h1.07c.51,2.14,1.16,4.64,1.61,6.57.43-1.81,1.16-4.44,1.77-6.57h.86c.65,2.36,1.38,4.73,1.83,6.55.39-1.92,1-4.08,1.55-6.55h1.06l-2.16,7.9h-1c-.65-2.29-1.33-4.48-1.81-6.38-.45,1.91-1.14,4.32-1.72,6.38h-1Z"/><path d="M267.85,55.46h4.7v.78h-3.69v2.59h2.88v.78h-2.87v3h3.85v.78h-4.85Z"/><path d="M274.24,61.53a2.71,2.71,0,0,0,2.34,1.15c1,0,1.79-.56,1.79-1.47s-.91-1.17-2.1-1.51c-1.35-.38-2.35-.93-2.35-2.23s1.11-2.19,2.67-2.19a3.59,3.59,0,0,1,2.7,1.08l-.68.64a2.72,2.72,0,0,0-2-.88c-1,0-1.62.41-1.62,1.24s.78,1.16,1.88,1.47c1.66.45,2.56,1,2.56,2.27,0,1.53-1.28,2.42-2.84,2.42a3.43,3.43,0,0,1-3-1.32Z"/><path d="M282.26,56.24h-2.34v-.78h5.67v.78h-2.33v7.11h-1Z"/><path d="M286.62,55.46h1v7.11h3.77v.78h-4.78Z"/><path d="M294.86,55.46h.93l2.79,7.9h-1.05l-.71-2.12h-3l-.71,2.13h-1Zm1.69,5c-.41-1.29-.83-2.51-1.24-3.87-.39,1.33-.84,2.58-1.26,3.87Z"/><path d="M299.64,55.46h1v4.09l3.58-4.09h1.2l-2.91,3.27,3.27,4.63h-1.19l-2.74-3.88-1.21,1.35v2.53h-1Z"/><path d="M306.79,55.46h4.7v.78H307.8v2.59h2.88v.78H307.8v3h3.85v.78h-4.85Z"/><path class="cls-4" d="M305.84,26.18A22.18,22.18,0,1,1,283.66,4a22.18,22.18,0,0,1,22.18,22.18"/><path class="cls-3" d="M283.28,20.17a19.47,19.47,0,0,0,2-4.78,3.5,3.5,0,0,0-1.47-1.88c.74-.81.54-1.56-.3-2.29a.77.77,0,0,0-.22-.15h0a1.8,1.8,0,0,0-.22.15c-.83.74-1,1.49-.3,2.29a3.52,3.52,0,0,0-1.47,1.88,19.69,19.69,0,0,0,2,4.78"/><path class="cls-3" d="M297.6,25.94a18.86,18.86,0,0,0-4.26-1.49c.42-.11,2.3-1.07,3-.95s1.84,2.59,2.1,3a6.66,6.66,0,0,0-.85-.52m-28.57,0a6.84,6.84,0,0,0-.85.52c.26-.36,1.36-2.83,2.1-3s2.59.83,3,.95A18.86,18.86,0,0,0,269,25.94M302,21.74a3.53,3.53,0,0,0-.72-.3c-.07,0-.36-.06-.39.1s0,.56,0,.56c-.85.54-1,1.42-.33,2.58.17,1-.54,1.53-.89,1.35-.81-.41-.82-1.51-1.49-2.51a2.58,2.58,0,0,0-2.05-1.4,6.21,6.21,0,0,0-1.06.22,2.2,2.2,0,0,0-.08-3.36,1.25,1.25,0,0,0-.88-.36,1.48,1.48,0,0,0-.55.15.56.56,0,0,0-.16.14,1.43,1.43,0,0,0-.24.68c.08.66.38,1,.85,1a.92.92,0,0,0,.85-1s0-.08,0-.11a1.52,1.52,0,0,1-.56,2.38c-1.36.67-2.72-1.4-3.91-1.51a1.89,1.89,0,0,0-1,.07c0-1.93-.32-3.36-2.33-3.62-1.1-.15-1.64.4-2.05,1.47a1.8,1.8,0,0,0-.09.84,1,1,0,0,0,1,1,1.06,1.06,0,0,0,1-1.13,1.24,1.24,0,0,0-.11-.52l0-.06-.05-.09v0a.87.87,0,0,0-.74-.44s0-.08.14-.15c1.3-1,4.25,2.27.45,4.18a1.2,1.2,0,0,0-1.8-.4,2.07,2.07,0,0,0-.29.26c-.32-.37-.78-.77-1-.77s-.74.4-1.06.77a1.93,1.93,0,0,0-.29-.26,1.2,1.2,0,0,0-1.8.4c-3.81-1.92-.86-5.21.45-4.18.09.08.17.15.14.15a.88.88,0,0,0-.74.44v0l-.05.09,0,.06a1.24,1.24,0,0,0-.11.52,1.06,1.06,0,0,0,1,1.13,1,1,0,0,0,1-1,1.74,1.74,0,0,0-.09-.84c-.41-1.06-1-1.61-2.05-1.47-2,.26-2.3,1.69-2.33,3.62a1.89,1.89,0,0,0-1-.07c-1.19.11-2.55,2.18-3.91,1.51a1.52,1.52,0,0,1-.56-2.38s0,.07,0,.11a.92.92,0,0,0,.85,1c.47,0,.77-.31.85-1a1.4,1.4,0,0,0-.24-.68.59.59,0,0,0-.15-.14,1.5,1.5,0,0,0-.56-.15,1.26,1.26,0,0,0-.89.36,2.2,2.2,0,0,0-.08,3.36,6.24,6.24,0,0,0-1.06-.22,2.58,2.58,0,0,0-2.05,1.4c-.67,1-.69,2.1-1.49,2.51-.44.22-1.43-.68-.59-2.15l-.12.06a1.49,1.49,0,0,0-.65-1.84s0-.4,0-.56-.31-.1-.39-.1a3.47,3.47,0,0,0-.72.3c-.06.06-.32.24-.24.36l.28.46a1.57,1.57,0,0,0,1,2.13,2.82,2.82,0,0,0,.4,1.83,1.31,1.31,0,0,0,1.47.37c-.22.15-1.16.64-1.15.95s.7,2.32.83,2.68c1.16,1.07,5.45,2.57,7.73,2.5,0-.22.09-.88.09-1-.29-.15-3.43-.73-4.58-1.25a10,10,0,0,1-1.38-.66c-2.25-1.09-.15-1.61.22-1.73s3-1,5.1-1.43c3.08-.59,9-1.07,9-1.07h0s5.93.48,9,1.07c2.05.44,4.73,1.31,5.1,1.43s2.48.64.23,1.73a9.9,9.9,0,0,1-1.38.66c-1.15.51-4.3,1.1-4.59,1.25,0,.15.1.81.1,1,2.28.07,6.57-1.42,7.73-2.5.13-.36.82-2.37.83-2.68s-.92-.8-1.15-.95a1.31,1.31,0,0,0,1.47-.37,2.77,2.77,0,0,0,.38-1.89,1.54,1.54,0,0,0,.88-2.07l.28-.46c.08-.13-.18-.31-.24-.36"/></g><g data-stop="university" data-name="University Street"><path d="M368.12,55.46h1v5.09c0,1.44.72,2.1,1.9,2.1s1.91-.67,1.91-2.07V55.46h1v5.19a2.91,2.91,0,0,1-5.83,0Z"/><path d="M375.52,55.46h1.17c1.38,2.39,2.64,4.52,3.77,6.55-.06-2.23,0-4.37,0-6.55h1v7.9H380.2c-1.27-2.2-2.72-4.66-3.77-6.55,0,2.24,0,4.37,0,6.55h-1Z"/><path d="M383,55.46h1v7.9h-1Z"/><path d="M385.15,55.46h1.07c.76,2.33,1.6,4.73,2.21,6.77.62-2.06,1.44-4.44,2.2-6.77h1.05l-2.8,7.9h-1Z"/><path d="M392.68,55.46h4.7v.78h-3.69v2.59h2.88v.78h-2.87v3h3.85v.78h-4.85Z"/><path d="M398.79,55.46h2.57c1.63,0,2.8.67,2.8,2.24a2,2,0,0,1-2.06,2,1.56,1.56,0,0,1,1,.85l1.57,2.77h-1.19L402.21,61a1.5,1.5,0,0,0-1.44-1h-1v3.32h-1Zm2.6,3.77c1,0,1.7-.46,1.7-1.51s-.67-1.48-1.72-1.48H399.8v3Z"/><path d="M405.89,61.53a2.71,2.71,0,0,0,2.34,1.15c1,0,1.79-.56,1.79-1.47s-.91-1.17-2.1-1.51c-1.35-.38-2.35-.93-2.35-2.23s1.11-2.19,2.67-2.19a3.59,3.59,0,0,1,2.7,1.08l-.68.64a2.72,2.72,0,0,0-2-.88c-1,0-1.62.41-1.62,1.24s.78,1.16,1.88,1.47c1.66.45,2.56,1,2.56,2.27,0,1.53-1.28,2.42-2.84,2.42a3.43,3.43,0,0,1-3-1.32Z"/><path d="M412.38,55.46h1v7.9h-1Z"/><path d="M416.85,56.24h-2.34v-.78h5.67v.78h-2.33v7.11h-1Z"/><path d="M423.46,59.79l-2.67-4.33h1.15L424,59l2.09-3.55h1.14l-2.74,4.33v3.57h-1Z"/><path d="M379.42,75a2.72,2.72,0,0,0,2.34,1.15c1,0,1.79-.56,1.79-1.47s-.91-1.17-2.1-1.51c-1.35-.38-2.35-.93-2.35-2.23s1.11-2.19,2.67-2.19a3.6,3.6,0,0,1,2.7,1.08l-.68.64a2.72,2.72,0,0,0-2-.88c-1,0-1.62.41-1.62,1.24s.78,1.16,1.88,1.47c1.66.45,2.56,1,2.56,2.27,0,1.53-1.27,2.42-2.84,2.42a3.43,3.43,0,0,1-3-1.32Z"/><path d="M387.44,69.66h-2.34v-.78h5.67v.78h-2.33v7.11h-1Z"/><path d="M391.81,68.88h2.57c1.63,0,2.8.67,2.8,2.24a2,2,0,0,1-2.06,2,1.56,1.56,0,0,1,1,.85l1.57,2.77h-1.19l-1.24-2.32a1.5,1.5,0,0,0-1.44-1h-1v3.32h-1Zm2.59,3.77c1,0,1.7-.46,1.7-1.51s-.67-1.48-1.72-1.48h-1.57v3Z"/><path d="M398.74,68.88h4.7v.78h-3.69v2.59h2.88V73h-2.87v3h3.85v.78h-4.85Z"/><path d="M404.85,68.88h4.7v.78h-3.69v2.59h2.88V73h-2.87v3h3.85v.78h-4.85Z"/><path d="M412.85,69.66h-2.34v-.78h5.67v.78h-2.33v7.11h-1Z"/><path d="M368.12,55.46h1v5.09c0,1.44.72,2.1,1.9,2.1s1.91-.67,1.91-2.07V55.46h1v5.19a2.91,2.91,0,0,1-5.83,0Z"/><path d="M375.52,55.46h1.17c1.38,2.39,2.64,4.52,3.77,6.55-.06-2.23,0-4.37,0-6.55h1v7.9H380.2c-1.27-2.2-2.72-4.66-3.77-6.55,0,2.24,0,4.37,0,6.55h-1Z"/><path d="M383,55.46h1v7.9h-1Z"/><path d="M385.15,55.46h1.07c.76,2.33,1.6,4.73,2.21,6.77.62-2.06,1.44-4.44,2.2-6.77h1.05l-2.8,7.9h-1Z"/><path d="M392.68,55.46h4.7v.78h-3.69v2.59h2.88v.78h-2.87v3h3.85v.78h-4.85Z"/><path d="M398.79,55.46h2.57c1.63,0,2.8.67,2.8,2.24a2,2,0,0,1-2.06,2,1.56,1.56,0,0,1,1,.85l1.57,2.77h-1.19L402.21,61a1.5,1.5,0,0,0-1.44-1h-1v3.32h-1Zm2.6,3.77c1,0,1.7-.46,1.7-1.51s-.67-1.48-1.72-1.48H399.8v3Z"/><path d="M405.89,61.53a2.71,2.71,0,0,0,2.34,1.15c1,0,1.79-.56,1.79-1.47s-.91-1.17-2.1-1.51c-1.35-.38-2.35-.93-2.35-2.23s1.11-2.19,2.67-2.19a3.59,3.59,0,0,1,2.7,1.08l-.68.64a2.72,2.72,0,0,0-2-.88c-1,0-1.62.41-1.62,1.24s.78,1.16,1.88,1.47c1.66.45,2.56,1,2.56,2.27,0,1.53-1.28,2.42-2.84,2.42a3.43,3.43,0,0,1-3-1.32Z"/><path d="M412.38,55.46h1v7.9h-1Z"/><path d="M416.85,56.24h-2.34v-.78h5.67v.78h-2.33v7.11h-1Z"/><path d="M423.46,59.79l-2.67-4.33h1.15L424,59l2.09-3.55h1.14l-2.74,4.33v3.57h-1Z"/><path d="M379.42,75a2.72,2.72,0,0,0,2.34,1.15c1,0,1.79-.56,1.79-1.47s-.91-1.17-2.1-1.51c-1.35-.38-2.35-.93-2.35-2.23s1.11-2.19,2.67-2.19a3.6,3.6,0,0,1,2.7,1.08l-.68.64a2.72,2.72,0,0,0-2-.88c-1,0-1.62.41-1.62,1.24s.78,1.16,1.88,1.47c1.66.45,2.56,1,2.56,2.27,0,1.53-1.27,2.42-2.84,2.42a3.43,3.43,0,0,1-3-1.32Z"/><path d="M387.44,69.66h-2.34v-.78h5.67v.78h-2.33v7.11h-1Z"/><path d="M391.81,68.88h2.57c1.63,0,2.8.67,2.8,2.24a2,2,0,0,1-2.06,2,1.56,1.56,0,0,1,1,.85l1.57,2.77h-1.19l-1.24-2.32a1.5,1.5,0,0,0-1.44-1h-1v3.32h-1Zm2.59,3.77c1,0,1.7-.46,1.7-1.51s-.67-1.48-1.72-1.48h-1.57v3Z"/><path d="M398.74,68.88h4.7v.78h-3.69v2.59h2.88V73h-2.87v3h3.85v.78h-4.85Z"/><path d="M404.85,68.88h4.7v.78h-3.69v2.59h2.88V73h-2.87v3h3.85v.78h-4.85Z"/><path d="M412.85,69.66h-2.34v-.78h5.67v.78h-2.33v7.11h-1Z"/><path class="cls-4" d="M418.12,26.18A22.18,22.18,0,1,1,395.94,4a22.18,22.18,0,0,1,22.18,22.18"/><g id="layer1"><g id="g496"><g id="g498"><path id="path500" class="cls-3" d="M398.77,21.17c.4,0,.6.13.62.44,0,.06-.06.41-.19,1a2.21,2.21,0,0,0,.6,1.38,4,4,0,0,1,.53.63c0,.25-.19.41-.63.47a1.5,1.5,0,0,1-1.48-.88c-.21-.7-.31-1.08-.31-1.08a3.9,3.9,0,0,1,.06-1c.15-.63.4-.94.78-1m5.26,1.1a3.55,3.55,0,0,0-1.41-2.36,3.34,3.34,0,0,0-2.67-.66,3.5,3.5,0,0,0-2.35,1.48,3.62,3.62,0,0,0,.78,5A3.57,3.57,0,0,0,404,22.27"/></g></g><g id="g502"><g id="g504"><path id="path506" class="cls-3" d="M410.16,21.33a.75.75,0,0,1-.44.32,2.53,2.53,0,0,0-.47-1.92.2.2,0,0,1,.13,0,.93.93,0,0,1,.56.22,1,1,0,0,1,.35.47.38.38,0,0,1,0,.19,1,1,0,0,1-.15.75m-.32.85h-.06s.06,0,.06,0Zm-1.6,2.46a1.27,1.27,0,0,0-.38-.13c-.15,0-.25.1-.31.29a.5.5,0,0,0-.1.28,4.12,4.12,0,0,0,.13.82c0,.51-.25.76-.79.76-.18,0-.34-.25-.4-.79a6.82,6.82,0,0,1-.06-.75,1.48,1.48,0,0,1,.28-.82,1.4,1.4,0,0,1,1.16-.51c.5,0,.75.16.75.51s-.09.35-.28.35m-5.49,11.81a1.63,1.63,0,0,1-1-.66c.09-.19.22-.41.35-.63,0,0,0,0,.06-.09a2,2,0,0,0,.09-.22,2,2,0,0,1,.22-.34.12.12,0,0,1,0-.1,1.24,1.24,0,0,0,.18.29,1.44,1.44,0,0,0,.72.38Zm-.79,2.3h0v0l-.25-.1a3.48,3.48,0,0,1-.63-.25H401a3,3,0,0,0-.38-.32.36.36,0,0,1-.06-.09.09.09,0,0,0-.06,0,.14.14,0,0,1,0-.09L401,37a1.31,1.31,0,0,1,.19-.32c0,.06.06.09.06.13a2.8,2.8,0,0,0,.41.28,1.43,1.43,0,0,0,.75.22h.09c-.22.47-.37.92-.57,1.39m-2.32,3.69a1,1,0,0,1-1-.76c-.13-.5-.19-.72-.19-.76,0-.84.28-1.25.85-1.25.28,0,.41.22.44.66l-.16.82c0,.38.31.57.91.57a.2.2,0,0,1,.22.21c0,.35-.38.51-1.1.51m4.55-16.91-.19.22a4.7,4.7,0,0,1-.69.72,10.08,10.08,0,0,0-.94.54,1.27,1.27,0,0,1-.31.13,3.76,3.76,0,0,1-.84.19,4.21,4.21,0,0,1-3.39-.79,4.53,4.53,0,0,1-1.82-3,4.43,4.43,0,0,1,.82-3.4,5,5,0,0,1,.79-.85,4.21,4.21,0,0,1,.53-.38,5,5,0,0,1,1.66-.6,3.6,3.6,0,0,1,1-.06,5,5,0,0,1,1.19.22,3.74,3.74,0,0,1,1.22.66,4.41,4.41,0,0,1,1.82,3,4.49,4.49,0,0,1-.84,3.43m-8.09-5.29h0s0,0,0,0Zm1.63-4.38a.87.87,0,0,1,.35.66,1,1,0,0,1-.16.79c-.1.06-.16.16-.25.22h0v-.19a3.39,3.39,0,0,0-.31-1.39,3.65,3.65,0,0,0-.19-.32,1.07,1.07,0,0,1,.6.22m-2.32,5.83a1.34,1.34,0,0,1-.81.6.83.83,0,0,1-.85-.19h-.1v0a.12.12,0,0,1,0-.06c0-.06-.06-.06-.12-.1s0-.09-.06-.13a1.33,1.33,0,0,1-.16-.5l0,0a1.49,1.49,0,0,1,.22-1,1.24,1.24,0,0,1,.82-.63h0a1.16,1.16,0,0,1,.85.16,1.25,1.25,0,0,1,.41.88,1.66,1.66,0,0,1-.22,1.07m-3-.5a.63.63,0,0,0-.19.25c-.06,0-.09.06-.09.1l-.63.59s-.06.06-.06.1a4.92,4.92,0,0,1-1.82.79.64.64,0,0,1-.21,0,4.52,4.52,0,0,1-3.42-.79,4.61,4.61,0,0,1-1.82-3,4.68,4.68,0,0,1,.84-3.47c.13-.16.25-.31.41-.47l.41-.38.35-.25a1,1,0,0,1,.18-.13A4.17,4.17,0,0,1,388,14a5.34,5.34,0,0,1,1-.06,3.24,3.24,0,0,1,1.22.22,4.21,4.21,0,0,1,1.22.66,4.34,4.34,0,0,1,1.79,3,4.43,4.43,0,0,1-.82,3.43m-8.91-4.72a4.43,4.43,0,0,0-.28,1.07,1.05,1.05,0,0,1-.22-.66c0-.63.22-.95.69-.95h.09a3.51,3.51,0,0,0-.28.54m27.85,2.74a1.74,1.74,0,0,0-1.22-.57,2.59,2.59,0,0,0-1.19.19.48.48,0,0,0-.15.13,1.69,1.69,0,0,0-.16.12v0a1.37,1.37,0,0,0-.47-.25.26.26,0,0,0-.16-.06,6.2,6.2,0,0,0-1.66-.5c-.6-.13-1.79-.29-3.52-.44-1-.06-1.66-.12-2-.16a3.18,3.18,0,0,0-.63,0c-.16,0-.25,0-.38,0l-.44.09a2.12,2.12,0,0,0,.4-1.54,2.25,2.25,0,0,0-.82-1.39,1,1,0,0,0-.19-.09,1.68,1.68,0,0,0-.34-.16,4.23,4.23,0,0,0-.54-.13,2,2,0,0,0-.62,0,.84.84,0,0,0-.47.22.57.57,0,0,0-.22.13v0l0,0a1.74,1.74,0,0,0-.62-.32h0c-.19-.06-.41-.09-.66-.19s-1-.22-2.14-.38c-.57-.09-1.32-.25-2.35-.44-.28-.06-.54-.12-.79-.16a7.67,7.67,0,0,1-.85,0,6.4,6.4,0,0,0-.78,0,2.46,2.46,0,0,0-.69.1,1,1,0,0,1-.31.06,4.86,4.86,0,0,0-2.64,1.86l-.09-.1a1.32,1.32,0,0,0-1.09-.06,1.7,1.7,0,0,0-.94.82,1.8,1.8,0,0,0-.19,1.23,1.31,1.31,0,0,0,.66.91,1.3,1.3,0,0,0,.62.19,7.74,7.74,0,0,0,0,.85,5.14,5.14,0,0,0,2,3.37,4.76,4.76,0,0,0,3.76.88.69.69,0,0,0,.26,0,1.08,1.08,0,0,0,.31-.06,1.12,1.12,0,0,1,.34-.12c.31-.13.75-.25,1.28-.41l1.48-.5c.06.06.12.16.22.25a1.47,1.47,0,0,0,1.13.44,1.55,1.55,0,0,0,1-.32,7.14,7.14,0,0,0,.1.82,4.9,4.9,0,0,0,2,3.34,4.84,4.84,0,0,0,3.79.88,5.29,5.29,0,0,0,.91-.19l.22-.09a15.84,15.84,0,0,0,3.32-1.83,4.63,4.63,0,0,1,.06.95v.16a2.47,2.47,0,0,1-.25.95c-.22.35-.38.75-.56,1.13-.13.19-.19.44-.32.63s-.19.32-.25.47a6.94,6.94,0,0,1-.41.76l-1.15,2.08,0,0-2.82,5a.09.09,0,0,1,0,.06h0a4.21,4.21,0,0,1-.57.76c-.09.13-.22.28-.31.41a2,2,0,0,0-.22.19,5.46,5.46,0,0,0-.84,1.1,1.48,1.48,0,0,0-.19,1,3.47,3.47,0,0,0,.35.85,1.75,1.75,0,0,0,.22.28,4.19,4.19,0,0,0,.35.29,2.3,2.3,0,0,0,1.76.22,2.09,2.09,0,0,0,1.09-.82,3.48,3.48,0,0,0,.47-1.73,4.5,4.5,0,0,1,.1-.7,8.49,8.49,0,0,1,.25-.95l1.59-4h0a.21.21,0,0,0,0-.12c.26-.54.48-1.07.72-1.6s.5-1.14.72-1.7a1.77,1.77,0,0,0,.16-.35c.28-.59.47-1.1.69-1.48v-.1a12.68,12.68,0,0,1,.53-1.17,1,1,0,0,1,.22-.41,0,0,0,0,0,0,0l.06-.09a1.22,1.22,0,0,1,.47-.35c.35-.22.66-.47,1-.7a2.24,2.24,0,0,0,.69-.94,1.86,1.86,0,0,0,.1-1.16,1.81,1.81,0,0,0-.25-.54V24c0-.06-.09-.09-.13-.13l-.06-.06s-.06,0-.1-.06-.06-.06-.06-.09a1.86,1.86,0,0,1,.19-.22,3.38,3.38,0,0,0,.44-.82l0,0h0a2.26,2.26,0,0,0,.66,0,2.14,2.14,0,0,0,.43-.12,2.42,2.42,0,0,0,.95-.66,2.11,2.11,0,0,0,.37-1.54,1.78,1.78,0,0,0-.6-1.17"/></g></g><g id="g508"><g id="g510"><path id="path512" class="cls-3" d="M386,18.68a2.93,2.93,0,0,1,.16-1c.16-.63.44-.91.85-.91s.6.16.6.44a7,7,0,0,1-.26,1,2.24,2.24,0,0,0,.5,1.48,3.6,3.6,0,0,1,.47.63c0,.28-.22.44-.66.44a1.44,1.44,0,0,1-1.38-1c-.19-.66-.28-1-.28-1.07m2-3.5v0Zm2.82.44a3.3,3.3,0,0,0-2.67-.66,3.48,3.48,0,0,0-2.35,1.45,3.38,3.38,0,0,0-.66,2.68,3.61,3.61,0,0,0,1.44,2.36A3.59,3.59,0,0,0,392.21,18a3.42,3.42,0,0,0-1.41-2.33"/></g></g><g id="g962"><g id="g964"><path id="path966" class="cls-3" d="M392,17.8a3.49,3.49,0,0,0-1.44-2.37,3.34,3.34,0,0,0-2.71-.67,3.55,3.55,0,0,0-2.39,1.47,3.45,3.45,0,0,0-.67,2.72,3.67,3.67,0,0,0,1.47,2.4A3.65,3.65,0,0,0,392,17.8"/></g></g><g id="g968"><g id="g970"><path id="path972" class="cls-3" d="M402.68,19.74a3.4,3.4,0,0,0-2.71-.67,3.6,3.6,0,0,0-2.39,1.5,3.69,3.69,0,0,0,.8,5.09,3.42,3.42,0,0,0,2.71.64,3.59,3.59,0,0,0,3-4.16,3.64,3.64,0,0,0-1.43-2.4"/></g></g><g id="g974"><g id="g976"><path id="path978" class="cls-3" d="M409.89,21.5a2.62,2.62,0,0,0-.48-2s.61,0,.88.67a1,1,0,0,1-.4,1.29m-9.36,5.91a4.72,4.72,0,1,1,4.7-4.72,4.71,4.71,0,0,1-4.7,4.72m-2.83-11.8a1.13,1.13,0,0,1,.35.67,1.09,1.09,0,0,1-.16.8.58.58,0,0,1-.29.22v-.19a3.39,3.39,0,0,0-.32-1.41,2.73,2.73,0,0,0-.19-.32,1.06,1.06,0,0,1,.6.22M395.55,21a1,1,0,0,1,0,.1,1.1,1.1,0,0,1,0,.11v0a2.25,2.25,0,0,1-.14.32l-.11.13a1.23,1.23,0,0,1-1.37.53,1.37,1.37,0,0,1-.6-1.82c0-.06,0-.11.07-.16a1.31,1.31,0,0,1,.08-.19l.12-.14a1.22,1.22,0,0,1,1.35-.5,1.31,1.31,0,0,1,.66,1.6m-7.07,2.13a4.79,4.79,0,1,1,4.77-4.79,4.78,4.78,0,0,1-4.77,4.79m-5.3-6.9a4.65,4.65,0,0,0-.28,1.09,1.05,1.05,0,0,1-.22-.67c0-.64.22-1,.7-1h.09a4.87,4.87,0,0,0-.29.55m28.09,4.08c-.2-1-.48-1.4-1-1.55a3.82,3.82,0,0,0-1.55.16,10.66,10.66,0,0,0-2.33-.83c-.6-.13-1.82-.29-3.57-.45-1-.06-2.55-.16-2.71-.13a6.33,6.33,0,0,0-.83.13,2.16,2.16,0,0,0,.41-1.57,2.32,2.32,0,0,0-.83-1.41,4.57,4.57,0,0,0-.54-.26,3.84,3.84,0,0,0-.54-.13,2.18,2.18,0,0,0-.64,0,2.29,2.29,0,0,0-.7.39l-.7-.35c-.19-.06-5.77-1.15-6-1.18s-.16,0-.86,0a11.44,11.44,0,0,0-1.82.19,4.94,4.94,0,0,0-2.68,1.89l-.1-.1a1.36,1.36,0,0,0-1.12-.06,1.74,1.74,0,0,0-1,.83,1.86,1.86,0,0,0-.19,1.25,1.31,1.31,0,0,0,.67.93,1.34,1.34,0,0,0,.64.19,8,8,0,0,0,0,.86,5.23,5.23,0,0,0,2.07,3.43,4.85,4.85,0,0,0,3.83.95,2.91,2.91,0,0,0,.62-.1,20.08,20.08,0,0,0,2.76-1.32l0,.06a1.53,1.53,0,0,0,1.16.91,1.55,1.55,0,0,0,1.29-.31l.51,1.6h0a5.07,5.07,0,0,0,5.7,3.45,5.59,5.59,0,0,0,.93-.19l.22-.09a15.88,15.88,0,0,0,3.38-1.86,8.41,8.41,0,0,1,.06,1.12,2.54,2.54,0,0,1-.26,1c-.22.35-2.78,5.19-2.78,5.19L400,38l-1.16,1.12h0a2,2,0,1,0,3.29,1.53s.2-1.32.3-1.64c0,0,2.11-5.28,2.36-5.83s2.46-5.41,2.46-5.41a14.81,14.81,0,0,1,1.5-1.06,2.17,2.17,0,0,0,.83-1.2,2,2,0,0,0-.29-1.55,1.24,1.24,0,0,0-.35-.35,7.17,7.17,0,0,0,.72-1.25s.67-.16.9-.19a1.9,1.9,0,0,0,.7-1.85"/></g></g></g></g><g data-stop="pioneer" data-name="Pioneer Square"><path d="M376.14,150.26h2.65c1.59,0,2.74.69,2.74,2.29,0,1.8-1.19,2.45-2.73,2.45h-1.66v3.15h-1Zm2.5,3.94c1.15,0,1.83-.46,1.83-1.64s-.78-1.51-1.8-1.51h-1.52v3.15Z"/><path d="M382.81,150.26h1v7.9h-1Z"/><path d="M385.17,154.18c0-2.53,1.47-4.09,3.6-4.09s3.62,1.57,3.62,4.09-1.52,4.14-3.62,4.14S385.17,156.7,385.17,154.18Zm6.14,0c0-1.88-.94-3.22-2.56-3.22s-2.5,1.34-2.5,3.22,1,3.27,2.53,3.27S391.31,156.13,391.31,154.18Z"/><path d="M393.65,150.26h1.17c1.38,2.39,2.64,4.52,3.77,6.55-.06-2.23,0-4.37,0-6.55h1v7.9h-1.16c-1.28-2.2-2.72-4.66-3.77-6.55,0,2.24,0,4.37,0,6.55h-1Z"/><path d="M401.07,150.26h4.7V151h-3.69v2.59H405v.78h-2.87v3h3.85v.78h-4.85Z"/><path d="M407.18,150.26h4.7V151h-3.69v2.59h2.88v.78h-2.87v3H412v.78h-4.85Z"/><path d="M413.28,150.26h2.57c1.63,0,2.8.67,2.8,2.24a2,2,0,0,1-2.06,2,1.56,1.56,0,0,1,1,.85l1.57,2.77h-1.19l-1.24-2.32a1.5,1.5,0,0,0-1.44-1h-1v3.32h-1Zm2.6,3.77c1,0,1.7-.46,1.7-1.51s-.67-1.48-1.72-1.48h-1.57v3Z"/><path d="M377.42,169.75a2.72,2.72,0,0,0,2.34,1.15c1,0,1.79-.56,1.79-1.47s-.91-1.17-2.1-1.51c-1.35-.38-2.35-.93-2.35-2.23s1.11-2.19,2.67-2.19a3.6,3.6,0,0,1,2.7,1.08l-.68.64a2.72,2.72,0,0,0-2-.88c-1,0-1.62.41-1.62,1.24s.78,1.16,1.88,1.47c1.66.45,2.56,1,2.56,2.27,0,1.53-1.27,2.42-2.84,2.42a3.43,3.43,0,0,1-3-1.32Z"/><path d="M387.12,171.73c-2.38,0-3.61-1.78-3.61-4.13,0-2.53,1.47-4.09,3.6-4.09s3.61,1.57,3.61,4.09c0,2-1,3.57-2.55,3.95a2.31,2.31,0,0,0,2.14.88l-.38.82A2.93,2.93,0,0,1,387.12,171.73Zm2.53-4.13c0-1.88-.94-3.22-2.56-3.22s-2.52,1.34-2.52,3.22,1,3.27,2.54,3.27S389.65,169.55,389.65,167.6Z"/><path d="M392,163.68h1v5.09c0,1.44.72,2.1,1.9,2.1s1.91-.67,1.91-2.07v-5.12h1v5.19a2.91,2.91,0,0,1-5.83,0Z"/><path d="M401.4,163.68h.93l2.79,7.9h-1.05l-.7-2.12h-3l-.7,2.13h-1Zm1.69,5c-.41-1.29-.83-2.51-1.24-3.87-.39,1.33-.84,2.58-1.26,3.87Z"/><path d="M406.18,163.68h2.57c1.63,0,2.8.67,2.8,2.24a2,2,0,0,1-2.06,2,1.56,1.56,0,0,1,1,.85l1.57,2.77h-1.19l-1.24-2.32a1.5,1.5,0,0,0-1.44-1h-1v3.32h-1Zm2.6,3.77c1,0,1.7-.46,1.7-1.51s-.67-1.48-1.72-1.48h-1.57v3Z"/><path d="M413.11,163.68h4.7v.78h-3.69v2.59H417v.78h-2.87v3H418v.78h-4.85Z"/><path d="M376.14,150.26h2.65c1.59,0,2.74.69,2.74,2.29,0,1.8-1.19,2.45-2.73,2.45h-1.66v3.15h-1Zm2.5,3.94c1.15,0,1.83-.46,1.83-1.64s-.78-1.51-1.8-1.51h-1.52v3.15Z"/><path d="M382.81,150.26h1v7.9h-1Z"/><path d="M385.17,154.18c0-2.53,1.47-4.09,3.6-4.09s3.62,1.57,3.62,4.09-1.52,4.14-3.62,4.14S385.17,156.7,385.17,154.18Zm6.14,0c0-1.88-.94-3.22-2.56-3.22s-2.5,1.34-2.5,3.22,1,3.27,2.53,3.27S391.31,156.13,391.31,154.18Z"/><path d="M393.65,150.26h1.17c1.38,2.39,2.64,4.52,3.77,6.55-.06-2.23,0-4.37,0-6.55h1v7.9h-1.16c-1.28-2.2-2.72-4.66-3.77-6.55,0,2.24,0,4.37,0,6.55h-1Z"/><path d="M401.07,150.26h4.7V151h-3.69v2.59H405v.78h-2.87v3h3.85v.78h-4.85Z"/><path d="M407.18,150.26h4.7V151h-3.69v2.59h2.88v.78h-2.87v3H412v.78h-4.85Z"/><path d="M413.28,150.26h2.57c1.63,0,2.8.67,2.8,2.24a2,2,0,0,1-2.06,2,1.56,1.56,0,0,1,1,.85l1.57,2.77h-1.19l-1.24-2.32a1.5,1.5,0,0,0-1.44-1h-1v3.32h-1Zm2.6,3.77c1,0,1.7-.46,1.7-1.51s-.67-1.48-1.72-1.48h-1.57v3Z"/><path d="M377.42,169.75a2.72,2.72,0,0,0,2.34,1.15c1,0,1.79-.56,1.79-1.47s-.91-1.17-2.1-1.51c-1.35-.38-2.35-.93-2.35-2.23s1.11-2.19,2.67-2.19a3.6,3.6,0,0,1,2.7,1.08l-.68.64a2.72,2.72,0,0,0-2-.88c-1,0-1.62.41-1.62,1.24s.78,1.16,1.88,1.47c1.66.45,2.56,1,2.56,2.27,0,1.53-1.27,2.42-2.84,2.42a3.43,3.43,0,0,1-3-1.32Z"/><path d="M387.12,171.73c-2.38,0-3.61-1.78-3.61-4.13,0-2.53,1.47-4.09,3.6-4.09s3.61,1.57,3.61,4.09c0,2-1,3.57-2.55,3.95a2.31,2.31,0,0,0,2.14.88l-.38.82A2.93,2.93,0,0,1,387.12,171.73Zm2.53-4.13c0-1.88-.94-3.22-2.56-3.22s-2.52,1.34-2.52,3.22,1,3.27,2.54,3.27S389.65,169.55,389.65,167.6Z"/><path d="M392,163.68h1v5.09c0,1.44.72,2.1,1.9,2.1s1.91-.67,1.91-2.07v-5.12h1v5.19a2.91,2.91,0,0,1-5.83,0Z"/><path d="M401.4,163.68h.93l2.79,7.9h-1.05l-.7-2.12h-3l-.7,2.13h-1Zm1.69,5c-.41-1.29-.83-2.51-1.24-3.87-.39,1.33-.84,2.58-1.26,3.87Z"/><path d="M406.18,163.68h2.57c1.63,0,2.8.67,2.8,2.24a2,2,0,0,1-2.06,2,1.56,1.56,0,0,1,1,.85l1.57,2.77h-1.19l-1.24-2.32a1.5,1.5,0,0,0-1.44-1h-1v3.32h-1Zm2.6,3.77c1,0,1.7-.46,1.7-1.51s-.67-1.48-1.72-1.48h-1.57v3Z"/><path d="M413.11,163.68h4.7v.78h-3.69v2.59H417v.78h-2.87v3H418v.78h-4.85Z"/><path class="cls-4" d="M418.12,123.18A22.18,22.18,0,1,1,395.94,101a22.18,22.18,0,0,1,22.18,22.18"/><g id="g944"><g id="g946"><path id="path948" class="cls-3" d="M407.37,130.34c-.87.07-1.47.11-2.33.16v-.89c.86-.05,1.46-.09,2.33-.16Zm-3,.2c-.88,0-1.5.08-2.34.11v-.89c.84,0,1.46-.06,2.34-.11Zm-3,.13-2.33.05v-.89c.83,0,1.44,0,2.33,0Zm-3,.05h-2.33v-.89h2.33Zm-3,0c-1,0-1.41,0-2.17-.07v-.89c.76,0,1.2.05,2.17.07Zm-7.6-2.23-9.29-5.65a1.13,1.13,0,0,1,.33,0,13,13,0,0,1,2.27.33,25.43,25.43,0,0,1,4.38,1.42,16.32,16.32,0,0,1,1.68.89c.05,0,.09,0,.1-.1-1.06-1-1-3.9.23-7,1-2.64,2.65-4.68,4-5.2a14.41,14.41,0,0,0-1.19,1.74c-1.12,1.86-1.64,3.63-1.23,4.07,0,0,.2.17.2.17s1.38-1,1.74-1.12a8.39,8.39,0,0,1,2-.76v2.11a4.29,4.29,0,0,1-.89.26c-.49.13-1,.23-1.48.36s-.62.17-.93.29h0c-1.14.11-1.94,1.66-1.77,3.46s1.23,3.18,2.37,3.08c0,0,2.23-.18,2.7-.18v1.95c-.56,0-5.18-.1-5.18-.1m4.78,2.14c-1.56-.06-2.27-.13-2.3-.13l.08-.89s.72.07,2.22.13ZM395,117a7.33,7.33,0,0,1,2.14.63l.13,0a.76.76,0,0,1,.33-.23,11.05,11.05,0,0,1,1.45-.13,12.27,12.27,0,0,1,1.61.2v2.31l-1.71.55c-1.2.31-1.81,2-1.37,3.75s1.79,2.94,3,2.64l.11,0v1.91h-7v-1.95c.07,0,3,.53,3.49.69a12.84,12.84,0,0,1,1.51.69l.08-.13a5.65,5.65,0,0,1-3-4c-.69-2.74.17-5.25,2-5.72l.15-.07a1,1,0,0,1-.05-.21l-.82.21s-2.91,1-3.43,1.07l0-2A6.76,6.76,0,0,1,395,117m7.48,1a10.62,10.62,0,0,1,1.32.52.65.65,0,0,0,0,.08c-.21.09-2.39.89-2.49.93l0-2a9.93,9.93,0,0,1,1.19.43m3.9,9.91v.44c-1.77.06-4.52.15-5,.19v-1.92c.07,0,2,.27,2.54.41a13.62,13.62,0,0,1,2.48.88m-2.43-8.74c.18.54.46.9.79.92,0,0,1.59,0,1.62,0v3.17l-.06.06a2.56,2.56,0,0,0-.5,2.08,3.42,3.42,0,0,0,.56,1.86v.46c-.07-.06-2.31-1.41-2.58-1.64a4.21,4.21,0,0,1-1.12-1.92,11.25,11.25,0,0,1-.1-2,5.27,5.27,0,0,1,.4-1.52,5,5,0,0,1,1-1.4M412,128l-5,.28v-.86a24.11,24.11,0,0,0,5.42-.17,4.62,4.62,0,0,1-2.49-2.69,5.5,5.5,0,0,1-.49-4c-.06.05-2,1.53-2.51,2v-2.54a14.44,14.44,0,0,1,2.62.26,9.64,9.64,0,0,1-2-2.51c-.66-1.65-.49-3.31.36-4l-1,.27v-2a2.88,2.88,0,0,0-.59,0l0,2.15-2.11.56,0,.26a.53.53,0,0,0,.06.27h0a11,11,0,0,0-.56,2.31,5.37,5.37,0,0,1-1.81-1.55s-.26-.43-.3-.46a4.29,4.29,0,0,1-.3-2,6.62,6.62,0,0,1,1.94-2.81c.19-.13.69-.38.74-.41l0-.32-2.7.89s0-2.31,0-2.35h-.56v2.54l-3.13,1a8,8,0,0,0-1,2.5,4.23,4.23,0,0,0,.24,2.24,7.22,7.22,0,0,1-1.92-1.39,4.11,4.11,0,0,1-.51-1.26,2.9,2.9,0,0,1,1.47-3.14,8.32,8.32,0,0,1,1.36-.48c0-.13,0-.23,0-.31s-3.52,1.14-3.55,1.17V108.7H393s0,2.89,0,2.89c-.26.19-1.81.77-2.07.91,0,.11-.07.26,0,.35s.27,0,.24,0a16.67,16.67,0,0,1-1.38,1.45s-11.68,8.26-11.68,8.26H378s-.07-.06-.1-.06a3.94,3.94,0,0,0-.37.18l8.68,5.74-2.25-.32-.14.17c.07.07,4.24,2.73,4.34,2.76a.59.59,0,0,1,.33.3c.16.3,1.15,2.31,1.25,2.48a3.48,3.48,0,0,0,1.15,1.22c.13,0,1.38.23,1.48.23.72,0,7.41,0,13.4,0,.43,0,2.93-.11,2.95-.11a2.49,2.49,0,0,0,1-.4,1.55,1.55,0,0,0,.5-1.14,1.65,1.65,0,0,0-.67-1.2l.19-.73a7,7,0,0,1,1.06-.44c.2-.3,1.35-3,1.39-3a.22.22,0,0,0-.17-.2"/></g></g></g><g data-stop="international"><path d="M246.41,150.26h1v7.9h-1Z"/><path d="M249.09,150.26h1.17c1.38,2.39,2.64,4.52,3.77,6.55-.06-2.23,0-4.37,0-6.55h1v7.9h-1.16c-1.28-2.2-2.72-4.66-3.77-6.55,0,2.24,0,4.37,0,6.55h-1Z"/><path d="M258.31,151H256v-.78h5.67V151h-2.33v7.11h-1Z"/><path d="M262.52,152.3a.8.8,0,0,0,.5-.84v-.15h-.49v-1.06h1.05v1.16a1.24,1.24,0,0,1-.85,1.33Z"/><path d="M265,150.26h1v7.11h3.77v.78H265Z"/><path d="M273.45,150.26h2.38c2.72,0,4,1.33,4,4s-1.3,3.94-3.85,3.94h-2.5Zm2.43,7.11c2.16,0,2.85-1.32,2.85-3.18s-.66-3.15-3-3.15h-1.32v6.33Z"/><path d="M281.15,150.26h1v7.9h-1Z"/><path d="M284.1,156.33a2.71,2.71,0,0,0,2.34,1.15c1,0,1.79-.56,1.79-1.47s-.91-1.17-2.1-1.51c-1.35-.38-2.35-.93-2.35-2.23s1.11-2.19,2.67-2.19a3.59,3.59,0,0,1,2.7,1.08l-.68.64a2.72,2.72,0,0,0-2-.88c-1,0-1.62.41-1.62,1.24s.78,1.16,1.88,1.47c1.66.45,2.56,1,2.56,2.27,0,1.53-1.28,2.42-2.84,2.42a3.43,3.43,0,0,1-3-1.32Z"/><path d="M292.12,151h-2.34v-.78h5.67V151h-2.33v7.11h-1Z"/><path d="M296.48,150.26h2.57c1.63,0,2.8.67,2.8,2.24a2,2,0,0,1-2.06,2,1.56,1.56,0,0,1,1,.85l1.57,2.77h-1.19l-1.24-2.32a1.5,1.5,0,0,0-1.44-1h-1v3.32h-1Zm2.6,3.77c1,0,1.7-.46,1.7-1.51s-.67-1.48-1.72-1.48h-1.57v3Z"/><path d="M303.52,150.26h1v7.9h-1Z"/><path d="M312.62,156.49a3.23,3.23,0,0,1-3.13,1.83c-2.36,0-3.6-1.81-3.6-4.15s1.27-4.08,3.6-4.08a3.34,3.34,0,0,1,3.06,1.64l-1,.48a2.31,2.31,0,0,0-2.11-1.25c-1.68,0-2.54,1.42-2.54,3.21s.89,3.28,2.54,3.28a2.2,2.2,0,0,0,2.18-1.44Z"/><path d="M315.65,151h-2.34v-.78H319V151h-2.33v7.11h-1Z"/><path d="M322.06,150.26h.82l-3.24,7.9h-.84Z"/><path d="M260.33,169.91a3.23,3.23,0,0,1-3.13,1.83c-2.36,0-3.6-1.81-3.6-4.15s1.28-4.08,3.6-4.08a3.34,3.34,0,0,1,3.06,1.64l-1,.48a2.31,2.31,0,0,0-2.11-1.25c-1.68,0-2.54,1.42-2.54,3.21s.9,3.28,2.54,3.28a2.2,2.2,0,0,0,2.18-1.44Z"/><path d="M261.56,163.68h1v3.41h3.86v-3.41h1v7.9h-1v-3.65h-3.86v3.65h-1Z"/><path d="M269.09,163.68h1v7.9h-1Z"/><path d="M271.77,163.68h1.17c1.38,2.39,2.64,4.52,3.77,6.55-.06-2.23,0-4.37,0-6.55h1v7.9h-1.16c-1.28-2.2-2.72-4.66-3.77-6.55,0,2.24,0,4.37,0,6.55h-1Z"/><path d="M281.5,163.68h.93l2.79,7.9h-1.05l-.71-2.12h-3l-.71,2.13h-1Zm1.69,5c-.41-1.29-.83-2.51-1.24-3.87-.39,1.33-.84,2.58-1.26,3.87Z"/><path d="M287.13,164.46H284.8v-.78h5.67v.78h-2.33v7.11h-1Z"/><path d="M290.7,167.6c0-2.53,1.46-4.09,3.6-4.09s3.62,1.57,3.62,4.09-1.52,4.14-3.62,4.14S290.7,170.12,290.7,167.6Zm6.14,0c0-1.88-.94-3.22-2.56-3.22s-2.51,1.34-2.51,3.22,1,3.27,2.53,3.27S296.84,169.55,296.84,167.6Z"/><path d="M298.35,163.68h1.07c.51,2.14,1.16,4.64,1.61,6.57.42-1.81,1.16-4.44,1.77-6.57h.86c.65,2.36,1.38,4.73,1.83,6.55.39-1.92,1-4.08,1.55-6.55h1.06l-2.16,7.9h-1c-.65-2.29-1.33-4.48-1.81-6.38-.45,1.91-1.14,4.32-1.72,6.38h-1Z"/><path d="M309.16,163.68h1.17c1.38,2.39,2.64,4.52,3.77,6.55-.06-2.23,0-4.37,0-6.55h1v7.9h-1.16c-1.27-2.2-2.72-4.66-3.77-6.55,0,2.24,0,4.37,0,6.55h-1Z"/><path d="M246.41,150.26h1v7.9h-1Z"/><path d="M249.09,150.26h1.17c1.38,2.39,2.64,4.52,3.77,6.55-.06-2.23,0-4.37,0-6.55h1v7.9h-1.16c-1.28-2.2-2.72-4.66-3.77-6.55,0,2.24,0,4.37,0,6.55h-1Z"/><path d="M258.31,151H256v-.78h5.67V151h-2.33v7.11h-1Z"/><path d="M262.52,152.3a.8.8,0,0,0,.5-.84v-.15h-.49v-1.06h1.05v1.16a1.24,1.24,0,0,1-.85,1.33Z"/><path d="M265,150.26h1v7.11h3.77v.78H265Z"/><path d="M273.45,150.26h2.38c2.72,0,4,1.33,4,4s-1.3,3.94-3.85,3.94h-2.5Zm2.43,7.11c2.16,0,2.85-1.32,2.85-3.18s-.66-3.15-3-3.15h-1.32v6.33Z"/><path d="M281.15,150.26h1v7.9h-1Z"/><path d="M284.1,156.33a2.71,2.71,0,0,0,2.34,1.15c1,0,1.79-.56,1.79-1.47s-.91-1.17-2.1-1.51c-1.35-.38-2.35-.93-2.35-2.23s1.11-2.19,2.67-2.19a3.59,3.59,0,0,1,2.7,1.08l-.68.64a2.72,2.72,0,0,0-2-.88c-1,0-1.62.41-1.62,1.24s.78,1.16,1.88,1.47c1.66.45,2.56,1,2.56,2.27,0,1.53-1.28,2.42-2.84,2.42a3.43,3.43,0,0,1-3-1.32Z"/><path d="M292.12,151h-2.34v-.78h5.67V151h-2.33v7.11h-1Z"/><path d="M296.48,150.26h2.57c1.63,0,2.8.67,2.8,2.24a2,2,0,0,1-2.06,2,1.56,1.56,0,0,1,1,.85l1.57,2.77h-1.19l-1.24-2.32a1.5,1.5,0,0,0-1.44-1h-1v3.32h-1Zm2.6,3.77c1,0,1.7-.46,1.7-1.51s-.67-1.48-1.72-1.48h-1.57v3Z"/><path d="M303.52,150.26h1v7.9h-1Z"/><path d="M312.62,156.49a3.23,3.23,0,0,1-3.13,1.83c-2.36,0-3.6-1.81-3.6-4.15s1.27-4.08,3.6-4.08a3.34,3.34,0,0,1,3.06,1.64l-1,.48a2.31,2.31,0,0,0-2.11-1.25c-1.68,0-2.54,1.42-2.54,3.21s.89,3.28,2.54,3.28a2.2,2.2,0,0,0,2.18-1.44Z"/><path d="M315.65,151h-2.34v-.78H319V151h-2.33v7.11h-1Z"/><path d="M322.06,150.26h.82l-3.24,7.9h-.84Z"/><path d="M260.33,169.91a3.23,3.23,0,0,1-3.13,1.83c-2.36,0-3.6-1.81-3.6-4.15s1.28-4.08,3.6-4.08a3.34,3.34,0,0,1,3.06,1.64l-1,.48a2.31,2.31,0,0,0-2.11-1.25c-1.68,0-2.54,1.42-2.54,3.21s.9,3.28,2.54,3.28a2.2,2.2,0,0,0,2.18-1.44Z"/><path d="M261.56,163.68h1v3.41h3.86v-3.41h1v7.9h-1v-3.65h-3.86v3.65h-1Z"/><path d="M269.09,163.68h1v7.9h-1Z"/><path d="M271.77,163.68h1.17c1.38,2.39,2.64,4.52,3.77,6.55-.06-2.23,0-4.37,0-6.55h1v7.9h-1.16c-1.28-2.2-2.72-4.66-3.77-6.55,0,2.24,0,4.37,0,6.55h-1Z"/><path d="M281.5,163.68h.93l2.79,7.9h-1.05l-.71-2.12h-3l-.71,2.13h-1Zm1.69,5c-.41-1.29-.83-2.51-1.24-3.87-.39,1.33-.84,2.58-1.26,3.87Z"/><path d="M287.13,164.46H284.8v-.78h5.67v.78h-2.33v7.11h-1Z"/><path d="M290.7,167.6c0-2.53,1.46-4.09,3.6-4.09s3.62,1.57,3.62,4.09-1.52,4.14-3.62,4.14S290.7,170.12,290.7,167.6Zm6.14,0c0-1.88-.94-3.22-2.56-3.22s-2.51,1.34-2.51,3.22,1,3.27,2.53,3.27S296.84,169.55,296.84,167.6Z"/><path d="M298.35,163.68h1.07c.51,2.14,1.16,4.64,1.61,6.57.42-1.81,1.16-4.44,1.77-6.57h.86c.65,2.36,1.38,4.73,1.83,6.55.39-1.92,1-4.08,1.55-6.55h1.06l-2.16,7.9h-1c-.65-2.29-1.33-4.48-1.81-6.38-.45,1.91-1.14,4.32-1.72,6.38h-1Z"/><path d="M309.16,163.68h1.17c1.38,2.39,2.64,4.52,3.77,6.55-.06-2.23,0-4.37,0-6.55h1v7.9h-1.16c-1.27-2.2-2.72-4.66-3.77-6.55,0,2.24,0,4.37,0,6.55h-1Z"/><path class="cls-4" d="M305.84,123.18A22.18,22.18,0,1,1,283.66,101a22.18,22.18,0,0,1,22.18,22.18"/><path class="cls-3" d="M270.44,117.87a.51.51,0,1,1,.52-.51.51.51,0,0,1-.52.51m-2.51-.7a.51.51,0,1,1,.52-.51.52.52,0,0,1-.52.51m34.9,1.21a18.78,18.78,0,0,1,2.09-.24,4.38,4.38,0,0,0-1.27-1,3.67,3.67,0,0,0-1.12-.54,4.45,4.45,0,0,0-1.06-.24.32.32,0,0,1,0-.11,5.57,5.57,0,0,1,.94-.71,5.69,5.69,0,0,0-4.41.59l-.14.11a.7.7,0,0,0,0-.08,3.69,3.69,0,0,1,.39-.8,5.61,5.61,0,0,0-3,1.78.56.56,0,0,1-.19.11,3.43,3.43,0,0,1,0-.86,4.43,4.43,0,0,0-1.21,1.26,2.91,2.91,0,0,0-.25.38,4.2,4.2,0,0,0-.57,1.54.39.39,0,0,1-.08.11.63.63,0,0,1-.42-.51c-.44.16-.62,1.81-.62,2a9,9,0,0,1-.2,1.1,2.41,2.41,0,0,1-.35-.57,5.82,5.82,0,0,0-.29,2.92c0,.09-.25,2.2-1.92,2.21a1.84,1.84,0,0,1-1.33-.56h0a1.09,1.09,0,0,1-.35-.53,1.75,1.75,0,0,1-.16-.73s0,0,0-.05a2.46,2.46,0,0,1,1.06-2.14c1.6-1.37,3.72-5.12,3.69-5.78,0-.05,0-.15,0-.24a2.9,2.9,0,0,1,.68.34,5.77,5.77,0,0,0-1.4-2.71,5.68,5.68,0,0,1,1.18,0,6,6,0,0,0-2.57-1.83,4.15,4.15,0,0,1,.88-.5,6.06,6.06,0,0,0-4.06-.23,5.4,5.4,0,0,1,.8-.84,5.85,5.85,0,0,0-4,1.09l-.15.06a4.66,4.66,0,0,1,.48-1,4.56,4.56,0,0,0-1.6.58,2.18,2.18,0,0,0-.65.39,4.12,4.12,0,0,0-1.4,1.53h0a.45.45,0,0,1-.27-.27c0-.07,0-.17,0-.24a4.45,4.45,0,0,0-.69,1.16,5.89,5.89,0,0,0-.31.72c-1,2.92-2.71,6.66-2.71,6.66a1.6,1.6,0,0,1-1.53.92,1.71,1.71,0,0,1-.63-.17,1.86,1.86,0,0,1-.65-1.79c.24,0,1.1.39,1.24.39a9.65,9.65,0,0,0-.14-1.74c.42-.07,1.7-.2,1.77-.27a18,18,0,0,0-2-1.78c.35-.27.73-.51,1.11-.79a21.21,21.21,0,0,0,1.95-2.42c-.21,0-3.27,1.57-4.17,2l-.66-.21s1.18-.89,1.42-1.09a12.17,12.17,0,0,0,1.42-1.64c-.11,0-1.49.55-1.74.58a4.54,4.54,0,0,0-1.84,1.16l-.31-.89a4.94,4.94,0,0,0-1.11,1.23,3.62,3.62,0,0,1-.32-1.06c-.17,0-.84.82-.9,1.06h-.34c-1.39,0-2.14.55-2.09,1.43a2.92,2.92,0,0,0,.24,1.2,1.46,1.46,0,0,1-.94,0,1.83,1.83,0,0,0-.73,0c-.1,0-.22,0-.29.11a.84.84,0,0,0-.07.34,1,1,0,0,0,.21.61.84.84,0,0,0,.86.25c.31-.08.41-.44.62-.65a.86.86,0,0,1,.84-.25.59.59,0,0,1,.48.26,1.23,1.23,0,0,1-.11,1.29.8.8,0,0,1-.38.18.7.7,0,0,1-.56-.21.49.49,0,0,1-.11-.37.7.7,0,0,1,.33-.53c.35-.07.48.14.38.41a.21.21,0,1,0-.37.19.24.24,0,0,0,.2.11.49.49,0,0,0,.38-.37c.06-.25.05-.42-.27-.53a.56.56,0,0,0-.34,0,1.44,1.44,0,0,0-.37.3,2.8,2.8,0,0,1-.5.49.83.83,0,0,1-.35.1,1.36,1.36,0,0,1-1.11-.62c-.12-.15-.37-.8.07-1.14,0,0-.56,0-.73.31a1.12,1.12,0,0,0,.07,1l.07.07c.11.31.21.69.35,1.23a7.34,7.34,0,0,0,.38-.75c.07,0,.34.17.45.24a5.79,5.79,0,0,0,.68.29l.46.88a1.92,1.92,0,0,0,.38-.75,4.08,4.08,0,0,0,2.33-.79c.17-.1,1.77-1.3,2.78-.78l-.09.36-.83-.07a2.79,2.79,0,0,0-.49.65,4.07,4.07,0,0,1-.26.36s-1,.38-1,.38a3.74,3.74,0,0,0-.84,0,2.38,2.38,0,0,0-1.11.51c-.34.27-.76.59-1.21.34a2.46,2.46,0,0,1-.76-.93s-.17.1-.35.51.69.92,1,1a1.17,1.17,0,0,1,.48.17,4.31,4.31,0,0,1,.32.51,2.53,2.53,0,0,1,.07.51v.31l.38-.14.38-1a5,5,0,0,0,.73.38v-.58a1.09,1.09,0,0,1,.27-.68l1.57.07c0,.1.24.48.24.55s0,.34,0,.51a7.13,7.13,0,0,0,.14,1c0,.31.14.65.21,1a3.87,3.87,0,0,0,.24.68c.07.14.28.55.35.65l.11.24a4.43,4.43,0,0,0-.21,1.57c0,.1.14.58.17.72l-1.53-.1-.14-.14a.93.93,0,0,1-.14-.24c.07-.17.17-.34.24-.51a1.12,1.12,0,0,0,.17-.82c-.11-.36-.69-.72-.76-.75a1.93,1.93,0,0,1,.07.75c-.07.3-.35.41-.52.58-.07,0-1.07-1-1.39-1.06a4.14,4.14,0,0,0-1.21.41,6.05,6.05,0,0,1,1,.45,2.9,2.9,0,0,1,.51.71,1.64,1.64,0,0,0-.5.07c-.31.07-.33.12-.69.41a1.57,1.57,0,0,0-.45.89.93.93,0,0,1,.59-.44,8,8,0,0,1,1.53-.14,3.22,3.22,0,0,1,.8,1,1.44,1.44,0,0,1,.14,1.06.41.41,0,0,1-.1.31,2.35,2.35,0,0,0,.63-.34.63.63,0,0,0,.28-.34,4.26,4.26,0,0,0,.11-1.06l1.77.79a.68.68,0,0,0,.28-.07,4.1,4.1,0,0,0,.52-.27,3.18,3.18,0,0,0,.69-.65c.07-.14.38-.86.49-1.09a5.74,5.74,0,0,0,3.68-.34,4.45,4.45,0,0,0,1.85.51,3,3,0,0,1-.28,1.33c0,.14-.23.44-.26.58-.38-.41-.54-.65-1.84-.78-.28.27-.5.4-.64.71a1.18,1.18,0,0,1,1.53.51,3.66,3.66,0,0,0-1.22,1.4l.39.95a4.42,4.42,0,0,1,1.07-1.56,3.38,3.38,0,0,0,.55,1.81,5.86,5.86,0,0,1,1.08.36,2,2,0,0,1-.49-1.73c0-.77,1.12-1.4,1.57-1.74a4.64,4.64,0,0,0,.63.27,2.34,2.34,0,0,1-.24-.62,1.07,1.07,0,0,0-1.35.1A26.26,26.26,0,0,0,281,127a.55.55,0,0,0-.14-.61,1.31,1.31,0,0,0-.59-.55,8,8,0,0,0-1.22-.37s3.33-8,5.49-8.93h0a1.75,1.75,0,0,1,.84-.21,1.67,1.67,0,0,1,1.74,1.72c-.16,1.46-3.48,4.64-3.75,5.36a5.75,5.75,0,0,0-.31,3.31,5.28,5.28,0,0,0,1.7,2.8,3.13,3.13,0,0,0,1.25,2s-1.25.86-1.39.92a11.62,11.62,0,0,0-.21-1.3.54.54,0,0,0-.42-.34c-.07,0-1-.17-1.46-.17a6.62,6.62,0,0,1,.63.48.64.64,0,0,1,.28.58v.41l-1.91.07a5.66,5.66,0,0,0-.55,1.3l.8-.58a1.54,1.54,0,0,1,1.67.48s-.9.55-1.15.68l-.17.37a3.55,3.55,0,0,0,.24,1,1.16,1.16,0,0,0,.17.27,5.81,5.81,0,0,1,.56-1.23,3.11,3.11,0,0,1,2.39-.54.49.49,0,0,1,.35.62l-.35.41a7.73,7.73,0,0,0,.94-.34.93.93,0,0,0,.1-.51c0-.14-.1-.82-.14-.89a6.3,6.3,0,0,0-1-.31c.21-.07,1.63-.41,1.88-.55a1,1,0,0,0,.55-.92,3.54,3.54,0,0,0,0-.6,6.36,6.36,0,0,0,5.4-.93c0,.17.24.81.28.92l0,1c-.24-.07-.34-.15-.66-.24a1.61,1.61,0,0,0-1.09.16,2.55,2.55,0,0,0-.47.56,2,2,0,0,1,.52-.21,5,5,0,0,1,1.32.55,2.81,2.81,0,0,0-.77,1.67,1.7,1.7,0,0,0,.24.72s.44-1.44,1.15-1.57c0,.17,0,.91,1.6,1.57l-.52-.65a5.49,5.49,0,0,1-.14-1.85l.8-1.13c.24,0,.55.1.83.17l0-.24a1.27,1.27,0,0,0-.42-.27,3.13,3.13,0,0,0-.83-.13l-.56.48.11-.72a3.5,3.5,0,0,1,.35-1,.75.75,0,0,0,0-.55,1.51,1.51,0,0,0-.42-.51,1.89,1.89,0,0,0-.55-.34c0-.1.52-1.57.55-1.88,0,0,.14-.92.18-1.3s.48-2.73.48-2.87a6,6,0,0,1,1-2.63,5,5,0,0,1,1.77-1.37,4.51,4.51,0,0,1,2.85.07c2.24.9,3.56,4,3.56,4s1.25-1.73-1.63-3.9"/></g><g data-stop="stadium"><path d="M148.64,156.33a2.71,2.71,0,0,0,2.34,1.15c1,0,1.79-.56,1.79-1.47s-.91-1.17-2.1-1.51c-1.35-.38-2.35-.93-2.35-2.23s1.11-2.19,2.67-2.19a3.6,3.6,0,0,1,2.7,1.08l-.68.64a2.72,2.72,0,0,0-2-.88c-1,0-1.62.41-1.62,1.24s.78,1.16,1.88,1.47c1.66.45,2.56,1,2.56,2.27,0,1.53-1.27,2.42-2.84,2.42a3.43,3.43,0,0,1-3-1.32Z"/><path d="M156.66,151h-2.34v-.78H160V151h-2.33v7.11h-1Z"/><path d="M162.39,150.26h.93l2.79,7.9h-1.05l-.7-2.12h-3l-.7,2.13h-1Zm1.69,5c-.41-1.29-.83-2.51-1.24-3.87-.39,1.33-.84,2.58-1.26,3.87Z"/><path d="M167.16,150.26h2.38c2.72,0,4,1.33,4,4s-1.3,3.94-3.85,3.94h-2.51Zm2.43,7.11c2.16,0,2.85-1.32,2.85-3.18s-.66-3.15-3-3.15h-1.32v6.33Z"/><path d="M174.87,150.26h1v7.9h-1Z"/><path d="M177.54,150.26h1v5.09c0,1.44.72,2.1,1.9,2.1s1.91-.67,1.91-2.07v-5.12h1v5.19a2.91,2.91,0,0,1-5.83,0Z"/><path d="M184.93,150.26h1.25c.79,2,1.74,4.42,2.36,6.05.62-1.63,1.55-4,2.36-6.05h1.2v7.9h-1c0-2.2,0-4.74,0-6.55-.68,1.85-1.73,4.35-2.62,6.59h-.09c-.82-2-2-5-2.63-6.59,0,1.81,0,4.37,0,6.55h-1Z"/><path d="M148.64,156.33a2.71,2.71,0,0,0,2.34,1.15c1,0,1.79-.56,1.79-1.47s-.91-1.17-2.1-1.51c-1.35-.38-2.35-.93-2.35-2.23s1.11-2.19,2.67-2.19a3.6,3.6,0,0,1,2.7,1.08l-.68.64a2.72,2.72,0,0,0-2-.88c-1,0-1.62.41-1.62,1.24s.78,1.16,1.88,1.47c1.66.45,2.56,1,2.56,2.27,0,1.53-1.27,2.42-2.84,2.42a3.43,3.43,0,0,1-3-1.32Z"/><path d="M156.66,151h-2.34v-.78H160V151h-2.33v7.11h-1Z"/><path d="M162.39,150.26h.93l2.79,7.9h-1.05l-.7-2.12h-3l-.7,2.13h-1Zm1.69,5c-.41-1.29-.83-2.51-1.24-3.87-.39,1.33-.84,2.58-1.26,3.87Z"/><path d="M167.16,150.26h2.38c2.72,0,4,1.33,4,4s-1.3,3.94-3.85,3.94h-2.51Zm2.43,7.11c2.16,0,2.85-1.32,2.85-3.18s-.66-3.15-3-3.15h-1.32v6.33Z"/><path d="M174.87,150.26h1v7.9h-1Z"/><path d="M177.54,150.26h1v5.09c0,1.44.72,2.1,1.9,2.1s1.91-.67,1.91-2.07v-5.12h1v5.19a2.91,2.91,0,0,1-5.83,0Z"/><path d="M184.93,150.26h1.25c.79,2,1.74,4.42,2.36,6.05.62-1.63,1.55-4,2.36-6.05h1.2v7.9h-1c0-2.2,0-4.74,0-6.55-.68,1.85-1.73,4.35-2.62,6.59h-.09c-.82-2-2-5-2.63-6.59,0,1.81,0,4.37,0,6.55h-1Z"/><path class="cls-4" d="M192.19,123.18A22.18,22.18,0,1,1,170,101a22.18,22.18,0,0,1,22.18,22.18"/><path class="cls-3" d="M170.2,117.65h-.69c-2-.24-1.66-2.77-1.34-3.36.46-.83,1.42-1,.83-2.06a8.36,8.36,0,0,1,1.93,1.39c1.15,1.2.57,3.85-.73,4m3,0a6.72,6.72,0,0,0,1.32-3.07,3.38,3.38,0,0,1,2-2.8,2.86,2.86,0,0,0-3.06.22c0-.25,1.07-3.61-1-4.63-2.41-1.17-3.08-1.81-3.06-3.31,0,.06-1.46,2.14-.51,3.31,1.47,1.81.85,3.21,0,3.08-1.43-.22-1.26-2.1-1-2.57a2.36,2.36,0,0,0-2,1c-1.29,1.93,1.5,3.77.51,5.14-.76,1-2-1-2-1a5.33,5.33,0,0,0,1.05,4.8,5.82,5.82,0,0,0,1.76,1.32l-2.91.07a.13.13,0,0,0,0,.2,2.53,2.53,0,0,0,.67.56,1.31,1.31,0,0,0,.26.13,8.89,8.89,0,0,0,0,1.22c0,.09.2.25.28.28s1.67.75,2,.88l.15.15V135l-.05,0a1,1,0,0,0-.67.58c-.07.13-.05.45.31.92s.53.4.64.37a1.4,1.4,0,0,0-.2.72,1.72,1.72,0,0,0,1.43,1.58,2.7,2.7,0,0,0,.44.08h.24a3.17,3.17,0,0,0,.42-.08,1.73,1.73,0,0,0,1.44-1.58,1.4,1.4,0,0,0-.24-.77c.12,0,.34,0,.63-.38s.37-.8.3-.92a1,1,0,0,0-.68-.59V122.66c0-.09.14-.13.16-.16.31-.13,1.8-.74,2-.88s.28-.2.28-.28a.85.85,0,0,0,0-.18c0-.17-.07-.83-.07-1a1.41,1.41,0,0,0,.28-.14,2.47,2.47,0,0,0,.63-.51h0a.32.32,0,0,0,.06-.13h0v0a17.82,17.82,0,0,0-3.47-.18,4,4,0,0,0,1.82-1.48"/></g><g data-stop="sodo"><path d="M42.69,156.33A2.71,2.71,0,0,0,45,157.48c1,0,1.79-.56,1.79-1.47s-.91-1.17-2.1-1.51c-1.35-.38-2.35-.93-2.35-2.23s1.11-2.19,2.67-2.19a3.6,3.6,0,0,1,2.7,1.08l-.68.64a2.72,2.72,0,0,0-2-.88c-1,0-1.62.41-1.62,1.24s.78,1.16,1.88,1.47c1.66.45,2.56,1,2.56,2.27,0,1.53-1.27,2.42-2.84,2.42A3.43,3.43,0,0,1,42,157Z"/><path d="M48.76,154.18c0-2.53,1.47-4.09,3.6-4.09S56,151.66,56,154.18s-1.52,4.14-3.62,4.14S48.76,156.7,48.76,154.18Zm6.14,0c0-1.88-.94-3.22-2.56-3.22s-2.51,1.34-2.51,3.22,1,3.27,2.53,3.27S54.9,156.13,54.9,154.18Z"/><path d="M57.24,150.26h2.38c2.72,0,4,1.33,4,4s-1.3,3.94-3.85,3.94H57.24Zm2.43,7.11c2.16,0,2.85-1.32,2.85-3.18s-.66-3.15-3-3.15H58.24v6.33Z"/><path d="M64.53,154.18c0-2.53,1.47-4.09,3.6-4.09s3.62,1.57,3.62,4.09-1.52,4.14-3.62,4.14S64.53,156.7,64.53,154.18Zm6.14,0c0-1.88-.94-3.22-2.56-3.22s-2.51,1.34-2.51,3.22,1,3.27,2.53,3.27S70.67,156.13,70.67,154.18Z"/><path d="M42.69,156.33A2.71,2.71,0,0,0,45,157.48c1,0,1.79-.56,1.79-1.47s-.91-1.17-2.1-1.51c-1.35-.38-2.35-.93-2.35-2.23s1.11-2.19,2.67-2.19a3.6,3.6,0,0,1,2.7,1.08l-.68.64a2.72,2.72,0,0,0-2-.88c-1,0-1.62.41-1.62,1.24s.78,1.16,1.88,1.47c1.66.45,2.56,1,2.56,2.27,0,1.53-1.27,2.42-2.84,2.42A3.43,3.43,0,0,1,42,157Z"/><path d="M48.76,154.18c0-2.53,1.47-4.09,3.6-4.09S56,151.66,56,154.18s-1.52,4.14-3.62,4.14S48.76,156.7,48.76,154.18Zm6.14,0c0-1.88-.94-3.22-2.56-3.22s-2.51,1.34-2.51,3.22,1,3.27,2.53,3.27S54.9,156.13,54.9,154.18Z"/><path d="M57.24,150.26h2.38c2.72,0,4,1.33,4,4s-1.3,3.94-3.85,3.94H57.24Zm2.43,7.11c2.16,0,2.85-1.32,2.85-3.18s-.66-3.15-3-3.15H58.24v6.33Z"/><path d="M64.53,154.18c0-2.53,1.47-4.09,3.6-4.09s3.62,1.57,3.62,4.09-1.52,4.14-3.62,4.14S64.53,156.7,64.53,154.18Zm6.14,0c0-1.88-.94-3.22-2.56-3.22s-2.51,1.34-2.51,3.22,1,3.27,2.53,3.27S70.67,156.13,70.67,154.18Z"/><path class="cls-4" d="M79.54,123.18A22.18,22.18,0,1,1,57.36,101a22.18,22.18,0,0,1,22.18,22.18"/><polygon class="cls-3" points="41.56 114.63 41.56 114.63 41.6 114.61 41.56 114.63"/><path class="cls-3" d="M46.76,124.67l-5,2.18a4.36,4.36,0,0,0,3.17-.07,3.34,3.34,0,0,0,1.86-2.11"/><path class="cls-3" d="M72.94,122.19c-1.4.41-3.87,1.35-11.6-.46l0,2.94-.69.59h0l.05-4.8.6.18a40.94,40.94,0,0,0,4.42,1,22.87,22.87,0,0,0,8.07,0c-.21,0-.34.35-.86.5m.77-1.87a16,16,0,0,0-2.29-1.49c-1.11-.61-2.23-1.14-2.86-1.43v-.83L60,120.23v5.52a19.46,19.46,0,0,0,4,.1,12.52,12.52,0,0,1-4.06.48c-3.28,2.74-1.36,5.6-.25,6.7l7-4,.73.29-7.28,4.29v2.12l-.76.74v-2.87a3.17,3.17,0,0,1-.79-.56,3.11,3.11,0,0,1-.73-1,4.74,4.74,0,0,1-.34-3.92,4.21,4.21,0,0,1,1.57-2.33l.06-5.59L42.9,115.05c.07,0,1.34-.42,1.34-.42l15.55,4.74,8.37-3.51-17-4.22h0l-9.61,3v2.16l.24.06a13.48,13.48,0,0,1,3.1,1.44,6.21,6.21,0,0,1,2.35,3.08,7.08,7.08,0,0,1,.2,1.05c.06,2.93-1.32,4.58-2.64,5a3.93,3.93,0,0,1-3.25-.31v2.1l4.79,2a3.79,3.79,0,0,1,4.7-1.39,5.53,5.53,0,0,1,3.33,4.87L59.65,137l8-4.73v-3.4a5.13,5.13,0,0,1-1.8-.66,2.72,2.72,0,0,1-1.22-2.43c.29,0,1.74-.13,2.31-.18a20.53,20.53,0,0,0,4.3-.79,7,7,0,0,0,2.52-1.31,3.57,3.57,0,0,0,.94-1.88,2.47,2.47,0,0,0-1-1.32"/><polygon class="cls-3" points="66.99 129.46 66.99 129.46 67 129.46 66.99 129.46"/></g><g data-stop="beacon" data-name="Beacon Hill"><path d="M37.67,246.86h2.66c1.3,0,2.56.47,2.56,2a1.76,1.76,0,0,1-1.62,1.79,1.93,1.93,0,0,1,1.86,2c0,1.62-1.15,2.17-2.7,2.17H37.67Zm2.3,3.39c.87,0,1.86-.15,1.86-1.37,0-1-.78-1.24-1.68-1.24H38.68v2.61Zm.3,3.72c.9,0,1.78-.31,1.78-1.5s-.94-1.45-1.9-1.45H38.68v3Z"/><path d="M44.39,246.86h4.7v.78H45.4v2.59h2.87V251H45.4v3h3.85v.78H44.39Z"/><path d="M52.8,246.86h.93l2.78,7.9H55.46l-.71-2.12h-3l-.7,2.13H50Zm1.69,5c-.41-1.29-.83-2.51-1.24-3.87-.39,1.33-.84,2.58-1.26,3.87Z"/><path d="M63.67,253.09a3.23,3.23,0,0,1-3.13,1.83c-2.36,0-3.6-1.81-3.6-4.15s1.28-4.08,3.6-4.08a3.34,3.34,0,0,1,3.07,1.64l-1,.48a2.31,2.31,0,0,0-2.11-1.25c-1.68,0-2.54,1.42-2.54,3.21s.89,3.28,2.54,3.28a2.2,2.2,0,0,0,2.18-1.44Z"/><path d="M64.35,250.79c0-2.53,1.46-4.09,3.6-4.09s3.62,1.57,3.62,4.09-1.52,4.14-3.62,4.14S64.35,253.3,64.35,250.79Zm6.14,0c0-1.88-.94-3.22-2.56-3.22s-2.5,1.34-2.5,3.22,1,3.27,2.53,3.27S70.5,252.73,70.5,250.79Z"/><path d="M72.83,246.86H74c1.38,2.39,2.64,4.52,3.77,6.55-.06-2.23,0-4.37,0-6.55h1v7.9H77.52c-1.28-2.2-2.72-4.66-3.77-6.55,0,2.24,0,4.37,0,6.55h-1Z"/><path d="M46.66,260.28h1v3.41h3.86v-3.41h1v7.9h-1v-3.65H47.67v3.65h-1Z"/><path d="M54.2,260.28h1v7.9h-1Z"/><path d="M56.87,260.28h1v7.11h3.77v.78H56.87Z"/><path d="M62.81,260.28h1v7.11h3.77v.78H62.81Z"/><path d="M37.67,246.86h2.66c1.3,0,2.56.47,2.56,2a1.76,1.76,0,0,1-1.62,1.79,1.93,1.93,0,0,1,1.86,2c0,1.62-1.15,2.17-2.7,2.17H37.67Zm2.3,3.39c.87,0,1.86-.15,1.86-1.37,0-1-.78-1.24-1.68-1.24H38.68v2.61Zm.3,3.72c.9,0,1.78-.31,1.78-1.5s-.94-1.45-1.9-1.45H38.68v3Z"/><path d="M44.39,246.86h4.7v.78H45.4v2.59h2.87V251H45.4v3h3.85v.78H44.39Z"/><path d="M52.8,246.86h.93l2.78,7.9H55.46l-.71-2.12h-3l-.7,2.13H50Zm1.69,5c-.41-1.29-.83-2.51-1.24-3.87-.39,1.33-.84,2.58-1.26,3.87Z"/><path d="M63.67,253.09a3.23,3.23,0,0,1-3.13,1.83c-2.36,0-3.6-1.81-3.6-4.15s1.28-4.08,3.6-4.08a3.34,3.34,0,0,1,3.07,1.64l-1,.48a2.31,2.31,0,0,0-2.11-1.25c-1.68,0-2.54,1.42-2.54,3.21s.89,3.28,2.54,3.28a2.2,2.2,0,0,0,2.18-1.44Z"/><path d="M64.35,250.79c0-2.53,1.46-4.09,3.6-4.09s3.62,1.57,3.62,4.09-1.52,4.14-3.62,4.14S64.35,253.3,64.35,250.79Zm6.14,0c0-1.88-.94-3.22-2.56-3.22s-2.5,1.34-2.5,3.22,1,3.27,2.53,3.27S70.5,252.73,70.5,250.79Z"/><path d="M72.83,246.86H74c1.38,2.39,2.64,4.52,3.77,6.55-.06-2.23,0-4.37,0-6.55h1v7.9H77.52c-1.28-2.2-2.72-4.66-3.77-6.55,0,2.24,0,4.37,0,6.55h-1Z"/><path d="M46.66,260.28h1v3.41h3.86v-3.41h1v7.9h-1v-3.65H47.67v3.65h-1Z"/><path d="M54.2,260.28h1v7.9h-1Z"/><path d="M56.87,260.28h1v7.11h3.77v.78H56.87Z"/><path d="M62.81,260.28h1v7.11h3.77v.78H62.81Z"/><path class="cls-4" d="M79.54,218.48a22.18,22.18,0,1,1-22.18-22.18,22.18,22.18,0,0,1,22.18,22.18"/><path class="cls-3" d="M72.26,218.68a33.54,33.54,0,0,1-5.9-1.58l-.21.45c-.08.18-.92,2.14-1.42,3a34.38,34.38,0,0,1-5.06,7.47.64.64,0,0,1-.7-.34h0v0h0l0,0a65,65,0,0,0,6.25-10.33l.22-.54c-2.39-.83-7.83-3.28-7.93-3.41a.43.43,0,0,1,0-.51.65.65,0,0,1,.39-.2A48.51,48.51,0,0,0,65.81,216a44.93,44.93,0,0,0,2.48-7.86c0-.11,0-.2.05-.26v0h0v0h0a.64.64,0,0,1,.74.27v.05a21.82,21.82,0,0,1-.6,2.68c-.24.88-.76,2.67-1.22,3.91-.2.56-.39,1.07-.61,1.62a33.84,33.84,0,0,0,5.87,1.58c.13.22-.07.63-.29.76m-2.35-13.44,0-.18c-2.91,3.37-14.08,6.66-14.08,6.66s2.33,14.52,1.85,17.84A10,10,0,0,1,56.39,232a2.2,2.2,0,0,1-2,.82,3.88,3.88,0,0,1-2.59-1.64l-.5-.68a8.41,8.41,0,0,1-.55-1h0l3.33,1-1.31-4.31-2.24,2.65-.06,0a15,15,0,0,1-.57-1.79l-.13-.56-.09-.43-.16-.86,0-.17-.12-.54c-.16-.7-.35-1.41-.58-2.12l0,0,3.46.43-2-4-1.7,2.91c-.09-.25-.18-.49-.28-.73l0-.09-.36-.78a11.34,11.34,0,0,0-1.47-2.29,8.59,8.59,0,0,0-1.45-1.32l-.29-.19,3.18-.88-3.49-2.92-.41,3.36a9.92,9.92,0,0,0-3.41-1.35.13.13,0,0,0-.11,0,3.19,3.19,0,0,0-.07.73s0,.06.07.06a9.61,9.61,0,0,1,3,1.3l0,0-3.54,1,3.48,2.92.6-3.57.21.13a8.62,8.62,0,0,1,1.46,1.32A10.36,10.36,0,0,1,47,220.63l.11.24.32.76c.08.2.14.4.21.6l-3.6-.45,2,4L47.93,223c.17.57.33,1.13.45,1.69l.15.72.1.51h0l.18.89.18.73a15.64,15.64,0,0,0,.52,1.56l-3.35-1,1.31,4.31,2.36-2.55a9.14,9.14,0,0,0,.69,1.25l.39.53c.84,1,2.09,2.23,3.52,2.23a3.59,3.59,0,0,0,3-1.58A13.27,13.27,0,0,0,58.72,230c2.58-2,12.61-9.49,16.06-11v-.14s-3.55-4.48-4.87-13.6"/></g><g data-stop="baker" data-name="Mount Baker"><path d="M152.08,247.86h1.25c.79,2,1.75,4.42,2.36,6.05.62-1.63,1.55-4,2.36-6.05h1.2v7.9h-1c0-2.2,0-4.74,0-6.55-.68,1.85-1.73,4.35-2.62,6.59h-.09c-.82-2-2-5-2.63-6.59,0,1.81,0,4.37,0,6.55h-1Z"/><path d="M160.5,251.79c0-2.53,1.46-4.09,3.6-4.09s3.62,1.57,3.62,4.09-1.52,4.14-3.62,4.14S160.5,254.3,160.5,251.79Zm6.14,0c0-1.88-.94-3.22-2.56-3.22s-2.5,1.34-2.5,3.22,1,3.27,2.53,3.27S166.64,253.73,166.64,251.79Z"/><path d="M169,247.86h1V253c0,1.44.71,2.1,1.9,2.1s1.91-.67,1.91-2.07v-5.12h1v5.19a2.91,2.91,0,0,1-5.83,0Z"/><path d="M176.37,247.86h1.17c1.38,2.39,2.64,4.52,3.77,6.55-.06-2.23,0-4.37,0-6.55h1v7.9h-1.16c-1.28-2.2-2.72-4.66-3.77-6.55,0,2.24,0,4.37,0,6.55h-1Z"/><path d="M185.6,248.64h-2.34v-.78h5.67v.78H186.6v7.11h-1Z"/><path d="M154.11,261.28h2.66c1.3,0,2.56.47,2.56,2a1.76,1.76,0,0,1-1.62,1.79,1.93,1.93,0,0,1,1.86,2c0,1.62-1.15,2.17-2.7,2.17h-2.76Zm2.3,3.39c.87,0,1.86-.15,1.86-1.36,0-1-.78-1.24-1.68-1.24h-1.48v2.61Zm.3,3.72c.9,0,1.78-.31,1.78-1.5s-.94-1.45-1.9-1.45h-1.48v3Z"/><path d="M163,261.28h.93l2.78,7.9h-1.05l-.71-2.12h-3l-.7,2.13h-1Zm1.69,5c-.41-1.29-.83-2.51-1.24-3.87-.39,1.33-.84,2.58-1.26,3.87Z"/><path d="M167.73,261.28h1v4.09l3.58-4.09h1.2l-2.91,3.27,3.27,4.63h-1.19l-2.74-3.88-1.21,1.35v2.53h-1Z"/><path d="M174.89,261.28h4.7v.78h-3.69v2.6h2.88v.78h-2.87v3h3.85v.78h-4.85Z"/><path d="M181,261.28h2.57c1.63,0,2.8.67,2.8,2.24a2,2,0,0,1-2.06,2,1.56,1.56,0,0,1,1,.85l1.57,2.77h-1.19l-1.24-2.31a1.5,1.5,0,0,0-1.44-1h-1v3.32h-1Zm2.59,3.77c1,0,1.7-.46,1.7-1.51s-.67-1.48-1.72-1.48H182v3Z"/><path d="M152.08,247.86h1.25c.79,2,1.75,4.42,2.36,6.05.62-1.63,1.55-4,2.36-6.05h1.2v7.9h-1c0-2.2,0-4.74,0-6.55-.68,1.85-1.73,4.35-2.62,6.59h-.09c-.82-2-2-5-2.63-6.59,0,1.81,0,4.37,0,6.55h-1Z"/><path d="M160.5,251.79c0-2.53,1.46-4.09,3.6-4.09s3.62,1.57,3.62,4.09-1.52,4.14-3.62,4.14S160.5,254.3,160.5,251.79Zm6.14,0c0-1.88-.94-3.22-2.56-3.22s-2.5,1.34-2.5,3.22,1,3.27,2.53,3.27S166.64,253.73,166.64,251.79Z"/><path d="M169,247.86h1V253c0,1.44.71,2.1,1.9,2.1s1.91-.67,1.91-2.07v-5.12h1v5.19a2.91,2.91,0,0,1-5.83,0Z"/><path d="M176.37,247.86h1.17c1.38,2.39,2.64,4.52,3.77,6.55-.06-2.23,0-4.37,0-6.55h1v7.9h-1.16c-1.28-2.2-2.72-4.66-3.77-6.55,0,2.24,0,4.37,0,6.55h-1Z"/><path d="M185.6,248.64h-2.34v-.78h5.67v.78H186.6v7.11h-1Z"/><path d="M154.11,261.28h2.66c1.3,0,2.56.47,2.56,2a1.76,1.76,0,0,1-1.62,1.79,1.93,1.93,0,0,1,1.86,2c0,1.62-1.15,2.17-2.7,2.17h-2.76Zm2.3,3.39c.87,0,1.86-.15,1.86-1.36,0-1-.78-1.24-1.68-1.24h-1.48v2.61Zm.3,3.72c.9,0,1.78-.31,1.78-1.5s-.94-1.45-1.9-1.45h-1.48v3Z"/><path d="M163,261.28h.93l2.78,7.9h-1.05l-.71-2.12h-3l-.7,2.13h-1Zm1.69,5c-.41-1.29-.83-2.51-1.24-3.87-.39,1.33-.84,2.58-1.26,3.87Z"/><path d="M167.73,261.28h1v4.09l3.58-4.09h1.2l-2.91,3.27,3.27,4.63h-1.19l-2.74-3.88-1.21,1.35v2.53h-1Z"/><path d="M174.89,261.28h4.7v.78h-3.69v2.6h2.88v.78h-2.87v3h3.85v.78h-4.85Z"/><path d="M181,261.28h2.57c1.63,0,2.8.67,2.8,2.24a2,2,0,0,1-2.06,2,1.56,1.56,0,0,1,1,.85l1.57,2.77h-1.19l-1.24-2.31a1.5,1.5,0,0,0-1.44-1h-1v3.32h-1Zm2.59,3.77c1,0,1.7-.46,1.7-1.51s-.67-1.48-1.72-1.48H182v3Z"/><path class="cls-4" d="M192.19,218.48A22.18,22.18,0,1,1,170,196.31a22.18,22.18,0,0,1,22.18,22.18"/><path class="cls-3" d="M181.84,212.27l-1.06.83-1.92-4.22-2,.23L173,205.58s-3.86,2.93-4.05,3-4.6,6.36-4.6,6.36l3.34-1.23,2.43,1.86,2.31-1.86,2.32,2.62a14,14,0,0,0,1.92-1.62s3,2.41,3.07,2.41l0,0v.05l1.91-2.79,5.6,9.23L180.37,225h-16l-5.87-1.93,4.31-5.87-1.58.46-4.07,5.29-3.39.31L162,210.33l1-.72.5,1.62,2-1.21.46,1.07,1.86-2.78,4.43-3.22-2,.62-2-1.57s-2.87,2.42-3,2.39l-1.29-.78-2.81,4.18-9.63,14.55,6.43-.39,6.1,2.09,16.43,0,8.78-1.78Z"/></g><g data-stop="columbia" data-name="Columbia City"><path d="M264.72,253.09a3.23,3.23,0,0,1-3.13,1.83c-2.36,0-3.6-1.81-3.6-4.15s1.28-4.08,3.6-4.08a3.34,3.34,0,0,1,3.07,1.64l-1,.48a2.31,2.31,0,0,0-2.11-1.25c-1.68,0-2.54,1.42-2.54,3.21s.89,3.28,2.54,3.28a2.2,2.2,0,0,0,2.18-1.44Z"/><path d="M265.4,250.79c0-2.53,1.46-4.09,3.6-4.09s3.62,1.57,3.62,4.09-1.52,4.14-3.62,4.14S265.4,253.3,265.4,250.79Zm6.14,0c0-1.88-.94-3.22-2.56-3.22s-2.5,1.34-2.5,3.22,1,3.27,2.53,3.27S271.54,252.73,271.54,250.79Z"/><path d="M273.88,246.86h1V254h3.77v.78h-4.78Z"/><path d="M279.48,246.86h1V252c0,1.44.71,2.1,1.9,2.1s1.91-.67,1.91-2.07v-5.12h1v5.19a2.91,2.91,0,0,1-5.83,0Z"/><path d="M286.88,246.86h1.25c.79,2,1.75,4.42,2.36,6.05.62-1.63,1.55-4,2.36-6.05H294v7.9h-1c0-2.2,0-4.74,0-6.55-.68,1.84-1.73,4.35-2.62,6.59h-.09c-.82-2-2-5-2.63-6.59,0,1.81,0,4.37,0,6.55h-1Z"/><path d="M295.61,246.86h2.66c1.3,0,2.56.47,2.56,2a1.76,1.76,0,0,1-1.62,1.79,1.93,1.93,0,0,1,1.86,2c0,1.62-1.15,2.17-2.7,2.17h-2.76Zm2.3,3.39c.87,0,1.86-.15,1.86-1.37,0-1-.78-1.24-1.68-1.24h-1.48v2.61Zm.3,3.72c.9,0,1.78-.31,1.78-1.5s-.94-1.45-1.9-1.45h-1.48v3Z"/><path d="M302.43,246.86h1v7.9h-1Z"/><path d="M307.41,246.86h.93l2.79,7.9h-1.05l-.71-2.12h-3l-.7,2.13h-1Zm1.69,5c-.41-1.29-.83-2.51-1.24-3.87-.39,1.33-.84,2.58-1.26,3.87Z"/><path d="M279.86,266.51a3.23,3.23,0,0,1-3.13,1.83c-2.36,0-3.6-1.81-3.6-4.15s1.28-4.08,3.6-4.08a3.34,3.34,0,0,1,3.07,1.64l-1,.48a2.31,2.31,0,0,0-2.11-1.25c-1.68,0-2.54,1.42-2.54,3.21s.89,3.28,2.54,3.28a2.2,2.2,0,0,0,2.18-1.44Z"/><path d="M281.19,260.28h1v7.9h-1Z"/><path d="M285.66,261.06h-2.34v-.78H289v.78h-2.33v7.11h-1Z"/><path d="M292.27,264.61l-2.67-4.33h1.15l2,3.55,2.09-3.55H296l-2.74,4.33v3.57h-1Z"/><path d="M264.72,253.09a3.23,3.23,0,0,1-3.13,1.83c-2.36,0-3.6-1.81-3.6-4.15s1.28-4.08,3.6-4.08a3.34,3.34,0,0,1,3.07,1.64l-1,.48a2.31,2.31,0,0,0-2.11-1.25c-1.68,0-2.54,1.42-2.54,3.21s.89,3.28,2.54,3.28a2.2,2.2,0,0,0,2.18-1.44Z"/><path d="M265.4,250.79c0-2.53,1.46-4.09,3.6-4.09s3.62,1.57,3.62,4.09-1.52,4.14-3.62,4.14S265.4,253.3,265.4,250.79Zm6.14,0c0-1.88-.94-3.22-2.56-3.22s-2.5,1.34-2.5,3.22,1,3.27,2.53,3.27S271.54,252.73,271.54,250.79Z"/><path d="M273.88,246.86h1V254h3.77v.78h-4.78Z"/><path d="M279.48,246.86h1V252c0,1.44.71,2.1,1.9,2.1s1.91-.67,1.91-2.07v-5.12h1v5.19a2.91,2.91,0,0,1-5.83,0Z"/><path d="M286.88,246.86h1.25c.79,2,1.75,4.42,2.36,6.05.62-1.63,1.55-4,2.36-6.05H294v7.9h-1c0-2.2,0-4.74,0-6.55-.68,1.84-1.73,4.35-2.62,6.59h-.09c-.82-2-2-5-2.63-6.59,0,1.81,0,4.37,0,6.55h-1Z"/><path d="M295.61,246.86h2.66c1.3,0,2.56.47,2.56,2a1.76,1.76,0,0,1-1.62,1.79,1.93,1.93,0,0,1,1.86,2c0,1.62-1.15,2.17-2.7,2.17h-2.76Zm2.3,3.39c.87,0,1.86-.15,1.86-1.37,0-1-.78-1.24-1.68-1.24h-1.48v2.61Zm.3,3.72c.9,0,1.78-.31,1.78-1.5s-.94-1.45-1.9-1.45h-1.48v3Z"/><path d="M302.43,246.86h1v7.9h-1Z"/><path d="M307.41,246.86h.93l2.79,7.9h-1.05l-.71-2.12h-3l-.7,2.13h-1Zm1.69,5c-.41-1.29-.83-2.51-1.24-3.87-.39,1.33-.84,2.58-1.26,3.87Z"/><path d="M279.86,266.51a3.23,3.23,0,0,1-3.13,1.83c-2.36,0-3.6-1.81-3.6-4.15s1.28-4.08,3.6-4.08a3.34,3.34,0,0,1,3.07,1.64l-1,.48a2.31,2.31,0,0,0-2.11-1.25c-1.68,0-2.54,1.42-2.54,3.21s.89,3.28,2.54,3.28a2.2,2.2,0,0,0,2.18-1.44Z"/><path d="M281.19,260.28h1v7.9h-1Z"/><path d="M285.66,261.06h-2.34v-.78H289v.78h-2.33v7.11h-1Z"/><path d="M292.27,264.61l-2.67-4.33h1.15l2,3.55,2.09-3.55H296l-2.74,4.33v3.57h-1Z"/><path class="cls-4" d="M305.84,218.48a22.18,22.18,0,1,1-22.18-22.18,22.18,22.18,0,0,1,22.18,22.18"/><path class="cls-3" d="M273.41,217.1a.47.47,0,0,1-.18.64.48.48,0,0,1-.6-.11l0,0v0l0,0a.55.55,0,0,1,0-.12.47.47,0,0,1,.24-.52.48.48,0,0,1,.65.18M289.17,203c-.22,0-1.21,1.77-1.47,2s-1.1,1.08-1.67,1.61-1.23,1-1.86,1.44-3.6,2.05-4.32,2.46a5.09,5.09,0,0,0-1.92,1.61,2.43,2.43,0,0,0-.25,1.63c0,.13.06.27.1.37a1.74,1.74,0,0,0,.38.69,3.82,3.82,0,0,0,.72.54l.67.49c.21.11.36.25.57.37-.41,0-.82,0-1.23,0a5.94,5.94,0,0,1-1-.07,8.6,8.6,0,0,1-1-.23,34.89,34.89,0,0,0-3.83-.55,2.72,2.72,0,0,0-1.12.32,1.86,1.86,0,0,0-.53.58,1.82,1.82,0,0,0-.19.48,3.46,3.46,0,0,0,.15,1.5c-.13,0-.43.32-.49.46a1.91,1.91,0,0,0-.11.48,4.83,4.83,0,0,0,0,.76,2.49,2.49,0,0,1,1.34-.7,15.4,15.4,0,0,1,1.9,0c.2.06.42.12.63.2s.58.26.87.39l.73.32c.18.12.44.24.65.35s2.47,1.37,2.71,1.51a3.44,3.44,0,0,0-1.92.7,2.7,2.7,0,0,0-.69,2.47,2.78,2.78,0,0,0,.9,1.49c0,.05.58.48,1.58,1.25l1.47,1.26a10.91,10.91,0,0,1,2.1,3.2s.15.44.2.62a8.25,8.25,0,0,1,.1,1,1.85,1.85,0,0,0,.07.93c.09.19.58,0,1-.7a2.2,2.2,0,0,0,.36-1s0-.12,0-.23a3.7,3.7,0,0,0,0-1,8.46,8.46,0,0,0-.3-1.11c.11.08.69.88.8,1l.23.1.1,0h.07a.59.59,0,0,0,.18,0,.52.52,0,0,0,.08-.13.55.55,0,0,0,0-.25,3.07,3.07,0,0,0-.09-.44c0-.08-.06-.17-.11-.26s-.08-.19-.13-.28a1.38,1.38,0,0,0-.14-.27.23.23,0,0,0-.06-.1c-.06-.12-.35-.53-.41-.63l.25.31a.91.91,0,0,0,.69.24.56.56,0,0,0,.35-.16l0,0a.71.71,0,0,0,0-.57,2.15,2.15,0,0,0-.3-.74c-.07-.16-.45-.64-.53-.77.08,0,.45.41.52.45h0a.36.36,0,0,0,.57-.05c.1-.11,0-.4-.14-.83a3.58,3.58,0,0,0-.37-.65l-.11-.13,0,0h0c-.05-.06-.23-.24-.28-.3s.16.1.16.1c.22.18.44.35.67.52l.23.1.1,0h.07a.54.54,0,0,0,.18,0,.58.58,0,0,0,.08-.13.55.55,0,0,0,0-.25,3.63,3.63,0,0,0-.09-.44c0-.08-.06-.17-.11-.26s-.08-.19-.13-.28a1.46,1.46,0,0,0-.14-.27.2.2,0,0,0-.06-.1l-.23-.43.08.11a.9.9,0,0,0,.69.24.55.55,0,0,0,.35-.16l0,0a.71.71,0,0,0,0-.57,14.11,14.11,0,0,1-.46-2.55,4.17,4.17,0,0,0,2.66-1.68c.2,0,.38,0,.52,0s.52,0,.75,0,.73.11,1.08.18,5.62,1.82,5.65,1.81a3,3,0,0,0-1.14-2.7,11,11,0,0,0,1.77-2c.13-.3-2.08-.8-2.33-.77.08-.07,1.82-1.85,1.61-2a11.47,11.47,0,0,0-2.78-.44,4.31,4.31,0,0,0,.44-.56,5.34,5.34,0,0,0,.33-.8,8.3,8.3,0,0,0,.06-1.33c0-.14-.26-.76-.28-.87a16.11,16.11,0,0,1-2.45,2.33,22,22,0,0,1-5.61,3.28l-.58-.55a3.3,3.3,0,0,0,.69-.43c.37-.3.53-.6.49-.75s-.21-.35-.48-.31l-.22,0a4.46,4.46,0,0,0,.37-.27,2.12,2.12,0,0,0,.62-.52.71.71,0,0,0,.28-.5.1.1,0,0,0,0,0,.58.58,0,0,0-.23-.3.94.94,0,0,0-.73-.1h0l.32-.22a.22.22,0,0,0,.1-.06,1.94,1.94,0,0,0,.25-.18l.25-.19c.08-.06.15-.13.22-.18a3,3,0,0,0,.29-.35.27.27,0,0,0-.08-.49l-.06,0h-.11c-.08,0-.81.07-1.09.13,0,0,0,0-.1-.09l.18-.08h0l.06,0a6.43,6.43,0,0,0,.79-.47c.37-.3.55-.52.51-.67s-.62-.32-.7-.34a3.53,3.53,0,0,0,.38-.27,2,2,0,0,0,.61-.52.71.71,0,0,0,.28-.5v0a.53.53,0,0,0-.23-.3,1.8,1.8,0,0,0-.76-.1l.32-.22a.25.25,0,0,0,.1-.06,1.58,1.58,0,0,0,.25-.18l.25-.19c.08-.06.15-.13.22-.18a3.26,3.26,0,0,0,.29-.35.59.59,0,0,0,.09-.24.54.54,0,0,0,0-.15.51.51,0,0,0-.15-.1l-.06,0h-.11a6.42,6.42,0,0,0-.73.06c1-2.32.47-3,.43-3.06s-.11-.23-.33-.23"/></g><g data-stop="othello"><path d="M374.44,251.79c0-2.53,1.46-4.09,3.6-4.09s3.62,1.57,3.62,4.09-1.52,4.14-3.62,4.14S374.44,254.3,374.44,251.79Zm6.14,0c0-1.88-.94-3.22-2.56-3.22s-2.5,1.34-2.5,3.22,1,3.27,2.53,3.27S380.58,253.73,380.58,251.79Z"/><path d="M384.23,248.64H381.9v-.78h5.67v.78h-2.33v7.11h-1Z"/><path d="M388.6,247.86h1v3.41h3.86v-3.41h1v7.9h-1v-3.65H389.6v3.65h-1Z"/><path d="M396,247.86h4.7v.78H397v2.59h2.87V252H397v3h3.85v.78H396Z"/><path d="M402.14,247.86h1V255h3.77v.78h-4.78Z"/><path d="M408.08,247.86h1V255h3.77v.78h-4.78Z"/><path d="M413.13,251.79c0-2.53,1.46-4.09,3.6-4.09s3.62,1.57,3.62,4.09-1.52,4.14-3.62,4.14S413.13,254.3,413.13,251.79Zm6.14,0c0-1.88-.94-3.22-2.56-3.22s-2.5,1.34-2.5,3.22,1,3.27,2.53,3.27S419.27,253.73,419.27,251.79Z"/><path d="M374.44,251.79c0-2.53,1.46-4.09,3.6-4.09s3.62,1.57,3.62,4.09-1.52,4.14-3.62,4.14S374.44,254.3,374.44,251.79Zm6.14,0c0-1.88-.94-3.22-2.56-3.22s-2.5,1.34-2.5,3.22,1,3.27,2.53,3.27S380.58,253.73,380.58,251.79Z"/><path d="M384.23,248.64H381.9v-.78h5.67v.78h-2.33v7.11h-1Z"/><path d="M388.6,247.86h1v3.41h3.86v-3.41h1v7.9h-1v-3.65H389.6v3.65h-1Z"/><path d="M396,247.86h4.7v.78H397v2.59h2.87V252H397v3h3.85v.78H396Z"/><path d="M402.14,247.86h1V255h3.77v.78h-4.78Z"/><path d="M408.08,247.86h1V255h3.77v.78h-4.78Z"/><path d="M413.13,251.79c0-2.53,1.46-4.09,3.6-4.09s3.62,1.57,3.62,4.09-1.52,4.14-3.62,4.14S413.13,254.3,413.13,251.79Zm6.14,0c0-1.88-.94-3.22-2.56-3.22s-2.5,1.34-2.5,3.22,1,3.27,2.53,3.27S419.27,253.73,419.27,251.79Z"/><path class="cls-4" d="M418.12,218.48a22.18,22.18,0,1,1-22.18-22.18,22.18,22.18,0,0,1,22.18,22.18"/><path class="cls-3" d="M387.4,208.56l-.1.1a1.18,1.18,0,0,1-1.15,0,1.29,1.29,0,0,1,0-.36c0-.07.07-.13.17-.2.51-.33.91-.27,1.18.13v.2Zm19.75,2.13a.07.07,0,0,1-.07.07c-.54.7-.84,1.13-.95,1.26a3.66,3.66,0,0,1-1.45.73,14,14,0,0,0-1.68.6s-.34,0-.61,0h-1.82a10.84,10.84,0,0,0-1.62.13c-.3,0-.57.1-.91.13a26.08,26.08,0,0,0-2.73.76,26.92,26.92,0,0,1-2.93.76l-1.48,0-.77-6v-.36a3,3,0,0,0,.67-.1,2.94,2.94,0,0,0,1.11-.47s.07-.1.13-.17a2.06,2.06,0,0,0,.27-.46,8.84,8.84,0,0,0,.67-1.36v-.1c-.27.07-.74.1-1.42.17a3.24,3.24,0,0,0-.81.23,1.6,1.6,0,0,0-.5.4c-.13.23-.2.36-.23.36a2.46,2.46,0,0,1-.24-.3v0c0-.3.5-.63,1.48-1,.1,0,.2-.1.4-.17a1.84,1.84,0,0,1,.27-.13s.13-.07.17-.1.2-.13.34-.2a1.67,1.67,0,0,0,.44-.3,1.13,1.13,0,0,0,.24-.34,2.24,2.24,0,0,0,.13-.43,3.67,3.67,0,0,0,.13-.53,3.79,3.79,0,0,0,0-.63.71.71,0,0,1,0-.27c-.1-.33-.24-.5-.41-.46s-.13.07-.2.13a.85.85,0,0,0-.1.56,3.41,3.41,0,0,1,0,.57,1.41,1.41,0,0,1-.13.53.76.76,0,0,1-.3.27l-.24.16a5.83,5.83,0,0,0,.07-.7c0-.23,0-.46-.07-.6a1.19,1.19,0,0,0-.07-.4,1.45,1.45,0,0,0-.2-.4,3,3,0,0,0-.34-.57,1.43,1.43,0,0,0-.27-.33,1.64,1.64,0,0,0-.27-.23l-.47.17a4.15,4.15,0,0,1,.74,2.79,3.49,3.49,0,0,1-.27.66,1.74,1.74,0,0,1-.13.17l-.84.5a1.65,1.65,0,0,0-.37.26c-.1.07-.23.2-.4.34a1.39,1.39,0,0,1-.17-.44,2.66,2.66,0,0,1,.23-.2,3.57,3.57,0,0,1,.47-.37,1,1,0,0,0,.31-.5,1.07,1.07,0,0,0,0-.57c-.07-.2-.13-.36-.2-.53a4.55,4.55,0,0,0-.3-.5l-.3.13s0,.13,0,.2a1.76,1.76,0,0,1,0,.83,2.38,2.38,0,0,1-.3.53.27.27,0,0,1-.14.07h0s-.1,0-.1,0a.73.73,0,0,1-.37-.4,1.62,1.62,0,0,1-.17-.36c0-.2-.07-.36-.1-.53s-.07-.33-.1-.5a1.88,1.88,0,0,1,.06-.67l0-.07-.47-.1A2.61,2.61,0,0,0,387,204a3.22,3.22,0,0,0,.17.63.67.67,0,0,0,.14.27,4.68,4.68,0,0,0,.23.46,2.33,2.33,0,0,1,.17.83c0,.1,0,.1-.07.1s-.54-.73-.57-.73l-.34.3.23,1-1.08.43a2.84,2.84,0,0,0-.67.73,1.77,1.77,0,0,1-.88.67c-.37.16-.77.26-1.18.4a4.85,4.85,0,0,0-1,.44l.4.8,0,.46,3.84.07L385,218.63l.23,2.43-2.86.73c-.1.56-.2,1.19-.3,1.76,0,0-.1.67-.14,1a6.33,6.33,0,0,0-.1.8,3.72,3.72,0,0,0,0,.63,1.24,1.24,0,0,0,.2.56,6.12,6.12,0,0,0,.67.67,3.4,3.4,0,0,0,1.58.8c.68.2,1.38.33,2.09.53l.37-.2-1.21-1.73-1.21.37.2-.43-.94-.27a2.47,2.47,0,0,1-.27-.63,1.75,1.75,0,0,1-.14-.73,4.37,4.37,0,0,1,.6-2h5.09V223c-.2.6-.44,1.2-.67,1.73a8.25,8.25,0,0,0-.78,3.46c0,.34,0,.7,0,1.1a12.32,12.32,0,0,1-.37,1.86,1.25,1.25,0,0,0-.07.36,4,4,0,0,0,.07.67,4.42,4.42,0,0,0,.2.7,22.65,22.65,0,0,0,.54,2.46,1,1,0,0,0,.1.17s0,0,.07,0,0,0,.07,0a5,5,0,0,0,.88-1.33,10.22,10.22,0,0,0,.07-1.4l-.74-.5a2.31,2.31,0,0,0,.34-.83,3.13,3.13,0,0,0,0-.8,6.21,6.21,0,0,1,.17-1.53,1.87,1.87,0,0,0,.1-.46,10.38,10.38,0,0,1,.37-1.66,2.14,2.14,0,0,1,.37-.73,3.27,3.27,0,0,1,.4-.5,14.05,14.05,0,0,0,1.62-2.09,4.92,4.92,0,0,0,.41-.83,3.1,3.1,0,0,0,.27-.56s2.33-.53,2.43-.57a2.59,2.59,0,0,0,.54-.13,9.29,9.29,0,0,0,1.11-.37l3.07-1.73c.3.17.57.36.84.53a3.74,3.74,0,0,0,.64.33c.37.13.74.24,1.11.33s.74-.1,1.15-.13l3.37-.63.1,2.23a2.78,2.78,0,0,1,.1.4,3,3,0,0,0,.54,1,4.6,4.6,0,0,0,.94.63l1,.3-.57-2.43-.44.43-.4,0,.34-2.83c.13.07.51.33.57.36.34.33.71.67,1,1l1.42,1.26c.23.23.5.43.74.63a3.58,3.58,0,0,0,.37.33c.14,0,.24.1.4.13.4.13.78.23,1.18.34.2,0,.4,0,.58.07a3.59,3.59,0,0,1,.6-.07l.27-.3-1.55-1.46-1,.43-3.94-5.19-.67.27-.17-1.76-2.46,1.49-.71-.33s0,0,0-.07c-.07-.2-.1-.4-.13-.53a4.5,4.5,0,0,0-.23-.87c-.07-.13-.23-.66-.23-.66a6.8,6.8,0,0,0,1.21,0,2.27,2.27,0,0,0,1.92-1.4,2.86,2.86,0,0,0,.27-1.53,3,3,0,0,0-.37-1Z"/></g><g data-stop="rainier" data-name="Rainier Beach"><path d="M376.91,343h2.57c1.63,0,2.8.67,2.8,2.24a2,2,0,0,1-2.06,2,1.56,1.56,0,0,1,1,.85l1.57,2.77h-1.19l-1.24-2.32a1.5,1.5,0,0,0-1.44-1h-1v3.32h-1Zm2.59,3.77c1,0,1.7-.46,1.7-1.51s-.67-1.48-1.72-1.48h-1.57v3Z"/><path d="M386.15,343h.93l2.78,7.9h-1.05l-.71-2.12h-3l-.7,2.13h-1Zm1.69,5c-.41-1.29-.83-2.5-1.24-3.87-.39,1.33-.84,2.58-1.26,3.87Z"/><path d="M391,343h1v7.9h-1Z"/><path d="M393.7,343h1.17c1.38,2.39,2.64,4.52,3.77,6.55-.06-2.23,0-4.37,0-6.55h1v7.9h-1.16c-1.28-2.2-2.72-4.66-3.77-6.55,0,2.24,0,4.37,0,6.55h-1Z"/><path d="M401.22,343h1v7.9h-1Z"/><path d="M403.9,343h4.7v.78H404.9v2.59h2.87v.78H404.9v3h3.85v.78H403.9Z"/><path d="M410,343h2.57c1.63,0,2.8.67,2.8,2.24a2,2,0,0,1-2.06,2,1.56,1.56,0,0,1,1,.85l1.57,2.77h-1.19l-1.24-2.32a1.5,1.5,0,0,0-1.44-1h-1v3.32h-1Zm2.59,3.77c1,0,1.7-.46,1.7-1.51s-.67-1.48-1.72-1.48H411v3Z"/><path d="M380.85,356.47h2.66c1.3,0,2.56.47,2.56,2a1.76,1.76,0,0,1-1.62,1.79,1.93,1.93,0,0,1,1.86,2c0,1.62-1.15,2.17-2.7,2.17h-2.76Zm2.3,3.39c.87,0,1.86-.15,1.86-1.36,0-1-.78-1.24-1.68-1.24h-1.48v2.61Zm.3,3.72c.9,0,1.78-.31,1.78-1.5s-.94-1.45-1.9-1.45h-1.48v3Z"/><path d="M387.57,356.47h4.7v.78h-3.69v2.59h2.87v.78h-2.87v3h3.85v.78h-4.85Z"/><path d="M396,356.47h.93l2.79,7.9h-1.05l-.71-2.12h-3l-.7,2.13h-1Zm1.69,5c-.41-1.29-.83-2.5-1.24-3.87-.39,1.33-.84,2.58-1.26,3.87Z"/><path d="M406.85,362.7a3.23,3.23,0,0,1-3.13,1.83c-2.36,0-3.6-1.81-3.6-4.15s1.28-4.08,3.6-4.08a3.34,3.34,0,0,1,3.07,1.64l-1,.48a2.31,2.31,0,0,0-2.11-1.25c-1.68,0-2.54,1.42-2.54,3.21s.89,3.28,2.54,3.28a2.2,2.2,0,0,0,2.18-1.44Z"/><path d="M408.08,356.47h1v3.41h3.86v-3.41h1v7.9h-1v-3.65h-3.86v3.65h-1Z"/><path d="M376.91,343h2.57c1.63,0,2.8.67,2.8,2.24a2,2,0,0,1-2.06,2,1.56,1.56,0,0,1,1,.85l1.57,2.77h-1.19l-1.24-2.32a1.5,1.5,0,0,0-1.44-1h-1v3.32h-1Zm2.59,3.77c1,0,1.7-.46,1.7-1.51s-.67-1.48-1.72-1.48h-1.57v3Z"/><path d="M386.15,343h.93l2.78,7.9h-1.05l-.71-2.12h-3l-.7,2.13h-1Zm1.69,5c-.41-1.29-.83-2.5-1.24-3.87-.39,1.33-.84,2.58-1.26,3.87Z"/><path d="M391,343h1v7.9h-1Z"/><path d="M393.7,343h1.17c1.38,2.39,2.64,4.52,3.77,6.55-.06-2.23,0-4.37,0-6.55h1v7.9h-1.16c-1.28-2.2-2.72-4.66-3.77-6.55,0,2.24,0,4.37,0,6.55h-1Z"/><path d="M401.22,343h1v7.9h-1Z"/><path d="M403.9,343h4.7v.78H404.9v2.59h2.87v.78H404.9v3h3.85v.78H403.9Z"/><path d="M410,343h2.57c1.63,0,2.8.67,2.8,2.24a2,2,0,0,1-2.06,2,1.56,1.56,0,0,1,1,.85l1.57,2.77h-1.19l-1.24-2.32a1.5,1.5,0,0,0-1.44-1h-1v3.32h-1Zm2.59,3.77c1,0,1.7-.46,1.7-1.51s-.67-1.48-1.72-1.48H411v3Z"/><path d="M380.85,356.47h2.66c1.3,0,2.56.47,2.56,2a1.76,1.76,0,0,1-1.62,1.79,1.93,1.93,0,0,1,1.86,2c0,1.62-1.15,2.17-2.7,2.17h-2.76Zm2.3,3.39c.87,0,1.86-.15,1.86-1.36,0-1-.78-1.24-1.68-1.24h-1.48v2.61Zm.3,3.72c.9,0,1.78-.31,1.78-1.5s-.94-1.45-1.9-1.45h-1.48v3Z"/><path d="M387.57,356.47h4.7v.78h-3.69v2.59h2.87v.78h-2.87v3h3.85v.78h-4.85Z"/><path d="M396,356.47h.93l2.79,7.9h-1.05l-.71-2.12h-3l-.7,2.13h-1Zm1.69,5c-.41-1.29-.83-2.5-1.24-3.87-.39,1.33-.84,2.58-1.26,3.87Z"/><path d="M406.85,362.7a3.23,3.23,0,0,1-3.13,1.83c-2.36,0-3.6-1.81-3.6-4.15s1.28-4.08,3.6-4.08a3.34,3.34,0,0,1,3.07,1.64l-1,.48a2.31,2.31,0,0,0-2.11-1.25c-1.68,0-2.54,1.42-2.54,3.21s.89,3.28,2.54,3.28a2.2,2.2,0,0,0,2.18-1.44Z"/><path d="M408.08,356.47h1v3.41h3.86v-3.41h1v7.9h-1v-3.65h-3.86v3.65h-1Z"/><path class="cls-4" d="M418.12,315.22A22.18,22.18,0,1,1,395.94,293a22.18,22.18,0,0,1,22.18,22.18"/><path class="cls-3" d="M410.28,306.28l.23-.89a4.92,4.92,0,0,0-2.33,1.47,10.67,10.67,0,0,1-1.72.42,3.76,3.76,0,0,0-1.55,1c-.37.31-1.05,1.11-1.1,1.16a5.29,5.29,0,0,1-.91.22c-.73.22-2.51.8-2.75.89a17.8,17.8,0,0,0-2.3,1.38c.54.8,2.39,3.44,3.93,3.31a4,4,0,0,0,2.08-.82c.19-.22,1.21-1.33,1.21-1.33.37-.31.65-.9.93-1.08a9.17,9.17,0,0,1,1-.62,6.12,6.12,0,0,1,1.24-.49c.46-.18,1-.36,1.64-.63s1.1-.4,1.55-.53,1-.4,1.28-.53c0,0,1.14-.8,1.37-.94a10.28,10.28,0,0,0,2-2.45c.32-.58.69-1.2,1-1.78a11.39,11.39,0,0,0-2.74,1.91c0,.09-.14.13-.23.23.23-.45.78-2.1.78-2.1-.27,0-.78.31-1.46,1a10,10,0,0,1-1.1.89l.32-1Z"/><path class="cls-3" d="M406.92,315.53c-.35,0-.5-.12-.5-.38s.23-.45.62-.45.42.11.42.37-.19.45-.54.45m-15.14,7.27a30.45,30.45,0,0,1-3.89,2.34,2.91,2.91,0,0,0-.67-.08c-.19,0-1.42.32-1.58.32,0,0,1.07-.71,1.22-.82.38-.22,1.2-.76,1.62-1,.12-.08,1.85-1.16,2.31-1.39a7.53,7.53,0,0,1,1.52-.53h.23l.27.07c.45.26.62.29.94.5a15.15,15.15,0,0,1-2,.61m21.76-7.2a4.56,4.56,0,0,0-1-.6,9.67,9.67,0,0,0-1.15-.23,10.83,10.83,0,0,0-2.89-.07c0-.12-.42-.57-.46-.64a3.81,3.81,0,0,0-1-.11,4.56,4.56,0,0,0-3,1.16c-.08,0-.42.38-.65.57-.08,0-1.47.41-1.7.41a3.1,3.1,0,0,1-.81-.06l.86.67,1.34-.12c-.23.19-.64.38-.87.57l.31.3c.07,0,1.77-.54,1.85-.58a1.45,1.45,0,0,0,.27.58c.12.12.65.54.65.54a1.35,1.35,0,0,1,.76,1.27c0,.34-.5,1.05-1.39.49a2.76,2.76,0,0,1-.76-1l-2.28-1.62c-.31-.18-1.81-1.74-1.9-1.82A13.58,13.58,0,0,1,398.4,314a11.67,11.67,0,0,1-1.35-1.87,11,11,0,0,0-3.5-4.36,18,18,0,0,0-3.83-1.9,19.13,19.13,0,0,1-1.88-.69,10.63,10.63,0,0,1-1.21-.51l-1.22-.6a37.57,37.57,0,0,1-4.28-2.59c-.41,1.1,1.53,2.65,1.39,2.62a6.59,6.59,0,0,1-2.69-1A9,9,0,0,0,381,304.9a6,6,0,0,0,1.79,1,15.12,15.12,0,0,1-3.31-.23,7.27,7.27,0,0,0,1,.92,5.08,5.08,0,0,0,2.11.83c-.24.08-3.13.32-3.21.32a10.15,10.15,0,0,0,1.39.89,5,5,0,0,0,1.94.38,6.56,6.56,0,0,1-1.53,1,6.35,6.35,0,0,0,2.22.21c.08,0,.16-.08.24-.08s0,0,0,.08a2.23,2.23,0,0,0-.32.6s0,.12.12.28a1.53,1.53,0,0,0,.69.24,1.88,1.88,0,0,0,.9-.12c.12,0,.12,0,0,.16a1.34,1.34,0,0,0-.33.56c0,.08.12.16.29.32a1.81,1.81,0,0,0,.93.36,1.43,1.43,0,0,0,1-.2s0,0,0,0a1.25,1.25,0,0,0-.28.48s.08.16.28.32a2.06,2.06,0,0,0,.9.4h.73a.52.52,0,0,0-.16.28V314c0,.08.08.12.12.2a2.72,2.72,0,0,0,1.26.48.89.89,0,0,0,.53-.08.06.06,0,0,1,0,.08c-.25.28-.41.56-.37.64s.08.12.16.2a1.68,1.68,0,0,0,.9.4,1.81,1.81,0,0,0,.65,0,.48.48,0,0,0-.17.44.53.53,0,0,0,.08.44,1.4,1.4,0,0,0,.89.44,1.75,1.75,0,0,0,.78,0c.12,0,.16,0,.12.08a2.53,2.53,0,0,0-.41.52v.12s0,0,0,.12a1.22,1.22,0,0,0,.65.32c.1,0,1.32.27,1.48.26a19.23,19.23,0,0,0-6.14,1.55,3,3,0,0,1-.47,1.2s1.9-1,1.94-.93a12,12,0,0,1-2,1.55c.08.11,2.32-.76,2.36-.69-.5.34-4.38,3-4.65,3a6.77,6.77,0,0,0-3.55.72l1-.12-1,.84,1.48-.51a16,16,0,0,0-1.12,1.16h0s1.15-.41,1.38-.53l1-.26-1.19,1.09,1.14-.21-.6.66c.84-.26,1.66-.53,2.46-.82a8.67,8.67,0,0,0,1.69-.83,1.65,1.65,0,0,0,.35-.19c.27-.19.58-.37.89-.56.89-.57,1.58-1,2.12-1.28a4.65,4.65,0,0,1,1.38-.52,5.28,5.28,0,0,1,1.12-.11c4,1.63,7.78-1.37,8-1.48,0,0,4.5,3.1,5.75-.9a5.94,5.94,0,0,0-1.1-3.16,4.81,4.81,0,0,0,1.45-.7,12.85,12.85,0,0,0,4.73-1"/></g><g data-stop="tukwila"><path d="M263.65,344.83h-2.34V344H267v.78h-2.33v7.11h-1Z"/><path d="M268,344h1v5.09c0,1.44.72,2.1,1.9,2.1s1.91-.67,1.91-2.07V344h1v5.19a2.91,2.91,0,0,1-5.83,0Z"/><path d="M275.4,344h1v4.09L280,344h1.2l-2.91,3.27,3.27,4.63h-1.19l-2.74-3.88-1.21,1.35v2.53h-1Z"/><path d="M282,344h1.07c.51,2.14,1.16,4.64,1.61,6.57.42-1.81,1.16-4.44,1.77-6.57h.86c.65,2.36,1.38,4.73,1.83,6.55.39-1.92,1-4.08,1.55-6.55h1.06l-2.16,7.9h-1c-.65-2.29-1.33-4.49-1.81-6.38-.45,1.91-1.14,4.32-1.72,6.38h-1Z"/><path d="M292.94,344h1v7.9h-1Z"/><path d="M295.61,344h1v7.11h3.77v.78h-4.78Z"/><path d="M303.86,344h.93l2.79,7.9h-1.05l-.71-2.12h-3l-.7,2.13h-1Zm1.69,5c-.41-1.29-.83-2.5-1.24-3.87-.39,1.33-.84,2.58-1.26,3.87Z"/><path d="M258.74,357.47h1v7.9h-1Z"/><path d="M261.41,357.47h1.17c1.38,2.39,2.64,4.52,3.77,6.55-.06-2.23,0-4.37,0-6.55h1v7.9H266.1c-1.28-2.2-2.72-4.66-3.77-6.55,0,2.24,0,4.37,0,6.55h-1Z"/><path d="M270.64,358.25H268.3v-.78H274v.78h-2.33v7.11h-1Z"/><path d="M274.84,359.52a.8.8,0,0,0,.5-.84v-.15h-.49v-1.06h1.05v1.16a1.24,1.24,0,0,1-.85,1.33Z"/><path d="M277.32,357.47h1v7.11h3.77v.78h-4.78Z"/><path d="M285.77,357.47h2.66c1.3,0,2.56.47,2.56,2a1.76,1.76,0,0,1-1.62,1.79,1.93,1.93,0,0,1,1.86,2c0,1.62-1.15,2.17-2.7,2.17h-2.76Zm2.3,3.39c.87,0,1.86-.15,1.86-1.36,0-1-.78-1.24-1.68-1.24h-1.48v2.61Zm.3,3.72c.9,0,1.78-.31,1.78-1.5s-.94-1.45-1.9-1.45h-1.48v3Z"/><path d="M292.49,357.47h1v7.11h3.77v.78h-4.78Z"/><path d="M296.7,357.47h1.07c.76,2.33,1.6,4.73,2.21,6.77.62-2.06,1.44-4.44,2.2-6.77h1.05l-2.8,7.9h-1Z"/><path d="M304.24,357.47h2.38c2.72,0,4,1.33,4,4s-1.3,3.94-3.85,3.94h-2.5Zm2.43,7.11c2.16,0,2.85-1.32,2.85-3.18s-.66-3.15-3-3.15h-1.32v6.33Z"/><path d="M263.65,344.83h-2.34V344H267v.78h-2.33v7.11h-1Z"/><path d="M268,344h1v5.09c0,1.44.72,2.1,1.9,2.1s1.91-.67,1.91-2.07V344h1v5.19a2.91,2.91,0,0,1-5.83,0Z"/><path d="M275.4,344h1v4.09L280,344h1.2l-2.91,3.27,3.27,4.63h-1.19l-2.74-3.88-1.21,1.35v2.53h-1Z"/><path d="M282,344h1.07c.51,2.14,1.16,4.64,1.61,6.57.42-1.81,1.16-4.44,1.77-6.57h.86c.65,2.36,1.38,4.73,1.83,6.55.39-1.92,1-4.08,1.55-6.55h1.06l-2.16,7.9h-1c-.65-2.29-1.33-4.49-1.81-6.38-.45,1.91-1.14,4.32-1.72,6.38h-1Z"/><path d="M292.94,344h1v7.9h-1Z"/><path d="M295.61,344h1v7.11h3.77v.78h-4.78Z"/><path d="M303.86,344h.93l2.79,7.9h-1.05l-.71-2.12h-3l-.7,2.13h-1Zm1.69,5c-.41-1.29-.83-2.5-1.24-3.87-.39,1.33-.84,2.58-1.26,3.87Z"/><path d="M258.74,357.47h1v7.9h-1Z"/><path d="M261.41,357.47h1.17c1.38,2.39,2.64,4.52,3.77,6.55-.06-2.23,0-4.37,0-6.55h1v7.9H266.1c-1.28-2.2-2.72-4.66-3.77-6.55,0,2.24,0,4.37,0,6.55h-1Z"/><path d="M270.64,358.25H268.3v-.78H274v.78h-2.33v7.11h-1Z"/><path d="M274.84,359.52a.8.8,0,0,0,.5-.84v-.15h-.49v-1.06h1.05v1.16a1.24,1.24,0,0,1-.85,1.33Z"/><path d="M277.32,357.47h1v7.11h3.77v.78h-4.78Z"/><path d="M285.77,357.47h2.66c1.3,0,2.56.47,2.56,2a1.76,1.76,0,0,1-1.62,1.79,1.93,1.93,0,0,1,1.86,2c0,1.62-1.15,2.17-2.7,2.17h-2.76Zm2.3,3.39c.87,0,1.86-.15,1.86-1.36,0-1-.78-1.24-1.68-1.24h-1.48v2.61Zm.3,3.72c.9,0,1.78-.31,1.78-1.5s-.94-1.45-1.9-1.45h-1.48v3Z"/><path d="M292.49,357.47h1v7.11h3.77v.78h-4.78Z"/><path d="M296.7,357.47h1.07c.76,2.33,1.6,4.73,2.21,6.77.62-2.06,1.44-4.44,2.2-6.77h1.05l-2.8,7.9h-1Z"/><path d="M304.24,357.47h2.38c2.72,0,4,1.33,4,4s-1.3,3.94-3.85,3.94h-2.5Zm2.43,7.11c2.16,0,2.85-1.32,2.85-3.18s-.66-3.15-3-3.15h-1.32v6.33Z"/><path class="cls-4" d="M305.84,315.22A22.18,22.18,0,1,1,283.66,293a22.18,22.18,0,0,1,22.18,22.18"/><path class="cls-3" d="M289.89,308.94a.72.72,0,0,0-.31-.32l-.14-.08h0l-.29-.14-.15-.07-.11-.06-.3-.17-.15-.07a.67.67,0,0,0-.5,0h0a.54.54,0,0,0-.15.1c-.22.21-.08.7,0,.95v0c.07.15-1.78,3.87-1.84,4s-5.42,10.19-5.42,10.19-.62.2-1,.38-.54.13-2.25,4.11c0,.08-.22.51-.27.64l-.43,1.05c-1,2.07-.39,2.68-.15,2.83h0l0,0h0l.34.17s1,.71,2.27-1.78l.58-1c.07-.12.31-.52.35-.6,2.16-3.77,2-3.87,1.93-4.27s-.32-.91-.29-1l2.44-4.8c1.36-2.6,2.81-5.37,2.84-5.45s2-3.79,2.19-3.82h0c.25-.07.73-.25.78-.54a.52.52,0,0,0,0-.24v0h0"/><path class="cls-3" d="M274.34,309.84a8.82,8.82,0,0,1-1.33-.63,12.54,12.54,0,0,1-1.9-1.4c-.35-.31-.95-.9-1.86-1.87-.64-.62-1.06-1.09-1.34-1.33a1,1,0,0,0-.35-.08.74.74,0,0,0-.28,0c-.1.07-.9.64-.9.68a2,2,0,0,1,1,.34c.35.3.38.73.59,1.12l.95,1.88a18.29,18.29,0,0,0,1.58,2.42c.07,0,.6-.43,2,.21l.47.17a9.07,9.07,0,0,0-1.09,1.22l2.28,1.24s.75-.81,1.26-1.44c.37.16.62.27.62.28a58.55,58.55,0,0,0,8.29,2.17l1-2,.18-.37-2.22-.36a40.54,40.54,0,0,1-8.9-2.33"/><path class="cls-3" d="M300.57,313.77h-.07c-7.7-.19-12.54-.82-12.54-.82a18.14,18.14,0,0,0-1.24,2.19c2.56.35,5.07.52,7.2.62-.36.88-.78,2.19-.78,2.19a15,15,0,0,0,3.34-.11s.32-1.09.46-1.94a23,23,0,0,0,2.81-.08s.8-2,.81-2"/><path class="cls-3" d="M279.26,316.42h0s-7.3-2.44-9.11-4.59a16.41,16.41,0,0,1-2.67-5c-.43-1.48-1.45-1.27-1.45-1.27-.28.1-.47.5-.47.5a2.79,2.79,0,0,0,.31.64c.42.66.81,1.25,1.09,1.71A26.47,26.47,0,0,1,268.4,311c.28.47.84,1.48,1.62,3.12.35.78,1.35,2.6,1.35,2.6.56.35,1.62.93,3.16,1.72.6.31,2.9,1.27,3.1,1.34A15.43,15.43,0,0,0,281,321l1.83-3.45c-1-.26-3.06-1-3.56-1.09"/><path class="cls-3" d="M303.55,319.68c0-.4,0-1,0-1.82,0-1.17,0-2.07,0-2.73-.07-.9-.3-3.42-.35-3.7s-1,.15-1.19.27-2.28,5.58-2.32,5.74a.72.72,0,0,1-.37.23,20.06,20.06,0,0,1-2.61.71c-.53.08-1.05.16-1.54.19h-2.92a56.54,56.54,0,0,1-6.88-.62c-.08,0-1.84,3.59-1.84,3.59,1.1.21,1.91.25,3.47.48,0,0,9.81.61,15.69-1.36h0a1.87,1.87,0,0,0,.88-1"/></g><g data-stop="seatac"><path d="M152,351.12a2.72,2.72,0,0,0,2.34,1.15c1,0,1.79-.56,1.79-1.46s-.91-1.17-2.1-1.51c-1.35-.38-2.35-.93-2.35-2.23s1.11-2.19,2.67-2.19a3.59,3.59,0,0,1,2.7,1.08l-.68.64a2.72,2.72,0,0,0-2-.88c-1,0-1.62.41-1.62,1.24s.78,1.16,1.88,1.46c1.66.45,2.56,1,2.56,2.27,0,1.53-1.28,2.42-2.84,2.42a3.43,3.43,0,0,1-3-1.32Z"/><path d="M158.41,345h4.7v.78h-3.69v2.59h2.88v.78h-2.87v3h3.85v.78h-4.85Z"/><path d="M166.82,345h.93l2.79,7.9h-1.05l-.71-2.12h-3l-.7,2.13h-1Zm1.69,5c-.41-1.29-.83-2.51-1.24-3.87-.39,1.33-.84,2.58-1.26,3.87Z"/><path d="M172.46,345.83h-2.34V345h5.67v.78h-2.33v7.11h-1Z"/><path d="M178.19,345h.93l2.79,7.9h-1.05l-.71-2.12h-3l-.7,2.13h-1Zm1.69,5c-.41-1.29-.83-2.51-1.24-3.87-.39,1.33-.84,2.58-1.26,3.87Z"/><path d="M189.06,351.28a3.23,3.23,0,0,1-3.13,1.83c-2.36,0-3.6-1.81-3.6-4.15s1.28-4.08,3.6-4.08a3.34,3.34,0,0,1,3.07,1.64l-1,.48a2.31,2.31,0,0,0-2.11-1.25c-1.68,0-2.54,1.42-2.54,3.21s.89,3.28,2.54,3.28a2.2,2.2,0,0,0,2.18-1.44Z"/><path d="M151.18,358.47h.93l2.79,7.9h-1.05l-.71-2.12h-3l-.7,2.13h-1Zm1.69,5c-.41-1.29-.83-2.51-1.24-3.87-.39,1.33-.84,2.58-1.26,3.87Z"/><path d="M156.06,358.47h1v7.9h-1Z"/><path d="M158.73,358.47h2.57c1.63,0,2.8.67,2.8,2.24a2,2,0,0,1-2.06,2,1.56,1.56,0,0,1,1,.85l1.57,2.77h-1.19L162.15,364a1.5,1.5,0,0,0-1.44-1h-1v3.32h-1Zm2.59,3.77c1,0,1.7-.46,1.7-1.51s-.67-1.48-1.72-1.48h-1.57v3Z"/><path d="M165.67,358.47h2.65c1.59,0,2.74.69,2.74,2.29,0,1.8-1.19,2.45-2.73,2.45h-1.66v3.15h-1Zm2.49,3.94c1.15,0,1.83-.46,1.83-1.64s-.78-1.51-1.8-1.51h-1.52v3.15Z"/><path d="M171.92,362.39c0-2.53,1.46-4.09,3.6-4.09s3.62,1.57,3.62,4.09-1.52,4.14-3.62,4.14S171.92,364.91,171.92,362.39Zm6.14,0c0-1.88-.94-3.22-2.56-3.22s-2.5,1.34-2.5,3.22,1,3.27,2.53,3.27S178.06,364.34,178.06,362.39Z"/><path d="M180.39,358.47H183c1.63,0,2.8.67,2.8,2.24a2,2,0,0,1-2.06,2,1.56,1.56,0,0,1,1,.85l1.57,2.77h-1.19L183.82,364a1.5,1.5,0,0,0-1.44-1h-1v3.32h-1Zm2.59,3.77c1,0,1.7-.46,1.7-1.51s-.67-1.48-1.72-1.48H181.4v3Z"/><path d="M188.79,359.25h-2.34v-.78h5.67v.78H189.8v7.11h-1Z"/><path d="M152,351.12a2.72,2.72,0,0,0,2.34,1.15c1,0,1.79-.56,1.79-1.46s-.91-1.17-2.1-1.51c-1.35-.38-2.35-.93-2.35-2.23s1.11-2.19,2.67-2.19a3.59,3.59,0,0,1,2.7,1.08l-.68.64a2.72,2.72,0,0,0-2-.88c-1,0-1.62.41-1.62,1.24s.78,1.16,1.88,1.46c1.66.45,2.56,1,2.56,2.27,0,1.53-1.28,2.42-2.84,2.42a3.43,3.43,0,0,1-3-1.32Z"/><path d="M158.41,345h4.7v.78h-3.69v2.59h2.88v.78h-2.87v3h3.85v.78h-4.85Z"/><path d="M166.82,345h.93l2.79,7.9h-1.05l-.71-2.12h-3l-.7,2.13h-1Zm1.69,5c-.41-1.29-.83-2.51-1.24-3.87-.39,1.33-.84,2.58-1.26,3.87Z"/><path d="M172.46,345.83h-2.34V345h5.67v.78h-2.33v7.11h-1Z"/><path d="M178.19,345h.93l2.79,7.9h-1.05l-.71-2.12h-3l-.7,2.13h-1Zm1.69,5c-.41-1.29-.83-2.51-1.24-3.87-.39,1.33-.84,2.58-1.26,3.87Z"/><path d="M189.06,351.28a3.23,3.23,0,0,1-3.13,1.83c-2.36,0-3.6-1.81-3.6-4.15s1.28-4.08,3.6-4.08a3.34,3.34,0,0,1,3.07,1.64l-1,.48a2.31,2.31,0,0,0-2.11-1.25c-1.68,0-2.54,1.42-2.54,3.21s.89,3.28,2.54,3.28a2.2,2.2,0,0,0,2.18-1.44Z"/><path d="M151.18,358.47h.93l2.79,7.9h-1.05l-.71-2.12h-3l-.7,2.13h-1Zm1.69,5c-.41-1.29-.83-2.51-1.24-3.87-.39,1.33-.84,2.58-1.26,3.87Z"/><path d="M156.06,358.47h1v7.9h-1Z"/><path d="M158.73,358.47h2.57c1.63,0,2.8.67,2.8,2.24a2,2,0,0,1-2.06,2,1.56,1.56,0,0,1,1,.85l1.57,2.77h-1.19L162.15,364a1.5,1.5,0,0,0-1.44-1h-1v3.32h-1Zm2.59,3.77c1,0,1.7-.46,1.7-1.51s-.67-1.48-1.72-1.48h-1.57v3Z"/><path d="M165.67,358.47h2.65c1.59,0,2.74.69,2.74,2.29,0,1.8-1.19,2.45-2.73,2.45h-1.66v3.15h-1Zm2.49,3.94c1.15,0,1.83-.46,1.83-1.64s-.78-1.51-1.8-1.51h-1.52v3.15Z"/><path d="M171.92,362.39c0-2.53,1.46-4.09,3.6-4.09s3.62,1.57,3.62,4.09-1.52,4.14-3.62,4.14S171.92,364.91,171.92,362.39Zm6.14,0c0-1.88-.94-3.22-2.56-3.22s-2.5,1.34-2.5,3.22,1,3.27,2.53,3.27S178.06,364.34,178.06,362.39Z"/><path d="M180.39,358.47H183c1.63,0,2.8.67,2.8,2.24a2,2,0,0,1-2.06,2,1.56,1.56,0,0,1,1,.85l1.57,2.77h-1.19L183.82,364a1.5,1.5,0,0,0-1.44-1h-1v3.32h-1Zm2.59,3.77c1,0,1.7-.46,1.7-1.51s-.67-1.48-1.72-1.48H181.4v3Z"/><path d="M188.79,359.25h-2.34v-.78h5.67v.78H189.8v7.11h-1Z"/><path class="cls-4" d="M192.19,315.22A22.18,22.18,0,1,1,170,293a22.18,22.18,0,0,1,22.18,22.18"/><path class="cls-3" d="M186,312.41a3.71,3.71,0,0,0-.47-2.06l-1.13.53h0a3.71,3.71,0,0,0,1.37,1.61Z"/><path class="cls-3" d="M184.76,313.29a3.71,3.71,0,0,0-.47-2.06l-1.13.53h0a3.71,3.71,0,0,0,1.37,1.61Z"/><path class="cls-3" d="M183.52,314.21a3.72,3.72,0,0,0-.46-2.06l-1.13.53h0a3.74,3.74,0,0,0,1.37,1.61Z"/><path class="cls-3" d="M182.26,315.17a3.72,3.72,0,0,0-.46-2.06l-1.13.53h0a3.72,3.72,0,0,0,1.37,1.61Z"/><path class="cls-3" d="M181,316a3.7,3.7,0,0,0-.63-2l-1.08.62h0a3.7,3.7,0,0,0,1.49,1.5Z"/><path class="cls-3" d="M179.55,316.91a3.73,3.73,0,0,0-.64-2l-1.08.63h0a3.72,3.72,0,0,0,1.5,1.49Z"/><path class="cls-3" d="M168.73,304.31a8.29,8.29,0,0,1,3.74,3.25l.21.29c.26.34.87,1.32,1.46,2.26.36.58.76,1.13,1,1.52.68,1,2.27,3,2.34,3.08l.46-.5-2.18-3.09c-.25-.39-.6-.94-1-1.52-.6-1-1.21-1.94-1.49-2.3l-.19-.27a8.81,8.81,0,0,0-4-3.47,5.93,5.93,0,0,0-4.07,0l-1.41.84,1-.24a7.48,7.48,0,0,1,4.09.13"/><path class="cls-3" d="M175,317.69h0l1.08-.63a3.67,3.67,0,0,1,.64,2l-.21.12a3.67,3.67,0,0,1-1.5-1.48m11.71-3.17s-9.23,7.17-9.25,7.17a2,2,0,0,0-.17-.44l9.2-7.37s-.31-.9-.37-1.09c0,0-9.33,7.45-9.47,7.58,0,0-.51-.8-.48-.76l2.72-1.92-1.13-1a3.91,3.91,0,0,1,.3,1.35l-.21.12a3.73,3.73,0,0,1-1.5-1.48h0l.86-.5-.22-.2c-.2-.21-1.58-1.84-1.72-2-.39-.52-.64-.9-.81-1.17-.05-.11-.64-1-.69-1.09-.44-.74-.81-1.36-1.14-1.91-.05-.08-2.08-3.05-3.55-4a6.92,6.92,0,0,0-4.88-1c-.17.05-.88.22-1.05.27s-1.16.87-1.75,1.31-1.11,1-1.44,1.25a25.52,25.52,0,0,1-2.58,1.74,9.47,9.47,0,0,1,1,.11,7.38,7.38,0,0,1,3.71,1.5,16.1,16.1,0,0,1,2.05,1.74,15.24,15.24,0,0,1,2,3.1c.78,1.53,1.94,4.82,3.62,6.56s2.75,2.16,4.06,2.27a7.9,7.9,0,0,0,2.88-.22,4.3,4.3,0,0,0,1-.52c-.08.27-.41.54-.49.72a5.85,5.85,0,0,1-1.72,1.39c-4,1.15-7-3.13-7.37-3.68a18.4,18.4,0,0,1-1.55-2.67c-.25-.46-2.4-5-3.19-6.08a9.93,9.93,0,0,0-2.93-2.27c-3.73-2.27-6.34,0-6.34,0a1.64,1.64,0,0,0-.32.36,4,4,0,0,0-.72,2.48,7,7,0,0,0,.22,1,4.18,4.18,0,0,0,.41.76l.19.25a6.44,6.44,0,0,0,1,1.17c.5-.46,5.16-4.28,5.67-4.7.06,0,.35.07.44.12l-.51.43h0l-5.26,4.4a7.14,7.14,0,0,0,.57.61c.15-.13,5.83-4.84,5.89-4.88a3.67,3.67,0,0,1,1.22,1.29c.17.32,1.61,3.46,1.91,4.22a17.4,17.4,0,0,0,5,7,4.45,4.45,0,0,0,1.08.66h0c.06,0,3.9,1.83,6.31-.68.06,0,1-1.05,1.15-1.27.36-.35,3-3,4.46-4.27,1.72-1.61,2.74-2.53,3-2.83a2.51,2.51,0,0,0,.75-.82,2.33,2.33,0,0,0,.28-1,5.6,5.6,0,0,0-.06-1.09"/><path class="cls-3" d="M156.06,318.39a3.7,3.7,0,0,0,.63,2l1.08-.62h0a3.7,3.7,0,0,0-1.49-1.5Z"/><path class="cls-3" d="M157.33,317.32a3.7,3.7,0,0,0,.63,2l1.08-.62h0a3.74,3.74,0,0,0-1.49-1.5Z"/><path class="cls-3" d="M158.59,316.31a3.72,3.72,0,0,0,.63,2l1.08-.62h0a3.72,3.72,0,0,0-1.49-1.5Z"/><path class="cls-3" d="M160,315.24a3.7,3.7,0,0,0,.63,2l1.08-.62h0a3.72,3.72,0,0,0-1.49-1.5Z"/><path class="cls-3" d="M161.32,314.31a3.72,3.72,0,0,0,.63,2l1.08-.62h0a3.74,3.74,0,0,0-1.49-1.5Z"/></g><g data-stop="angle" data-name="Angle Lake"><path d="M42.73,344h.93l2.78,7.9H45.39l-.71-2.12h-3l-.7,2.13h-1Zm1.69,5c-.41-1.29-.83-2.5-1.24-3.87-.39,1.33-.84,2.58-1.26,3.87Z"/><path d="M47.5,344h1.17c1.38,2.39,2.64,4.52,3.77,6.55-.06-2.23,0-4.37,0-6.55h1v7.9H52.19c-1.28-2.2-2.72-4.66-3.77-6.55,0,2.24,0,4.37,0,6.55h-1Z"/><path d="M60.65,350.57a2.58,2.58,0,0,1-2.45,1.54c-2.34,0-3.58-1.75-3.58-4.15s1.28-4.08,3.58-4.08a3.42,3.42,0,0,1,3.11,1.66l-1,.47a2.24,2.24,0,0,0-2.15-1.25c-1.68,0-2.52,1.42-2.52,3.21s.87,3.28,2.55,3.28a2.22,2.22,0,0,0,2.24-2.17v-.44H58.54v-.77h2.89v4.08H60.8Z"/><path d="M62.95,344h1v7.11h3.77v.78H62.95Z"/><path d="M68.88,344h4.7v.78H69.89v2.59h2.87v.78H69.89v3h3.85v.78H68.88Z"/><path d="M44.56,357.47h1v7.11h3.77v.78H44.56Z"/><path d="M52.81,357.47h.93l2.78,7.9H55.47l-.71-2.12h-3l-.7,2.13H50Zm1.69,5c-.41-1.29-.83-2.5-1.24-3.87-.39,1.33-.84,2.58-1.26,3.87Z"/><path d="M57.58,357.47h1v4.09l3.58-4.09h1.2l-2.91,3.27,3.27,4.63H62.54l-2.74-3.88-1.21,1.35v2.53h-1Z"/><path d="M64.74,357.47h4.7v.78H65.75v2.59h2.88v.78H65.75v3h3.85v.78H64.74Z"/><path d="M42.73,344h.93l2.78,7.9H45.39l-.71-2.12h-3l-.7,2.13h-1Zm1.69,5c-.41-1.29-.83-2.5-1.24-3.87-.39,1.33-.84,2.58-1.26,3.87Z"/><path d="M47.5,344h1.17c1.38,2.39,2.64,4.52,3.77,6.55-.06-2.23,0-4.37,0-6.55h1v7.9H52.19c-1.28-2.2-2.72-4.66-3.77-6.55,0,2.24,0,4.37,0,6.55h-1Z"/><path d="M60.65,350.57a2.58,2.58,0,0,1-2.45,1.54c-2.34,0-3.58-1.75-3.58-4.15s1.28-4.08,3.58-4.08a3.42,3.42,0,0,1,3.11,1.66l-1,.47a2.24,2.24,0,0,0-2.15-1.25c-1.68,0-2.52,1.42-2.52,3.21s.87,3.28,2.55,3.28a2.22,2.22,0,0,0,2.24-2.17v-.44H58.54v-.77h2.89v4.08H60.8Z"/><path d="M62.95,344h1v7.11h3.77v.78H62.95Z"/><path d="M68.88,344h4.7v.78H69.89v2.59h2.87v.78H69.89v3h3.85v.78H68.88Z"/><path d="M44.56,357.47h1v7.11h3.77v.78H44.56Z"/><path d="M52.81,357.47h.93l2.78,7.9H55.47l-.71-2.12h-3l-.7,2.13H50Zm1.69,5c-.41-1.29-.83-2.5-1.24-3.87-.39,1.33-.84,2.58-1.26,3.87Z"/><path d="M57.58,357.47h1v4.09l3.58-4.09h1.2l-2.91,3.27,3.27,4.63H62.54l-2.74-3.88-1.21,1.35v2.53h-1Z"/><path d="M64.74,357.47h4.7v.78H65.75v2.59h2.88v.78H65.75v3h3.85v.78H64.74Z"/><path class="cls-4" d="M79.54,315.22A22.18,22.18,0,1,1,57.36,293a22.18,22.18,0,0,1,22.18,22.18"/><g id="g788"><g id="g790"><path id="path792" class="cls-3" d="M73.18,316.7s-.3.15-.44.21a11.81,11.81,0,0,0-.8-8.9,10.61,10.61,0,0,0-5-4.25c-1.65-.69-2.92-3.63-6.48-4.1a7.56,7.56,0,0,1,1.67,3.61c.21,1.14-1.07,2.13-1.71,2.49a3.3,3.3,0,0,0-1.65,2.78c2.4-.54,4.94-2.69,6.66-2.19,2.2.64,2.88,3.59,2.73,4.37s-.15,3.43-7.95,4.6c.16-.2.32-.4.5-.6a23.9,23.9,0,0,1-3.24-2.92A22.55,22.55,0,0,0,52.38,316c-.18,0-2.72-.13-4.35,0a21.87,21.87,0,0,0-7.14,1.85,5.05,5.05,0,0,1,3.61,2.55,4.93,4.93,0,0,1-4.19-.54,4.88,4.88,0,0,0,4.05,2.67c.25.11,1.42.55,2.24.77a5.1,5.1,0,0,0,3,3.44,5.59,5.59,0,0,0-.29-2.25,21.61,21.61,0,0,0,10.92,1.33,5,5,0,0,0,3.54,1.49,5.1,5.1,0,0,0-1.2-1.94c6.23-1.67,8.24-4.41,9-5.48a5.23,5.23,0,0,0,2.82-1.13,5.11,5.11,0,0,0-1.23-2m-26.48,2.4a.8.8,0,1,1,.79-.8.79.79,0,0,1-.79.8"/></g></g></g></svg>