<svg xmlns="http://www.w3.org/2000/svg" viewBox="0 0 450 370"><defs><style>.cls-1,.cls-2{fill:none;stroke-miterlimit:10;}.cls-1{stroke:#8c8c8c;stroke-width:5.92px;}.cls-2{stroke:#ccc;}.cls-3{fill:#fff;}.cls-4{fill:#385988;}</style></defs><title>Artboard 1</title><g id="Line"><path class="cls-1" d="M53,26l342.26,0a48.3,48.3,0,0,1,48.31,48.07c0,26.54-21.78,48-48.31,48l-342.18-.31C25.93,121.76,4,143,4,169.43s21.93,48.24,49.08,48.24l341.68.36a48,48,0,0,1,0,96.05L53,314"/><path class="cls-2" d="M53,26l342.26,0a48.3,48.3,0,0,1,48.31,48.07c0,26.54-21.78,48-48.31,48l-342.18-.31C25.93,121.76,4,143,4,169.43s21.93,48.24,49.08,48.24l341.68.36a48,48,0,0,1,0,96.05L53,314"/></g><g data-stop="uw"><path class="cls-3" d="M27.65,55.46h1v5.09c0,1.44.72,2.1,1.9,2.1s1.91-.67,1.91-2.07V55.46h1v5.19a2.59,2.59,0,0,1-2.91,2.87,2.59,2.59,0,0,1-2.92-2.89Z"/><path class="cls-3" d="M35,55.46h1.17C37.59,57.85,38.86,60,40,62c-.06-2.23,0-4.37,0-6.55h1v7.9H39.73C38.45,61.15,37,58.69,36,56.8c0,2.24,0,4.37,0,6.55H35Z"/><path class="cls-3" d="M42.57,55.46h1v7.9h-1Z"/><path class="cls-3" d="M44.67,55.46h1.07c.76,2.33,1.6,4.73,2.21,6.77.61-2.06,1.44-4.44,2.2-6.77h1.05l-2.8,7.9h-1Z"/><path class="cls-3" d="M52.21,55.46h4.7v.78H53.22v2.59h2.87v.78H53.22v3h3.85v.78H52.21Z"/><path class="cls-3" d="M58.31,55.46h2.57c1.63,0,2.8.67,2.8,2.24a2,2,0,0,1-2.06,2,1.56,1.56,0,0,1,1,.85l1.57,2.77H63L61.74,61a1.5,1.5,0,0,0-1.44-1h-1v3.32h-1Zm2.6,3.77c1,0,1.7-.46,1.7-1.51s-.67-1.48-1.72-1.48H59.32v3Z"/><path class="cls-3" d="M65.42,61.53a2.71,2.71,0,0,0,2.34,1.15c1,0,1.79-.56,1.79-1.47s-.91-1.17-2.1-1.51c-1.35-.38-2.35-.93-2.35-2.23s1.11-2.19,2.67-2.19a3.59,3.59,0,0,1,2.7,1.08l-.68.64a2.72,2.72,0,0,0-2-.88c-1,0-1.62.41-1.62,1.24s.78,1.16,1.88,1.47c1.66.45,2.56,1,2.56,2.27,0,1.53-1.27,2.42-2.84,2.42a3.43,3.43,0,0,1-3-1.32Z"/><path class="cls-3" d="M71.9,55.46h1v7.9h-1Z"/><path class="cls-3" d="M76.38,56.24H74v-.78h5.67v.78H77.38v7.11h-1Z"/><path class="cls-3" d="M83,59.79l-2.67-4.33h1.15l2,3.55,2.09-3.55h1.14L84,59.79v3.57H83Z"/><path class="cls-3" d="M14.17,72.81c0-2.53,1.47-4.09,3.6-4.09s3.62,1.57,3.62,4.09-1.52,4.14-3.62,4.14S14.17,75.32,14.17,72.81Zm6.14,0c0-1.88-.94-3.22-2.56-3.22s-2.51,1.34-2.51,3.22,1,3.27,2.53,3.27S20.31,74.75,20.31,72.81Z"/><path class="cls-3" d="M22.64,68.88h4.74v.78H23.65v2.75h2.87v.77H23.65v3.59h-1Z"/><path class="cls-3" d="M30.48,68.88h1.07c.51,2.14,1.16,4.64,1.61,6.57.43-1.81,1.16-4.44,1.77-6.57h.86c.65,2.36,1.38,4.73,1.83,6.55.39-1.92,1-4.08,1.55-6.55h1.06l-2.16,7.9h-1c-.65-2.29-1.33-4.48-1.81-6.38-.45,1.91-1.14,4.32-1.72,6.38h-1Z"/><path class="cls-3" d="M43,68.88h.93l2.79,7.9H45.65l-.7-2.12h-3l-.7,2.13h-1Zm1.69,5c-.41-1.29-.83-2.51-1.24-3.87-.39,1.33-.84,2.58-1.26,3.87Z"/><path class="cls-3" d="M47.92,75a2.71,2.71,0,0,0,2.34,1.15c1,0,1.79-.56,1.79-1.47s-.91-1.17-2.1-1.51c-1.35-.38-2.35-.93-2.35-2.23s1.11-2.19,2.67-2.19A3.59,3.59,0,0,1,53,69.8l-.68.64a2.72,2.72,0,0,0-2-.88c-1,0-1.62.41-1.62,1.24s.78,1.16,1.88,1.47c1.66.45,2.56,1,2.56,2.27,0,1.53-1.27,2.42-2.84,2.42a3.43,3.43,0,0,1-3-1.32Z"/><path class="cls-3" d="M54.31,68.88h1v3.41h3.86V68.88h1v7.9h-1V73.13H55.31v3.65h-1Z"/><path class="cls-3" d="M61.84,68.88h1v7.9h-1Z"/><path class="cls-3" d="M64.52,68.88h1.17c1.38,2.39,2.64,4.52,3.77,6.55-.06-2.23,0-4.37,0-6.55h1v7.9H69.2c-1.27-2.2-2.72-4.66-3.77-6.55,0,2.24,0,4.37,0,6.55h-1Z"/><path class="cls-3" d="M77.67,75.4a2.58,2.58,0,0,1-2.45,1.54c-2.34,0-3.58-1.75-3.58-4.15s1.27-4.08,3.58-4.08a3.42,3.42,0,0,1,3.11,1.66l-1,.47a2.24,2.24,0,0,0-2.15-1.25c-1.68,0-2.52,1.42-2.52,3.21s.87,3.28,2.55,3.28a2.22,2.22,0,0,0,2.24-2.17v-.44H75.56v-.77h2.89v4.08h-.63Z"/><path class="cls-3" d="M81.46,69.66H79.12v-.78h5.67v.78H82.47v7.11h-1Z"/><path class="cls-3" d="M85,72.81c0-2.53,1.47-4.09,3.6-4.09s3.62,1.57,3.62,4.09-1.52,4.14-3.62,4.14S85,75.32,85,72.81Zm6.14,0c0-1.88-.94-3.22-2.56-3.22s-2.51,1.34-2.51,3.22,1,3.27,2.53,3.27S91.17,74.75,91.17,72.81Z"/><path class="cls-3" d="M93.51,68.88h1.17c1.38,2.39,2.64,4.52,3.77,6.55-.06-2.23,0-4.37,0-6.55h1v7.9H98.19c-1.27-2.2-2.72-4.66-3.77-6.55,0,2.24,0,4.37,0,6.55h-1Z"/><path d="M27.65,55.46h1v5.09c0,1.44.72,2.1,1.9,2.1s1.91-.67,1.91-2.07V55.46h1v5.19a2.59,2.59,0,0,1-2.91,2.87,2.59,2.59,0,0,1-2.92-2.89Z"/><path d="M35,55.46h1.17C37.59,57.85,38.86,60,40,62c-.06-2.23,0-4.37,0-6.55h1v7.9H39.73C38.45,61.15,37,58.69,36,56.8c0,2.24,0,4.37,0,6.55H35Z"/><path d="M42.57,55.46h1v7.9h-1Z"/><path d="M44.67,55.46h1.07c.76,2.33,1.6,4.73,2.21,6.77.61-2.06,1.44-4.44,2.2-6.77h1.05l-2.8,7.9h-1Z"/><path d="M52.21,55.46h4.7v.78H53.22v2.59h2.87v.78H53.22v3h3.85v.78H52.21Z"/><path d="M58.31,55.46h2.57c1.63,0,2.8.67,2.8,2.24a2,2,0,0,1-2.06,2,1.56,1.56,0,0,1,1,.85l1.57,2.77H63L61.74,61a1.5,1.5,0,0,0-1.44-1h-1v3.32h-1Zm2.6,3.77c1,0,1.7-.46,1.7-1.51s-.67-1.48-1.72-1.48H59.32v3Z"/><path d="M65.42,61.53a2.71,2.71,0,0,0,2.34,1.15c1,0,1.79-.56,1.79-1.47s-.91-1.17-2.1-1.51c-1.35-.38-2.35-.93-2.35-2.23s1.11-2.19,2.67-2.19a3.59,3.59,0,0,1,2.7,1.08l-.68.64a2.72,2.72,0,0,0-2-.88c-1,0-1.62.41-1.62,1.24s.78,1.16,1.88,1.47c1.66.45,2.56,1,2.56,2.27,0,1.53-1.27,2.42-2.84,2.42a3.43,3.43,0,0,1-3-1.32Z"/><path d="M71.9,55.46h1v7.9h-1Z"/><path d="M76.38,56.24H74v-.78h5.67v.78H77.38v7.11h-1Z"/><path d="M83,59.79l-2.67-4.33h1.15l2,3.55,2.09-3.55h1.14L84,59.79v3.57H83Z"/><path d="M14.17,72.81c0-2.53,1.47-4.09,3.6-4.09s3.62,1.57,3.62,4.09-1.52,4.14-3.62,4.14S14.17,75.32,14.17,72.81Zm6.14,0c0-1.88-.94-3.22-2.56-3.22s-2.51,1.34-2.51,3.22,1,3.27,2.53,3.27S20.31,74.75,20.31,72.81Z"/><path d="M22.64,68.88h4.74v.78H23.65v2.75h2.87v.77H23.65v3.59h-1Z"/><path d="M30.48,68.88h1.07c.51,2.14,1.16,4.64,1.61,6.57.43-1.81,1.16-4.44,1.77-6.57h.86c.65,2.36,1.38,4.73,1.83,6.55.39-1.92,1-4.08,1.55-6.55h1.06l-2.16,7.9h-1c-.65-2.29-1.33-4.48-1.81-6.38-.45,1.91-1.14,4.32-1.72,6.38h-1Z"/><path d="M43,68.88h.93l2.79,7.9H45.65l-.7-2.12h-3l-.7,2.13h-1Zm1.69,5c-.41-1.29-.83-2.51-1.24-3.87-.39,1.33-.84,2.58-1.26,3.87Z"/><path d="M47.92,75a2.71,2.71,0,0,0,2.34,1.15c1,0,1.79-.56,1.79-1.47s-.91-1.17-2.1-1.51c-1.35-.38-2.35-.93-2.35-2.23s1.11-2.19,2.67-2.19A3.59,3.59,0,0,1,53,69.8l-.68.64a2.72,2.72,0,0,0-2-.88c-1,0-1.62.41-1.62,1.24s.78,1.16,1.88,1.47c1.66.45,2.56,1,2.56,2.27,0,1.53-1.27,2.42-2.84,2.42a3.43,3.43,0,0,1-3-1.32Z"/><path d="M54.31,68.88h1v3.41h3.86V68.88h1v7.9h-1V73.13H55.31v3.65h-1Z"/><path d="M61.84,68.88h1v7.9h-1Z"/><path d="M64.52,68.88h1.17c1.38,2.39,2.64,4.52,3.77,6.55-.06-2.23,0-4.37,0-6.55h1v7.9H69.2c-1.27-2.2-2.72-4.66-3.77-6.55,0,2.24,0,4.37,0,6.55h-1Z"/><path d="M77.67,75.4a2.58,2.58,0,0,1-2.45,1.54c-2.34,0-3.58-1.75-3.58-4.15s1.27-4.08,3.58-4.08a3.42,3.42,0,0,1,3.11,1.66l-1,.47a2.24,2.24,0,0,0-2.15-1.25c-1.68,0-2.52,1.42-2.52,3.21s.87,3.28,2.55,3.28a2.22,2.22,0,0,0,2.24-2.17v-.44H75.56v-.77h2.89v4.08h-.63Z"/><path d="M81.46,69.66H79.12v-.78h5.67v.78H82.47v7.11h-1Z"/><path d="M85,72.81c0-2.53,1.47-4.09,3.6-4.09s3.62,1.57,3.62,4.09-1.52,4.14-3.62,4.14S85,75.32,85,72.81Zm6.14,0c0-1.88-.94-3.22-2.56-3.22s-2.51,1.34-2.51,3.22,1,3.27,2.53,3.27S91.17,74.75,91.17,72.81Z"/><path d="M93.51,68.88h1.17c1.38,2.39,2.64,4.52,3.77,6.55-.06-2.23,0-4.37,0-6.55h1v7.9H98.19c-1.27-2.2-2.72-4.66-3.77-6.55,0,2.24,0,4.37,0,6.55h-1Z"/><path class="cls-4" d="M79.54,26.18A22.18,22.18,0,1,1,57.36,4,22.18,22.18,0,0,1,79.54,26.18"/></g><g data-stop="capitol"><path d="M155.59,61.69a3.23,3.23,0,0,1-3.13,1.83c-2.36,0-3.6-1.81-3.6-4.15s1.27-4.08,3.6-4.08a3.34,3.34,0,0,1,3.06,1.64l-1,.48a2.31,2.31,0,0,0-2.11-1.25c-1.68,0-2.54,1.42-2.54,3.21s.89,3.28,2.54,3.28a2.2,2.2,0,0,0,2.18-1.44Z"/><path d="M159,55.46h.93l2.79,7.9h-1.05l-.71-2.12h-3l-.71,2.13h-1Zm1.69,5c-.41-1.29-.83-2.51-1.24-3.87-.39,1.33-.84,2.58-1.26,3.87Z"/><path d="M163.75,55.46h2.65c1.59,0,2.74.69,2.74,2.29,0,1.8-1.19,2.45-2.73,2.45h-1.66v3.15h-1Zm2.49,3.94c1.15,0,1.83-.46,1.83-1.64s-.78-1.51-1.8-1.51h-1.52V59.4Z"/><path d="M170.41,55.46h1v7.9h-1Z"/><path d="M174.89,56.24h-2.34v-.78h5.67v.78h-2.33v7.11h-1Z"/><path d="M178.45,59.38c0-2.53,1.47-4.09,3.6-4.09s3.62,1.57,3.62,4.09-1.52,4.14-3.62,4.14S178.45,61.9,178.45,59.38Zm6.14,0c0-1.88-.94-3.22-2.56-3.22s-2.5,1.34-2.5,3.22,1,3.27,2.53,3.27S184.59,61.33,184.59,59.38Z"/><path d="M186.93,55.46h1v7.11h3.77v.78h-4.78Z"/><path d="M160,68.88h1v3.41h3.86V68.88h1v7.9h-1V73.13H161v3.65h-1Z"/><path d="M167.51,68.88h1v7.9h-1Z"/><path d="M170.18,68.88h1V76H175v.78h-4.78Z"/><path d="M176.12,68.88h1V76h3.77v.78h-4.78Z"/><path d="M155.59,61.69a3.23,3.23,0,0,1-3.13,1.83c-2.36,0-3.6-1.81-3.6-4.15s1.27-4.08,3.6-4.08a3.34,3.34,0,0,1,3.06,1.64l-1,.48a2.31,2.31,0,0,0-2.11-1.25c-1.68,0-2.54,1.42-2.54,3.21s.89,3.28,2.54,3.28a2.2,2.2,0,0,0,2.18-1.44Z"/><path d="M159,55.46h.93l2.79,7.9h-1.05l-.71-2.12h-3l-.71,2.13h-1Zm1.69,5c-.41-1.29-.83-2.51-1.24-3.87-.39,1.33-.84,2.58-1.26,3.87Z"/><path d="M163.75,55.46h2.65c1.59,0,2.74.69,2.74,2.29,0,1.8-1.19,2.45-2.73,2.45h-1.66v3.15h-1Zm2.49,3.94c1.15,0,1.83-.46,1.83-1.64s-.78-1.51-1.8-1.51h-1.52V59.4Z"/><path d="M170.41,55.46h1v7.9h-1Z"/><path d="M174.89,56.24h-2.34v-.78h5.67v.78h-2.33v7.11h-1Z"/><path d="M178.45,59.38c0-2.53,1.47-4.09,3.6-4.09s3.62,1.57,3.62,4.09-1.52,4.14-3.62,4.14S178.45,61.9,178.45,59.38Zm6.14,0c0-1.88-.94-3.22-2.56-3.22s-2.5,1.34-2.5,3.22,1,3.27,2.53,3.27S184.59,61.33,184.59,59.38Z"/><path d="M186.93,55.46h1v7.11h3.77v.78h-4.78Z"/><path d="M160,68.88h1v3.41h3.86V68.88h1v7.9h-1V73.13H161v3.65h-1Z"/><path d="M167.51,68.88h1v7.9h-1Z"/><path d="M170.18,68.88h1V76H175v.78h-4.78Z"/><path d="M176.12,68.88h1V76h3.77v.78h-4.78Z"/><path class="cls-4" d="M192.19,26.18A22.18,22.18,0,1,1,170,4a22.18,22.18,0,0,1,22.18,22.18"/></g><g data-stop="westlake"><path d="M257,55.46h1.07c.51,2.14,1.16,4.64,1.61,6.57.43-1.81,1.16-4.44,1.77-6.57h.86c.65,2.36,1.38,4.73,1.83,6.55.39-1.92,1-4.08,1.55-6.55h1.06l-2.16,7.9h-1c-.65-2.29-1.33-4.48-1.81-6.38-.45,1.91-1.14,4.32-1.72,6.38h-1Z"/><path d="M267.85,55.46h4.7v.78h-3.69v2.59h2.88v.78h-2.87v3h3.85v.78h-4.85Z"/><path d="M274.24,61.53a2.71,2.71,0,0,0,2.34,1.15c1,0,1.79-.56,1.79-1.47s-.91-1.17-2.1-1.51c-1.35-.38-2.35-.93-2.35-2.23s1.11-2.19,2.67-2.19a3.59,3.59,0,0,1,2.7,1.08l-.68.64a2.72,2.72,0,0,0-2-.88c-1,0-1.62.41-1.62,1.24s.78,1.16,1.88,1.47c1.66.45,2.56,1,2.56,2.27,0,1.53-1.28,2.42-2.84,2.42a3.43,3.43,0,0,1-3-1.32Z"/><path d="M282.26,56.24h-2.34v-.78h5.67v.78h-2.33v7.11h-1Z"/><path d="M286.62,55.46h1v7.11h3.77v.78h-4.78Z"/><path d="M294.86,55.46h.93l2.79,7.9h-1.05l-.71-2.12h-3l-.71,2.13h-1Zm1.69,5c-.41-1.29-.83-2.51-1.24-3.87-.39,1.33-.84,2.58-1.26,3.87Z"/><path d="M299.64,55.46h1v4.09l3.58-4.09h1.2l-2.91,3.27,3.27,4.63h-1.19l-2.74-3.88-1.21,1.35v2.53h-1Z"/><path d="M306.79,55.46h4.7v.78H307.8v2.59h2.88v.78H307.8v3h3.85v.78h-4.85Z"/><path d="M257,55.46h1.07c.51,2.14,1.16,4.64,1.61,6.57.43-1.81,1.16-4.44,1.77-6.57h.86c.65,2.36,1.38,4.73,1.83,6.55.39-1.92,1-4.08,1.55-6.55h1.06l-2.16,7.9h-1c-.65-2.29-1.33-4.48-1.81-6.38-.45,1.91-1.14,4.32-1.72,6.38h-1Z"/><path d="M267.85,55.46h4.7v.78h-3.69v2.59h2.88v.78h-2.87v3h3.85v.78h-4.85Z"/><path d="M274.24,61.53a2.71,2.71,0,0,0,2.34,1.15c1,0,1.79-.56,1.79-1.47s-.91-1.17-2.1-1.51c-1.35-.38-2.35-.93-2.35-2.23s1.11-2.19,2.67-2.19a3.59,3.59,0,0,1,2.7,1.08l-.68.64a2.72,2.72,0,0,0-2-.88c-1,0-1.62.41-1.62,1.24s.78,1.16,1.88,1.47c1.66.45,2.56,1,2.56,2.27,0,1.53-1.28,2.42-2.84,2.42a3.43,3.43,0,0,1-3-1.32Z"/><path d="M282.26,56.24h-2.34v-.78h5.67v.78h-2.33v7.11h-1Z"/><path d="M286.62,55.46h1v7.11h3.77v.78h-4.78Z"/><path d="M294.86,55.46h.93l2.79,7.9h-1.05l-.71-2.12h-3l-.71,2.13h-1Zm1.69,5c-.41-1.29-.83-2.51-1.24-3.87-.39,1.33-.84,2.58-1.26,3.87Z"/><path d="M299.64,55.46h1v4.09l3.58-4.09h1.2l-2.91,3.27,3.27,4.63h-1.19l-2.74-3.88-1.21,1.35v2.53h-1Z"/><path d="M306.79,55.46h4.7v.78H307.8v2.59h2.88v.78H307.8v3h3.85v.78h-4.85Z"/><path class="cls-4" d="M305.84,26.18A22.18,22.18,0,1,1,283.66,4a22.18,22.18,0,0,1,22.18,22.18"/></g><g data-stop="university" data-name="University Street"><path d="M368.12,55.46h1v5.09c0,1.44.72,2.1,1.9,2.1s1.91-.67,1.91-2.07V55.46h1v5.19a2.91,2.91,0,0,1-5.83,0Z"/><path d="M375.52,55.46h1.17c1.38,2.39,2.64,4.52,3.77,6.55-.06-2.23,0-4.37,0-6.55h1v7.9H380.2c-1.27-2.2-2.72-4.66-3.77-6.55,0,2.24,0,4.37,0,6.55h-1Z"/><path d="M383,55.46h1v7.9h-1Z"/><path d="M385.15,55.46h1.07c.76,2.33,1.6,4.73,2.21,6.77.62-2.06,1.44-4.44,2.2-6.77h1.05l-2.8,7.9h-1Z"/><path d="M392.68,55.46h4.7v.78h-3.69v2.59h2.88v.78h-2.87v3h3.85v.78h-4.85Z"/><path d="M398.79,55.46h2.57c1.63,0,2.8.67,2.8,2.24a2,2,0,0,1-2.06,2,1.56,1.56,0,0,1,1,.85l1.57,2.77h-1.19L402.21,61a1.5,1.5,0,0,0-1.44-1h-1v3.32h-1Zm2.6,3.77c1,0,1.7-.46,1.7-1.51s-.67-1.48-1.72-1.48H399.8v3Z"/><path d="M405.89,61.53a2.71,2.71,0,0,0,2.34,1.15c1,0,1.79-.56,1.79-1.47s-.91-1.17-2.1-1.51c-1.35-.38-2.35-.93-2.35-2.23s1.11-2.19,2.67-2.19a3.59,3.59,0,0,1,2.7,1.08l-.68.64a2.72,2.72,0,0,0-2-.88c-1,0-1.62.41-1.62,1.24s.78,1.16,1.88,1.47c1.66.45,2.56,1,2.56,2.27,0,1.53-1.28,2.42-2.84,2.42a3.43,3.43,0,0,1-3-1.32Z"/><path d="M412.38,55.46h1v7.9h-1Z"/><path d="M416.85,56.24h-2.34v-.78h5.67v.78h-2.33v7.11h-1Z"/><path d="M423.46,59.79l-2.67-4.33h1.15L424,59l2.09-3.55h1.14l-2.74,4.33v3.57h-1Z"/><path d="M379.42,75a2.72,2.72,0,0,0,2.34,1.15c1,0,1.79-.56,1.79-1.47s-.91-1.17-2.1-1.51c-1.35-.38-2.35-.93-2.35-2.23s1.11-2.19,2.67-2.19a3.6,3.6,0,0,1,2.7,1.08l-.68.64a2.72,2.72,0,0,0-2-.88c-1,0-1.62.41-1.62,1.24s.78,1.16,1.88,1.47c1.66.45,2.56,1,2.56,2.27,0,1.53-1.27,2.42-2.84,2.42a3.43,3.43,0,0,1-3-1.32Z"/><path d="M387.44,69.66h-2.34v-.78h5.67v.78h-2.33v7.11h-1Z"/><path d="M391.81,68.88h2.57c1.63,0,2.8.67,2.8,2.24a2,2,0,0,1-2.06,2,1.56,1.56,0,0,1,1,.85l1.57,2.77h-1.19l-1.24-2.32a1.5,1.5,0,0,0-1.44-1h-1v3.32h-1Zm2.59,3.77c1,0,1.7-.46,1.7-1.51s-.67-1.48-1.72-1.48h-1.57v3Z"/><path d="M398.74,68.88h4.7v.78h-3.69v2.59h2.88V73h-2.87v3h3.85v.78h-4.85Z"/><path d="M404.85,68.88h4.7v.78h-3.69v2.59h2.88V73h-2.87v3h3.85v.78h-4.85Z"/><path d="M412.85,69.66h-2.34v-.78h5.67v.78h-2.33v7.11h-1Z"/><path d="M368.12,55.46h1v5.09c0,1.44.72,2.1,1.9,2.1s1.91-.67,1.91-2.07V55.46h1v5.19a2.91,2.91,0,0,1-5.83,0Z"/><path d="M375.52,55.46h1.17c1.38,2.39,2.64,4.52,3.77,6.55-.06-2.23,0-4.37,0-6.55h1v7.9H380.2c-1.27-2.2-2.72-4.66-3.77-6.55,0,2.24,0,4.37,0,6.55h-1Z"/><path d="M383,55.46h1v7.9h-1Z"/><path d="M385.15,55.46h1.07c.76,2.33,1.6,4.73,2.21,6.77.62-2.06,1.44-4.44,2.2-6.77h1.05l-2.8,7.9h-1Z"/><path d="M392.68,55.46h4.7v.78h-3.69v2.59h2.88v.78h-2.87v3h3.85v.78h-4.85Z"/><path d="M398.79,55.46h2.57c1.63,0,2.8.67,2.8,2.24a2,2,0,0,1-2.06,2,1.56,1.56,0,0,1,1,.85l1.57,2.77h-1.19L402.21,61a1.5,1.5,0,0,0-1.44-1h-1v3.32h-1Zm2.6,3.77c1,0,1.7-.46,1.7-1.51s-.67-1.48-1.72-1.48H399.8v3Z"/><path d="M405.89,61.53a2.71,2.71,0,0,0,2.34,1.15c1,0,1.79-.56,1.79-1.47s-.91-1.17-2.1-1.51c-1.35-.38-2.35-.93-2.35-2.23s1.11-2.19,2.67-2.19a3.59,3.59,0,0,1,2.7,1.08l-.68.64a2.72,2.72,0,0,0-2-.88c-1,0-1.62.41-1.62,1.24s.78,1.16,1.88,1.47c1.66.45,2.56,1,2.56,2.27,0,1.53-1.28,2.42-2.84,2.42a3.43,3.43,0,0,1-3-1.32Z"/><path d="M412.38,55.46h1v7.9h-1Z"/><path d="M416.85,56.24h-2.34v-.78h5.67v.78h-2.33v7.11h-1Z"/><path d="M423.46,59.79l-2.67-4.33h1.15L424,59l2.09-3.55h1.14l-2.74,4.33v3.57h-1Z"/><path d="M379.42,75a2.72,2.72,0,0,0,2.34,1.15c1,0,1.79-.56,1.79-1.47s-.91-1.17-2.1-1.51c-1.35-.38-2.35-.93-2.35-2.23s1.11-2.19,2.67-2.19a3.6,3.6,0,0,1,2.7,1.08l-.68.64a2.72,2.72,0,0,0-2-.88c-1,0-1.62.41-1.62,1.24s.78,1.16,1.88,1.47c1.66.45,2.56,1,2.56,2.27,0,1.53-1.27,2.42-2.84,2.42a3.43,3.43,0,0,1-3-1.32Z"/><path d="M387.44,69.66h-2.34v-.78h5.67v.78h-2.33v7.11h-1Z"/><path d="M391.81,68.88h2.57c1.63,0,2.8.67,2.8,2.24a2,2,0,0,1-2.06,2,1.56,1.56,0,0,1,1,.85l1.57,2.77h-1.19l-1.24-2.32a1.5,1.5,0,0,0-1.44-1h-1v3.32h-1Zm2.59,3.77c1,0,1.7-.46,1.7-1.51s-.67-1.48-1.72-1.48h-1.57v3Z"/><path d="M398.74,68.88h4.7v.78h-3.69v2.59h2.88V73h-2.87v3h3.85v.78h-4.85Z"/><path d="M404.85,68.88h4.7v.78h-3.69v2.59h2.88V73h-2.87v3h3.85v.78h-4.85Z"/><path d="M412.85,69.66h-2.34v-.78h5.67v.78h-2.33v7.11h-1Z"/><path class="cls-4" d="M418.12,26.18A22.18,22.18,0,1,1,395.94,4a22.18,22.18,0,0,1,22.18,22.18"/></g><g data-stop="pioneer" data-name="Pioneer Square"><path d="M376.14,150.26h2.65c1.59,0,2.74.69,2.74,2.29,0,1.8-1.19,2.45-2.73,2.45h-1.66v3.15h-1Zm2.5,3.94c1.15,0,1.83-.46,1.83-1.64s-.78-1.51-1.8-1.51h-1.52v3.15Z"/><path d="M382.81,150.26h1v7.9h-1Z"/><path d="M385.17,154.18c0-2.53,1.47-4.09,3.6-4.09s3.62,1.57,3.62,4.09-1.52,4.14-3.62,4.14S385.17,156.7,385.17,154.18Zm6.14,0c0-1.88-.94-3.22-2.56-3.22s-2.5,1.34-2.5,3.22,1,3.27,2.53,3.27S391.31,156.13,391.31,154.18Z"/><path d="M393.65,150.26h1.17c1.38,2.39,2.64,4.52,3.77,6.55-.06-2.23,0-4.37,0-6.55h1v7.9h-1.16c-1.28-2.2-2.72-4.66-3.77-6.55,0,2.24,0,4.37,0,6.55h-1Z"/><path d="M401.07,150.26h4.7V151h-3.69v2.59H405v.78h-2.87v3h3.85v.78h-4.85Z"/><path d="M407.18,150.26h4.7V151h-3.69v2.59h2.88v.78h-2.87v3H412v.78h-4.85Z"/><path d="M413.28,150.26h2.57c1.63,0,2.8.67,2.8,2.24a2,2,0,0,1-2.06,2,1.56,1.56,0,0,1,1,.85l1.57,2.77h-1.19l-1.24-2.32a1.5,1.5,0,0,0-1.44-1h-1v3.32h-1Zm2.6,3.77c1,0,1.7-.46,1.7-1.51s-.67-1.48-1.72-1.48h-1.57v3Z"/><path d="M377.42,169.75a2.72,2.72,0,0,0,2.34,1.15c1,0,1.79-.56,1.79-1.47s-.91-1.17-2.1-1.51c-1.35-.38-2.35-.93-2.35-2.23s1.11-2.19,2.67-2.19a3.6,3.6,0,0,1,2.7,1.08l-.68.64a2.72,2.72,0,0,0-2-.88c-1,0-1.62.41-1.62,1.24s.78,1.16,1.88,1.47c1.66.45,2.56,1,2.56,2.27,0,1.53-1.27,2.42-2.84,2.42a3.43,3.43,0,0,1-3-1.32Z"/><path d="M387.12,171.73c-2.38,0-3.61-1.78-3.61-4.13,0-2.53,1.47-4.09,3.6-4.09s3.61,1.57,3.61,4.09c0,2-1,3.57-2.55,3.95a2.31,2.31,0,0,0,2.14.88l-.38.82A2.93,2.93,0,0,1,387.12,171.73Zm2.53-4.13c0-1.88-.94-3.22-2.56-3.22s-2.52,1.34-2.52,3.22,1,3.27,2.54,3.27S389.65,169.55,389.65,167.6Z"/><path d="M392,163.68h1v5.09c0,1.44.72,2.1,1.9,2.1s1.91-.67,1.91-2.07v-5.12h1v5.19a2.91,2.91,0,0,1-5.83,0Z"/><path d="M401.4,163.68h.93l2.79,7.9h-1.05l-.7-2.12h-3l-.7,2.13h-1Zm1.69,5c-.41-1.29-.83-2.51-1.24-3.87-.39,1.33-.84,2.58-1.26,3.87Z"/><path d="M406.18,163.68h2.57c1.63,0,2.8.67,2.8,2.24a2,2,0,0,1-2.06,2,1.56,1.56,0,0,1,1,.85l1.57,2.77h-1.19l-1.24-2.32a1.5,1.5,0,0,0-1.44-1h-1v3.32h-1Zm2.6,3.77c1,0,1.7-.46,1.7-1.51s-.67-1.48-1.72-1.48h-1.57v3Z"/><path d="M413.11,163.68h4.7v.78h-3.69v2.59H417v.78h-2.87v3H418v.78h-4.85Z"/><path d="M376.14,150.26h2.65c1.59,0,2.74.69,2.74,2.29,0,1.8-1.19,2.45-2.73,2.45h-1.66v3.15h-1Zm2.5,3.94c1.15,0,1.83-.46,1.83-1.64s-.78-1.51-1.8-1.51h-1.52v3.15Z"/><path d="M382.81,150.26h1v7.9h-1Z"/><path d="M385.17,154.18c0-2.53,1.47-4.09,3.6-4.09s3.62,1.57,3.62,4.09-1.52,4.14-3.62,4.14S385.17,156.7,385.17,154.18Zm6.14,0c0-1.88-.94-3.22-2.56-3.22s-2.5,1.34-2.5,3.22,1,3.27,2.53,3.27S391.31,156.13,391.31,154.18Z"/><path d="M393.65,150.26h1.17c1.38,2.39,2.64,4.52,3.77,6.55-.06-2.23,0-4.37,0-6.55h1v7.9h-1.16c-1.28-2.2-2.72-4.66-3.77-6.55,0,2.24,0,4.37,0,6.55h-1Z"/><path d="M401.07,150.26h4.7V151h-3.69v2.59H405v.78h-2.87v3h3.85v.78h-4.85Z"/><path d="M407.18,150.26h4.7V151h-3.69v2.59h2.88v.78h-2.87v3H412v.78h-4.85Z"/><path d="M413.28,150.26h2.57c1.63,0,2.8.67,2.8,2.24a2,2,0,0,1-2.06,2,1.56,1.56,0,0,1,1,.85l1.57,2.77h-1.19l-1.24-2.32a1.5,1.5,0,0,0-1.44-1h-1v3.32h-1Zm2.6,3.77c1,0,1.7-.46,1.7-1.51s-.67-1.48-1.72-1.48h-1.57v3Z"/><path d="M377.42,169.75a2.72,2.72,0,0,0,2.34,1.15c1,0,1.79-.56,1.79-1.47s-.91-1.17-2.1-1.51c-1.35-.38-2.35-.93-2.35-2.23s1.11-2.19,2.67-2.19a3.6,3.6,0,0,1,2.7,1.08l-.68.64a2.72,2.72,0,0,0-2-.88c-1,0-1.62.41-1.62,1.24s.78,1.16,1.88,1.47c1.66.45,2.56,1,2.56,2.27,0,1.53-1.27,2.42-2.84,2.42a3.43,3.43,0,0,1-3-1.32Z"/><path d="M387.12,171.73c-2.38,0-3.61-1.78-3.61-4.13,0-2.53,1.47-4.09,3.6-4.09s3.61,1.57,3.61,4.09c0,2-1,3.57-2.55,3.95a2.31,2.31,0,0,0,2.14.88l-.38.82A2.93,2.93,0,0,1,387.12,171.73Zm2.53-4.13c0-1.88-.94-3.22-2.56-3.22s-2.52,1.34-2.52,3.22,1,3.27,2.54,3.27S389.65,169.55,389.65,167.6Z"/><path d="M392,163.68h1v5.09c0,1.44.72,2.1,1.9,2.1s1.91-.67,1.91-2.07v-5.12h1v5.19a2.91,2.91,0,0,1-5.83,0Z"/><path d="M401.4,163.68h.93l2.79,7.9h-1.05l-.7-2.12h-3l-.7,2.13h-1Zm1.69,5c-.41-1.29-.83-2.51-1.24-3.87-.39,1.33-.84,2.58-1.26,3.87Z"/><path d="M406.18,163.68h2.57c1.63,0,2.8.67,2.8,2.24a2,2,0,0,1-2.06,2,1.56,1.56,0,0,1,1,.85l1.57,2.77h-1.19l-1.24-2.32a1.5,1.5,0,0,0-1.44-1h-1v3.32h-1Zm2.6,3.77c1,0,1.7-.46,1.7-1.51s-.67-1.48-1.72-1.48h-1.57v3Z"/><path d="M413.11,163.68h4.7v.78h-3.69v2.59H417v.78h-2.87v3H418v.78h-4.85Z"/><path class="cls-4" d="M418.12,123.18A22.18,22.18,0,1,1,395.94,101a22.18,22.18,0,0,1,22.18,22.18"/></g><g data-stop="international"><path d="M246.41,150.26h1v7.9h-1Z"/><path d="M249.09,150.26h1.17c1.38,2.39,2.64,4.52,3.77,6.55-.06-2.23,0-4.37,0-6.55h1v7.9h-1.16c-1.28-2.2-2.72-4.66-3.77-6.55,0,2.24,0,4.37,0,6.55h-1Z"/><path d="M258.31,151H256v-.78h5.67V151h-2.33v7.11h-1Z"/><path d="M262.52,152.3a.8.8,0,0,0,.5-.84v-.15h-.49v-1.06h1.05v1.16a1.24,1.24,0,0,1-.85,1.33Z"/><path d="M265,150.26h1v7.11h3.77v.78H265Z"/><path d="M273.45,150.26h2.38c2.72,0,4,1.33,4,4s-1.3,3.94-3.85,3.94h-2.5Zm2.43,7.11c2.16,0,2.85-1.32,2.85-3.18s-.66-3.15-3-3.15h-1.32v6.33Z"/><path d="M281.15,150.26h1v7.9h-1Z"/><path d="M284.1,156.33a2.71,2.71,0,0,0,2.34,1.15c1,0,1.79-.56,1.79-1.47s-.91-1.17-2.1-1.51c-1.35-.38-2.35-.93-2.35-2.23s1.11-2.19,2.67-2.19a3.59,3.59,0,0,1,2.7,1.08l-.68.64a2.72,2.72,0,0,0-2-.88c-1,0-1.62.41-1.62,1.24s.78,1.16,1.88,1.47c1.66.45,2.56,1,2.56,2.27,0,1.53-1.28,2.42-2.84,2.42a3.43,3.43,0,0,1-3-1.32Z"/><path d="M292.12,151h-2.34v-.78h5.67V151h-2.33v7.11h-1Z"/><path d="M296.48,150.26h2.57c1.63,0,2.8.67,2.8,2.24a2,2,0,0,1-2.06,2,1.56,1.56,0,0,1,1,.85l1.57,2.77h-1.19l-1.24-2.32a1.5,1.5,0,0,0-1.44-1h-1v3.32h-1Zm2.6,3.77c1,0,1.7-.46,1.7-1.51s-.67-1.48-1.72-1.48h-1.57v3Z"/><path d="M303.52,150.26h1v7.9h-1Z"/><path d="M312.62,156.49a3.23,3.23,0,0,1-3.13,1.83c-2.36,0-3.6-1.81-3.6-4.15s1.27-4.08,3.6-4.08a3.34,3.34,0,0,1,3.06,1.64l-1,.48a2.31,2.31,0,0,0-2.11-1.25c-1.68,0-2.54,1.42-2.54,3.21s.89,3.28,2.54,3.28a2.2,2.2,0,0,0,2.18-1.44Z"/><path d="M315.65,151h-2.34v-.78H319V151h-2.33v7.11h-1Z"/><path d="M322.06,150.26h.82l-3.24,7.9h-.84Z"/><path d="M260.33,169.91a3.23,3.23,0,0,1-3.13,1.83c-2.36,0-3.6-1.81-3.6-4.15s1.28-4.08,3.6-4.08a3.34,3.34,0,0,1,3.06,1.64l-1,.48a2.31,2.31,0,0,0-2.11-1.25c-1.68,0-2.54,1.42-2.54,3.21s.9,3.28,2.54,3.28a2.2,2.2,0,0,0,2.18-1.44Z"/><path d="M261.56,163.68h1v3.41h3.86v-3.41h1v7.9h-1v-3.65h-3.86v3.65h-1Z"/><path d="M269.09,163.68h1v7.9h-1Z"/><path d="M271.77,163.68h1.17c1.38,2.39,2.64,4.52,3.77,6.55-.06-2.23,0-4.37,0-6.55h1v7.9h-1.16c-1.28-2.2-2.72-4.66-3.77-6.55,0,2.24,0,4.37,0,6.55h-1Z"/><path d="M281.5,163.68h.93l2.79,7.9h-1.05l-.71-2.12h-3l-.71,2.13h-1Zm1.69,5c-.41-1.29-.83-2.51-1.24-3.87-.39,1.33-.84,2.58-1.26,3.87Z"/><path d="M287.13,164.46H284.8v-.78h5.67v.78h-2.33v7.11h-1Z"/><path d="M290.7,167.6c0-2.53,1.46-4.09,3.6-4.09s3.62,1.57,3.62,4.09-1.52,4.14-3.62,4.14S290.7,170.12,290.7,167.6Zm6.14,0c0-1.88-.94-3.22-2.56-3.22s-2.51,1.34-2.51,3.22,1,3.27,2.53,3.27S296.84,169.55,296.84,167.6Z"/><path d="M298.35,163.68h1.07c.51,2.14,1.16,4.64,1.61,6.57.42-1.81,1.16-4.44,1.77-6.57h.86c.65,2.36,1.38,4.73,1.83,6.55.39-1.92,1-4.08,1.55-6.55h1.06l-2.16,7.9h-1c-.65-2.29-1.33-4.48-1.81-6.38-.45,1.91-1.14,4.32-1.72,6.38h-1Z"/><path d="M309.16,163.68h1.17c1.38,2.39,2.64,4.52,3.77,6.55-.06-2.23,0-4.37,0-6.55h1v7.9h-1.16c-1.27-2.2-2.72-4.66-3.77-6.55,0,2.24,0,4.37,0,6.55h-1Z"/><path d="M246.41,150.26h1v7.9h-1Z"/><path d="M249.09,150.26h1.17c1.38,2.39,2.64,4.52,3.77,6.55-.06-2.23,0-4.37,0-6.55h1v7.9h-1.16c-1.28-2.2-2.72-4.66-3.77-6.55,0,2.24,0,4.37,0,6.55h-1Z"/><path d="M258.31,151H256v-.78h5.67V151h-2.33v7.11h-1Z"/><path d="M262.52,152.3a.8.8,0,0,0,.5-.84v-.15h-.49v-1.06h1.05v1.16a1.24,1.24,0,0,1-.85,1.33Z"/><path d="M265,150.26h1v7.11h3.77v.78H265Z"/><path d="M273.45,150.26h2.38c2.72,0,4,1.33,4,4s-1.3,3.94-3.85,3.94h-2.5Zm2.43,7.11c2.16,0,2.85-1.32,2.85-3.18s-.66-3.15-3-3.15h-1.32v6.33Z"/><path d="M281.15,150.26h1v7.9h-1Z"/><path d="M284.1,156.33a2.71,2.71,0,0,0,2.34,1.15c1,0,1.79-.56,1.79-1.47s-.91-1.17-2.1-1.51c-1.35-.38-2.35-.93-2.35-2.23s1.11-2.19,2.67-2.19a3.59,3.59,0,0,1,2.7,1.08l-.68.64a2.72,2.72,0,0,0-2-.88c-1,0-1.62.41-1.62,1.24s.78,1.16,1.88,1.47c1.66.45,2.56,1,2.56,2.27,0,1.53-1.28,2.42-2.84,2.42a3.43,3.43,0,0,1-3-1.32Z"/><path d="M292.12,151h-2.34v-.78h5.67V151h-2.33v7.11h-1Z"/><path d="M296.48,150.26h2.57c1.63,0,2.8.67,2.8,2.24a2,2,0,0,1-2.06,2,1.56,1.56,0,0,1,1,.85l1.57,2.77h-1.19l-1.24-2.32a1.5,1.5,0,0,0-1.44-1h-1v3.32h-1Zm2.6,3.77c1,0,1.7-.46,1.7-1.51s-.67-1.48-1.72-1.48h-1.57v3Z"/><path d="M303.52,150.26h1v7.9h-1Z"/><path d="M312.62,156.49a3.23,3.23,0,0,1-3.13,1.83c-2.36,0-3.6-1.81-3.6-4.15s1.27-4.08,3.6-4.08a3.34,3.34,0,0,1,3.06,1.64l-1,.48a2.31,2.31,0,0,0-2.11-1.25c-1.68,0-2.54,1.42-2.54,3.21s.89,3.28,2.54,3.28a2.2,2.2,0,0,0,2.18-1.44Z"/><path d="M315.65,151h-2.34v-.78H319V151h-2.33v7.11h-1Z"/><path d="M322.06,150.26h.82l-3.24,7.9h-.84Z"/><path d="M260.33,169.91a3.23,3.23,0,0,1-3.13,1.83c-2.36,0-3.6-1.81-3.6-4.15s1.28-4.08,3.6-4.08a3.34,3.34,0,0,1,3.06,1.64l-1,.48a2.31,2.31,0,0,0-2.11-1.25c-1.68,0-2.54,1.42-2.54,3.21s.9,3.28,2.54,3.28a2.2,2.2,0,0,0,2.18-1.44Z"/><path d="M261.56,163.68h1v3.41h3.86v-3.41h1v7.9h-1v-3.65h-3.86v3.65h-1Z"/><path d="M269.09,163.68h1v7.9h-1Z"/><path d="M271.77,163.68h1.17c1.38,2.39,2.64,4.52,3.77,6.55-.06-2.23,0-4.37,0-6.55h1v7.9h-1.16c-1.28-2.2-2.72-4.66-3.77-6.55,0,2.24,0,4.37,0,6.55h-1Z"/><path d="M281.5,163.68h.93l2.79,7.9h-1.05l-.71-2.12h-3l-.71,2.13h-1Zm1.69,5c-.41-1.29-.83-2.51-1.24-3.87-.39,1.33-.84,2.58-1.26,3.87Z"/><path d="M287.13,164.46H284.8v-.78h5.67v.78h-2.33v7.11h-1Z"/><path d="M290.7,167.6c0-2.53,1.46-4.09,3.6-4.09s3.62,1.57,3.62,4.09-1.52,4.14-3.62,4.14S290.7,170.12,290.7,167.6Zm6.14,0c0-1.88-.94-3.22-2.56-3.22s-2.51,1.34-2.51,3.22,1,3.27,2.53,3.27S296.84,169.55,296.84,167.6Z"/><path d="M298.35,163.68h1.07c.51,2.14,1.16,4.64,1.61,6.57.42-1.81,1.16-4.44,1.77-6.57h.86c.65,2.36,1.38,4.73,1.83,6.55.39-1.92,1-4.08,1.55-6.55h1.06l-2.16,7.9h-1c-.65-2.29-1.33-4.48-1.81-6.38-.45,1.91-1.14,4.32-1.72,6.38h-1Z"/><path d="M309.16,163.68h1.17c1.38,2.39,2.64,4.52,3.77,6.55-.06-2.23,0-4.37,0-6.55h1v7.9h-1.16c-1.27-2.2-2.72-4.66-3.77-6.55,0,2.24,0,4.37,0,6.55h-1Z"/><path class="cls-4" d="M305.84,123.18A22.18,22.18,0,1,1,283.66,101a22.18,22.18,0,0,1,22.18,22.18"/></g><g data-stop="stadium"><path d="M148.64,156.33a2.71,2.71,0,0,0,2.34,1.15c1,0,1.79-.56,1.79-1.47s-.91-1.17-2.1-1.51c-1.35-.38-2.35-.93-2.35-2.23s1.11-2.19,2.67-2.19a3.6,3.6,0,0,1,2.7,1.08l-.68.64a2.72,2.72,0,0,0-2-.88c-1,0-1.62.41-1.62,1.24s.78,1.16,1.88,1.47c1.66.45,2.56,1,2.56,2.27,0,1.53-1.27,2.42-2.84,2.42a3.43,3.43,0,0,1-3-1.32Z"/><path d="M156.66,151h-2.34v-.78H160V151h-2.33v7.11h-1Z"/><path d="M162.39,150.26h.93l2.79,7.9h-1.05l-.7-2.12h-3l-.7,2.13h-1Zm1.69,5c-.41-1.29-.83-2.51-1.24-3.87-.39,1.33-.84,2.58-1.26,3.87Z"/><path d="M167.16,150.26h2.38c2.72,0,4,1.33,4,4s-1.3,3.94-3.85,3.94h-2.51Zm2.43,7.11c2.16,0,2.85-1.32,2.85-3.18s-.66-3.15-3-3.15h-1.32v6.33Z"/><path d="M174.87,150.26h1v7.9h-1Z"/><path d="M177.54,150.26h1v5.09c0,1.44.72,2.1,1.9,2.1s1.91-.67,1.91-2.07v-5.12h1v5.19a2.91,2.91,0,0,1-5.83,0Z"/><path d="M184.93,150.26h1.25c.79,2,1.74,4.42,2.36,6.05.62-1.63,1.55-4,2.36-6.05h1.2v7.9h-1c0-2.2,0-4.74,0-6.55-.68,1.85-1.73,4.35-2.62,6.59h-.09c-.82-2-2-5-2.63-6.59,0,1.81,0,4.37,0,6.55h-1Z"/><path d="M148.64,156.33a2.71,2.71,0,0,0,2.34,1.15c1,0,1.79-.56,1.79-1.47s-.91-1.17-2.1-1.51c-1.35-.38-2.35-.93-2.35-2.23s1.11-2.19,2.67-2.19a3.6,3.6,0,0,1,2.7,1.08l-.68.64a2.72,2.72,0,0,0-2-.88c-1,0-1.62.41-1.62,1.24s.78,1.16,1.88,1.47c1.66.45,2.56,1,2.56,2.27,0,1.53-1.27,2.42-2.84,2.42a3.43,3.43,0,0,1-3-1.32Z"/><path d="M156.66,151h-2.34v-.78H160V151h-2.33v7.11h-1Z"/><path d="M162.39,150.26h.93l2.79,7.9h-1.05l-.7-2.12h-3l-.7,2.13h-1Zm1.69,5c-.41-1.29-.83-2.51-1.24-3.87-.39,1.33-.84,2.58-1.26,3.87Z"/><path d="M167.16,150.26h2.38c2.72,0,4,1.33,4,4s-1.3,3.94-3.85,3.94h-2.51Zm2.43,7.11c2.16,0,2.85-1.32,2.85-3.18s-.66-3.15-3-3.15h-1.32v6.33Z"/><path d="M174.87,150.26h1v7.9h-1Z"/><path d="M177.54,150.26h1v5.09c0,1.44.72,2.1,1.9,2.1s1.91-.67,1.91-2.07v-5.12h1v5.19a2.91,2.91,0,0,1-5.83,0Z"/><path d="M184.93,150.26h1.25c.79,2,1.74,4.42,2.36,6.05.62-1.63,1.55-4,2.36-6.05h1.2v7.9h-1c0-2.2,0-4.74,0-6.55-.68,1.85-1.73,4.35-2.62,6.59h-.09c-.82-2-2-5-2.63-6.59,0,1.81,0,4.37,0,6.55h-1Z"/><path class="cls-4" d="M192.19,123.18A22.18,22.18,0,1,1,170,101a22.18,22.18,0,0,1,22.18,22.18"/></g><g data-stop="sodo"><path d="M42.69,156.33A2.71,2.71,0,0,0,45,157.48c1,0,1.79-.56,1.79-1.47s-.91-1.17-2.1-1.51c-1.35-.38-2.35-.93-2.35-2.23s1.11-2.19,2.67-2.19a3.6,3.6,0,0,1,2.7,1.08l-.68.64a2.72,2.72,0,0,0-2-.88c-1,0-1.62.41-1.62,1.24s.78,1.16,1.88,1.47c1.66.45,2.56,1,2.56,2.27,0,1.53-1.27,2.42-2.84,2.42A3.43,3.43,0,0,1,42,157Z"/><path d="M48.76,154.18c0-2.53,1.47-4.09,3.6-4.09S56,151.66,56,154.18s-1.52,4.14-3.62,4.14S48.76,156.7,48.76,154.18Zm6.14,0c0-1.88-.94-3.22-2.56-3.22s-2.51,1.34-2.51,3.22,1,3.27,2.53,3.27S54.9,156.13,54.9,154.18Z"/><path d="M57.24,150.26h2.38c2.72,0,4,1.33,4,4s-1.3,3.94-3.85,3.94H57.24Zm2.43,7.11c2.16,0,2.85-1.32,2.85-3.18s-.66-3.15-3-3.15H58.24v6.33Z"/><path d="M64.53,154.18c0-2.53,1.47-4.09,3.6-4.09s3.62,1.57,3.62,4.09-1.52,4.14-3.62,4.14S64.53,156.7,64.53,154.18Zm6.14,0c0-1.88-.94-3.22-2.56-3.22s-2.51,1.34-2.51,3.22,1,3.27,2.53,3.27S70.67,156.13,70.67,154.18Z"/><path d="M42.69,156.33A2.71,2.71,0,0,0,45,157.48c1,0,1.79-.56,1.79-1.47s-.91-1.17-2.1-1.51c-1.35-.38-2.35-.93-2.35-2.23s1.11-2.19,2.67-2.19a3.6,3.6,0,0,1,2.7,1.08l-.68.64a2.72,2.72,0,0,0-2-.88c-1,0-1.62.41-1.62,1.24s.78,1.16,1.88,1.47c1.66.45,2.56,1,2.56,2.27,0,1.53-1.27,2.42-2.84,2.42A3.43,3.43,0,0,1,42,157Z"/><path d="M48.76,154.18c0-2.53,1.47-4.09,3.6-4.09S56,151.66,56,154.18s-1.52,4.14-3.62,4.14S48.76,156.7,48.76,154.18Zm6.14,0c0-1.88-.94-3.22-2.56-3.22s-2.51,1.34-2.51,3.22,1,3.27,2.53,3.27S54.9,156.13,54.9,154.18Z"/><path d="M57.24,150.26h2.38c2.72,0,4,1.33,4,4s-1.3,3.94-3.85,3.94H57.24Zm2.43,7.11c2.16,0,2.85-1.32,2.85-3.18s-.66-3.15-3-3.15H58.24v6.33Z"/><path d="M64.53,154.18c0-2.53,1.47-4.09,3.6-4.09s3.62,1.57,3.62,4.09-1.52,4.14-3.62,4.14S64.53,156.7,64.53,154.18Zm6.14,0c0-1.88-.94-3.22-2.56-3.22s-2.51,1.34-2.51,3.22,1,3.27,2.53,3.27S70.67,156.13,70.67,154.18Z"/><path class="cls-4" d="M79.54,123.18A22.18,22.18,0,1,1,57.36,101a22.18,22.18,0,0,1,22.18,22.18"/></g><g data-stop="beacon" data-name="Beacon Hill"><path d="M37.67,246.86h2.66c1.3,0,2.56.47,2.56,2a1.76,1.76,0,0,1-1.62,1.79,1.93,1.93,0,0,1,1.86,2c0,1.62-1.15,2.17-2.7,2.17H37.67Zm2.3,3.39c.87,0,1.86-.15,1.86-1.37,0-1-.78-1.24-1.68-1.24H38.68v2.61Zm.3,3.72c.9,0,1.78-.31,1.78-1.5s-.94-1.45-1.9-1.45H38.68v3Z"/><path d="M44.39,246.86h4.7v.78H45.4v2.59h2.87V251H45.4v3h3.85v.78H44.39Z"/><path d="M52.8,246.86h.93l2.78,7.9H55.46l-.71-2.12h-3l-.7,2.13H50Zm1.69,5c-.41-1.29-.83-2.51-1.24-3.87-.39,1.33-.84,2.58-1.26,3.87Z"/><path d="M63.67,253.09a3.23,3.23,0,0,1-3.13,1.83c-2.36,0-3.6-1.81-3.6-4.15s1.28-4.08,3.6-4.08a3.34,3.34,0,0,1,3.07,1.64l-1,.48a2.31,2.31,0,0,0-2.11-1.25c-1.68,0-2.54,1.42-2.54,3.21s.89,3.28,2.54,3.28a2.2,2.2,0,0,0,2.18-1.44Z"/><path d="M64.35,250.79c0-2.53,1.46-4.09,3.6-4.09s3.62,1.57,3.62,4.09-1.52,4.14-3.62,4.14S64.35,253.3,64.35,250.79Zm6.14,0c0-1.88-.94-3.22-2.56-3.22s-2.5,1.34-2.5,3.22,1,3.27,2.53,3.27S70.5,252.73,70.5,250.79Z"/><path d="M72.83,246.86H74c1.38,2.39,2.64,4.52,3.77,6.55-.06-2.23,0-4.37,0-6.55h1v7.9H77.52c-1.28-2.2-2.72-4.66-3.77-6.55,0,2.24,0,4.37,0,6.55h-1Z"/><path d="M46.66,260.28h1v3.41h3.86v-3.41h1v7.9h-1v-3.65H47.67v3.65h-1Z"/><path d="M54.2,260.28h1v7.9h-1Z"/><path d="M56.87,260.28h1v7.11h3.77v.78H56.87Z"/><path d="M62.81,260.28h1v7.11h3.77v.78H62.81Z"/><path d="M37.67,246.86h2.66c1.3,0,2.56.47,2.56,2a1.76,1.76,0,0,1-1.62,1.79,1.93,1.93,0,0,1,1.86,2c0,1.62-1.15,2.17-2.7,2.17H37.67Zm2.3,3.39c.87,0,1.86-.15,1.86-1.37,0-1-.78-1.24-1.68-1.24H38.68v2.61Zm.3,3.72c.9,0,1.78-.31,1.78-1.5s-.94-1.45-1.9-1.45H38.68v3Z"/><path d="M44.39,246.86h4.7v.78H45.4v2.59h2.87V251H45.4v3h3.85v.78H44.39Z"/><path d="M52.8,246.86h.93l2.78,7.9H55.46l-.71-2.12h-3l-.7,2.13H50Zm1.69,5c-.41-1.29-.83-2.51-1.24-3.87-.39,1.33-.84,2.58-1.26,3.87Z"/><path d="M63.67,253.09a3.23,3.23,0,0,1-3.13,1.83c-2.36,0-3.6-1.81-3.6-4.15s1.28-4.08,3.6-4.08a3.34,3.34,0,0,1,3.07,1.64l-1,.48a2.31,2.31,0,0,0-2.11-1.25c-1.68,0-2.54,1.42-2.54,3.21s.89,3.28,2.54,3.28a2.2,2.2,0,0,0,2.18-1.44Z"/><path d="M64.35,250.79c0-2.53,1.46-4.09,3.6-4.09s3.62,1.57,3.62,4.09-1.52,4.14-3.62,4.14S64.35,253.3,64.35,250.79Zm6.14,0c0-1.88-.94-3.22-2.56-3.22s-2.5,1.34-2.5,3.22,1,3.27,2.53,3.27S70.5,252.73,70.5,250.79Z"/><path d="M72.83,246.86H74c1.38,2.39,2.64,4.52,3.77,6.55-.06-2.23,0-4.37,0-6.55h1v7.9H77.52c-1.28-2.2-2.72-4.66-3.77-6.55,0,2.24,0,4.37,0,6.55h-1Z"/><path d="M46.66,260.28h1v3.41h3.86v-3.41h1v7.9h-1v-3.65H47.67v3.65h-1Z"/><path d="M54.2,260.28h1v7.9h-1Z"/><path d="M56.87,260.28h1v7.11h3.77v.78H56.87Z"/><path d="M62.81,260.28h1v7.11h3.77v.78H62.81Z"/><path class="cls-4" d="M79.54,218.48a22.18,22.18,0,1,1-22.18-22.18,22.18,22.18,0,0,1,22.18,22.18"/></g><g data-stop="baker" data-name="Mount Baker"><path d="M152.08,247.86h1.25c.79,2,1.75,4.42,2.36,6.05.62-1.63,1.55-4,2.36-6.05h1.2v7.9h-1c0-2.2,0-4.74,0-6.55-.68,1.85-1.73,4.35-2.62,6.59h-.09c-.82-2-2-5-2.63-6.59,0,1.81,0,4.37,0,6.55h-1Z"/><path d="M160.5,251.79c0-2.53,1.46-4.09,3.6-4.09s3.62,1.57,3.62,4.09-1.52,4.14-3.62,4.14S160.5,254.3,160.5,251.79Zm6.14,0c0-1.88-.94-3.22-2.56-3.22s-2.5,1.34-2.5,3.22,1,3.27,2.53,3.27S166.64,253.73,166.64,251.79Z"/><path d="M169,247.86h1V253c0,1.44.71,2.1,1.9,2.1s1.91-.67,1.91-2.07v-5.12h1v5.19a2.91,2.91,0,0,1-5.83,0Z"/><path d="M176.37,247.86h1.17c1.38,2.39,2.64,4.52,3.77,6.55-.06-2.23,0-4.37,0-6.55h1v7.9h-1.16c-1.28-2.2-2.72-4.66-3.77-6.55,0,2.24,0,4.37,0,6.55h-1Z"/><path d="M185.6,248.64h-2.34v-.78h5.67v.78H186.6v7.11h-1Z"/><path d="M154.11,261.28h2.66c1.3,0,2.56.47,2.56,2a1.76,1.76,0,0,1-1.62,1.79,1.93,1.93,0,0,1,1.86,2c0,1.62-1.15,2.17-2.7,2.17h-2.76Zm2.3,3.39c.87,0,1.86-.15,1.86-1.36,0-1-.78-1.24-1.68-1.24h-1.48v2.61Zm.3,3.72c.9,0,1.78-.31,1.78-1.5s-.94-1.45-1.9-1.45h-1.48v3Z"/><path d="M163,261.28h.93l2.78,7.9h-1.05l-.71-2.12h-3l-.7,2.13h-1Zm1.69,5c-.41-1.29-.83-2.51-1.24-3.87-.39,1.33-.84,2.58-1.26,3.87Z"/><path d="M167.73,261.28h1v4.09l3.58-4.09h1.2l-2.91,3.27,3.27,4.63h-1.19l-2.74-3.88-1.21,1.35v2.53h-1Z"/><path d="M174.89,261.28h4.7v.78h-3.69v2.6h2.88v.78h-2.87v3h3.85v.78h-4.85Z"/><path d="M181,261.28h2.57c1.63,0,2.8.67,2.8,2.24a2,2,0,0,1-2.06,2,1.56,1.56,0,0,1,1,.85l1.57,2.77h-1.19l-1.24-2.31a1.5,1.5,0,0,0-1.44-1h-1v3.32h-1Zm2.59,3.77c1,0,1.7-.46,1.7-1.51s-.67-1.48-1.72-1.48H182v3Z"/><path d="M152.08,247.86h1.25c.79,2,1.75,4.42,2.36,6.05.62-1.63,1.55-4,2.36-6.05h1.2v7.9h-1c0-2.2,0-4.74,0-6.55-.68,1.85-1.73,4.35-2.62,6.59h-.09c-.82-2-2-5-2.63-6.59,0,1.81,0,4.37,0,6.55h-1Z"/><path d="M160.5,251.79c0-2.53,1.46-4.09,3.6-4.09s3.62,1.57,3.62,4.09-1.52,4.14-3.62,4.14S160.5,254.3,160.5,251.79Zm6.14,0c0-1.88-.94-3.22-2.56-3.22s-2.5,1.34-2.5,3.22,1,3.27,2.53,3.27S166.64,253.73,166.64,251.79Z"/><path d="M169,247.86h1V253c0,1.44.71,2.1,1.9,2.1s1.91-.67,1.91-2.07v-5.12h1v5.19a2.91,2.91,0,0,1-5.83,0Z"/><path d="M176.37,247.86h1.17c1.38,2.39,2.64,4.52,3.77,6.55-.06-2.23,0-4.37,0-6.55h1v7.9h-1.16c-1.28-2.2-2.72-4.66-3.77-6.55,0,2.24,0,4.37,0,6.55h-1Z"/><path d="M185.6,248.64h-2.34v-.78h5.67v.78H186.6v7.11h-1Z"/><path d="M154.11,261.28h2.66c1.3,0,2.56.47,2.56,2a1.76,1.76,0,0,1-1.62,1.79,1.93,1.93,0,0,1,1.86,2c0,1.62-1.15,2.17-2.7,2.17h-2.76Zm2.3,3.39c.87,0,1.86-.15,1.86-1.36,0-1-.78-1.24-1.68-1.24h-1.48v2.61Zm.3,3.72c.9,0,1.78-.31,1.78-1.5s-.94-1.45-1.9-1.45h-1.48v3Z"/><path d="M163,261.28h.93l2.78,7.9h-1.05l-.71-2.12h-3l-.7,2.13h-1Zm1.69,5c-.41-1.29-.83-2.51-1.24-3.87-.39,1.33-.84,2.58-1.26,3.87Z"/><path d="M167.73,261.28h1v4.09l3.58-4.09h1.2l-2.91,3.27,3.27,4.63h-1.19l-2.74-3.88-1.21,1.35v2.53h-1Z"/><path d="M174.89,261.28h4.7v.78h-3.69v2.6h2.88v.78h-2.87v3h3.85v.78h-4.85Z"/><path d="M181,261.28h2.57c1.63,0,2.8.67,2.8,2.24a2,2,0,0,1-2.06,2,1.56,1.56,0,0,1,1,.85l1.57,2.77h-1.19l-1.24-2.31a1.5,1.5,0,0,0-1.44-1h-1v3.32h-1Zm2.59,3.77c1,0,1.7-.46,1.7-1.51s-.67-1.48-1.72-1.48H182v3Z"/><path class="cls-4" d="M192.19,218.48A22.18,22.18,0,1,1,170,196.31a22.18,22.18,0,0,1,22.18,22.18"/></g><g data-stop="columbia" data-name="Columbia City"><path d="M264.72,253.09a3.23,3.23,0,0,1-3.13,1.83c-2.36,0-3.6-1.81-3.6-4.15s1.28-4.08,3.6-4.08a3.34,3.34,0,0,1,3.07,1.64l-1,.48a2.31,2.31,0,0,0-2.11-1.25c-1.68,0-2.54,1.42-2.54,3.21s.89,3.28,2.54,3.28a2.2,2.2,0,0,0,2.18-1.44Z"/><path d="M265.4,250.79c0-2.53,1.46-4.09,3.6-4.09s3.62,1.57,3.62,4.09-1.52,4.14-3.62,4.14S265.4,253.3,265.4,250.79Zm6.14,0c0-1.88-.94-3.22-2.56-3.22s-2.5,1.34-2.5,3.22,1,3.27,2.53,3.27S271.54,252.73,271.54,250.79Z"/><path d="M273.88,246.86h1V254h3.77v.78h-4.78Z"/><path d="M279.48,246.86h1V252c0,1.44.71,2.1,1.9,2.1s1.91-.67,1.91-2.07v-5.12h1v5.19a2.91,2.91,0,0,1-5.83,0Z"/><path d="M286.88,246.86h1.25c.79,2,1.75,4.42,2.36,6.05.62-1.63,1.55-4,2.36-6.05H294v7.9h-1c0-2.2,0-4.74,0-6.55-.68,1.84-1.73,4.35-2.62,6.59h-.09c-.82-2-2-5-2.63-6.59,0,1.81,0,4.37,0,6.55h-1Z"/><path d="M295.61,246.86h2.66c1.3,0,2.56.47,2.56,2a1.76,1.76,0,0,1-1.62,1.79,1.93,1.93,0,0,1,1.86,2c0,1.62-1.15,2.17-2.7,2.17h-2.76Zm2.3,3.39c.87,0,1.86-.15,1.86-1.37,0-1-.78-1.24-1.68-1.24h-1.48v2.61Zm.3,3.72c.9,0,1.78-.31,1.78-1.5s-.94-1.45-1.9-1.45h-1.48v3Z"/><path d="M302.43,246.86h1v7.9h-1Z"/><path d="M307.41,246.86h.93l2.79,7.9h-1.05l-.71-2.12h-3l-.7,2.13h-1Zm1.69,5c-.41-1.29-.83-2.51-1.24-3.87-.39,1.33-.84,2.58-1.26,3.87Z"/><path d="M279.86,266.51a3.23,3.23,0,0,1-3.13,1.83c-2.36,0-3.6-1.81-3.6-4.15s1.28-4.08,3.6-4.08a3.34,3.34,0,0,1,3.07,1.64l-1,.48a2.31,2.31,0,0,0-2.11-1.25c-1.68,0-2.54,1.42-2.54,3.21s.89,3.28,2.54,3.28a2.2,2.2,0,0,0,2.18-1.44Z"/><path d="M281.19,260.28h1v7.9h-1Z"/><path d="M285.66,261.06h-2.34v-.78H289v.78h-2.33v7.11h-1Z"/><path d="M292.27,264.61l-2.67-4.33h1.15l2,3.55,2.09-3.55H296l-2.74,4.33v3.57h-1Z"/><path d="M264.72,253.09a3.23,3.23,0,0,1-3.13,1.83c-2.36,0-3.6-1.81-3.6-4.15s1.28-4.08,3.6-4.08a3.34,3.34,0,0,1,3.07,1.64l-1,.48a2.31,2.31,0,0,0-2.11-1.25c-1.68,0-2.54,1.42-2.54,3.21s.89,3.28,2.54,3.28a2.2,2.2,0,0,0,2.18-1.44Z"/><path d="M265.4,250.79c0-2.53,1.46-4.09,3.6-4.09s3.62,1.57,3.62,4.09-1.52,4.14-3.62,4.14S265.4,253.3,265.4,250.79Zm6.14,0c0-1.88-.94-3.22-2.56-3.22s-2.5,1.34-2.5,3.22,1,3.27,2.53,3.27S271.54,252.73,271.54,250.79Z"/><path d="M273.88,246.86h1V254h3.77v.78h-4.78Z"/><path d="M279.48,246.86h1V252c0,1.44.71,2.1,1.9,2.1s1.91-.67,1.91-2.07v-5.12h1v5.19a2.91,2.91,0,0,1-5.83,0Z"/><path d="M286.88,246.86h1.25c.79,2,1.75,4.42,2.36,6.05.62-1.63,1.55-4,2.36-6.05H294v7.9h-1c0-2.2,0-4.74,0-6.55-.68,1.84-1.73,4.35-2.62,6.59h-.09c-.82-2-2-5-2.63-6.59,0,1.81,0,4.37,0,6.55h-1Z"/><path d="M295.61,246.86h2.66c1.3,0,2.56.47,2.56,2a1.76,1.76,0,0,1-1.62,1.79,1.93,1.93,0,0,1,1.86,2c0,1.62-1.15,2.17-2.7,2.17h-2.76Zm2.3,3.39c.87,0,1.86-.15,1.86-1.37,0-1-.78-1.24-1.68-1.24h-1.48v2.61Zm.3,3.72c.9,0,1.78-.31,1.78-1.5s-.94-1.45-1.9-1.45h-1.48v3Z"/><path d="M302.43,246.86h1v7.9h-1Z"/><path d="M307.41,246.86h.93l2.79,7.9h-1.05l-.71-2.12h-3l-.7,2.13h-1Zm1.69,5c-.41-1.29-.83-2.51-1.24-3.87-.39,1.33-.84,2.58-1.26,3.87Z"/><path d="M279.86,266.51a3.23,3.23,0,0,1-3.13,1.83c-2.36,0-3.6-1.81-3.6-4.15s1.28-4.08,3.6-4.08a3.34,3.34,0,0,1,3.07,1.64l-1,.48a2.31,2.31,0,0,0-2.11-1.25c-1.68,0-2.54,1.42-2.54,3.21s.89,3.28,2.54,3.28a2.2,2.2,0,0,0,2.18-1.44Z"/><path d="M281.19,260.28h1v7.9h-1Z"/><path d="M285.66,261.06h-2.34v-.78H289v.78h-2.33v7.11h-1Z"/><path d="M292.27,264.61l-2.67-4.33h1.15l2,3.55,2.09-3.55H296l-2.74,4.33v3.57h-1Z"/><path class="cls-4" d="M305.84,218.48a22.18,22.18,0,1,1-22.18-22.18,22.18,22.18,0,0,1,22.18,22.18"/></g><g data-stop="othello"><path d="M374.44,251.79c0-2.53,1.46-4.09,3.6-4.09s3.62,1.57,3.62,4.09-1.52,4.14-3.62,4.14S374.44,254.3,374.44,251.79Zm6.14,0c0-1.88-.94-3.22-2.56-3.22s-2.5,1.34-2.5,3.22,1,3.27,2.53,3.27S380.58,253.73,380.58,251.79Z"/><path d="M384.23,248.64H381.9v-.78h5.67v.78h-2.33v7.11h-1Z"/><path d="M388.6,247.86h1v3.41h3.86v-3.41h1v7.9h-1v-3.65H389.6v3.65h-1Z"/><path d="M396,247.86h4.7v.78H397v2.59h2.87V252H397v3h3.85v.78H396Z"/><path d="M402.14,247.86h1V255h3.77v.78h-4.78Z"/><path d="M408.08,247.86h1V255h3.77v.78h-4.78Z"/><path d="M413.13,251.79c0-2.53,1.46-4.09,3.6-4.09s3.62,1.57,3.62,4.09-1.52,4.14-3.62,4.14S413.13,254.3,413.13,251.79Zm6.14,0c0-1.88-.94-3.22-2.56-3.22s-2.5,1.34-2.5,3.22,1,3.27,2.53,3.27S419.27,253.73,419.27,251.79Z"/><path d="M374.44,251.79c0-2.53,1.46-4.09,3.6-4.09s3.62,1.57,3.62,4.09-1.52,4.14-3.62,4.14S374.44,254.3,374.44,251.79Zm6.14,0c0-1.88-.94-3.22-2.56-3.22s-2.5,1.34-2.5,3.22,1,3.27,2.53,3.27S380.58,253.73,380.58,251.79Z"/><path d="M384.23,248.64H381.9v-.78h5.67v.78h-2.33v7.11h-1Z"/><path d="M388.6,247.86h1v3.41h3.86v-3.41h1v7.9h-1v-3.65H389.6v3.65h-1Z"/><path d="M396,247.86h4.7v.78H397v2.59h2.87V252H397v3h3.85v.78H396Z"/><path d="M402.14,247.86h1V255h3.77v.78h-4.78Z"/><path d="M408.08,247.86h1V255h3.77v.78h-4.78Z"/><path d="M413.13,251.79c0-2.53,1.46-4.09,3.6-4.09s3.62,1.57,3.62,4.09-1.52,4.14-3.62,4.14S413.13,254.3,413.13,251.79Zm6.14,0c0-1.88-.94-3.22-2.56-3.22s-2.5,1.34-2.5,3.22,1,3.27,2.53,3.27S419.27,253.73,419.27,251.79Z"/><path class="cls-4" d="M418.12,218.48a22.18,22.18,0,1,1-22.18-22.18,22.18,22.18,0,0,1,22.18,22.18"/></g><g data-stop="rainier" data-name="Rainier Beach"><path d="M376.91,343h2.57c1.63,0,2.8.67,2.8,2.24a2,2,0,0,1-2.06,2,1.56,1.56,0,0,1,1,.85l1.57,2.77h-1.19l-1.24-2.32a1.5,1.5,0,0,0-1.44-1h-1v3.32h-1Zm2.59,3.77c1,0,1.7-.46,1.7-1.51s-.67-1.48-1.72-1.48h-1.57v3Z"/><path d="M386.15,343h.93l2.78,7.9h-1.05l-.71-2.12h-3l-.7,2.13h-1Zm1.69,5c-.41-1.29-.83-2.5-1.24-3.87-.39,1.33-.84,2.58-1.26,3.87Z"/><path d="M391,343h1v7.9h-1Z"/><path d="M393.7,343h1.17c1.38,2.39,2.64,4.52,3.77,6.55-.06-2.23,0-4.37,0-6.55h1v7.9h-1.16c-1.28-2.2-2.72-4.66-3.77-6.55,0,2.24,0,4.37,0,6.55h-1Z"/><path d="M401.22,343h1v7.9h-1Z"/><path d="M403.9,343h4.7v.78H404.9v2.59h2.87v.78H404.9v3h3.85v.78H403.9Z"/><path d="M410,343h2.57c1.63,0,2.8.67,2.8,2.24a2,2,0,0,1-2.06,2,1.56,1.56,0,0,1,1,.85l1.57,2.77h-1.19l-1.24-2.32a1.5,1.5,0,0,0-1.44-1h-1v3.32h-1Zm2.59,3.77c1,0,1.7-.46,1.7-1.51s-.67-1.48-1.72-1.48H411v3Z"/><path d="M380.85,356.47h2.66c1.3,0,2.56.47,2.56,2a1.76,1.76,0,0,1-1.62,1.79,1.93,1.93,0,0,1,1.86,2c0,1.62-1.15,2.17-2.7,2.17h-2.76Zm2.3,3.39c.87,0,1.86-.15,1.86-1.36,0-1-.78-1.24-1.68-1.24h-1.48v2.61Zm.3,3.72c.9,0,1.78-.31,1.78-1.5s-.94-1.45-1.9-1.45h-1.48v3Z"/><path d="M387.57,356.47h4.7v.78h-3.69v2.59h2.87v.78h-2.87v3h3.85v.78h-4.85Z"/><path d="M396,356.47h.93l2.79,7.9h-1.05l-.71-2.12h-3l-.7,2.13h-1Zm1.69,5c-.41-1.29-.83-2.5-1.24-3.87-.39,1.33-.84,2.58-1.26,3.87Z"/><path d="M406.85,362.7a3.23,3.23,0,0,1-3.13,1.83c-2.36,0-3.6-1.81-3.6-4.15s1.28-4.08,3.6-4.08a3.34,3.34,0,0,1,3.07,1.64l-1,.48a2.31,2.31,0,0,0-2.11-1.25c-1.68,0-2.54,1.42-2.54,3.21s.89,3.28,2.54,3.28a2.2,2.2,0,0,0,2.18-1.44Z"/><path d="M408.08,356.47h1v3.41h3.86v-3.41h1v7.9h-1v-3.65h-3.86v3.65h-1Z"/><path d="M376.91,343h2.57c1.63,0,2.8.67,2.8,2.24a2,2,0,0,1-2.06,2,1.56,1.56,0,0,1,1,.85l1.57,2.77h-1.19l-1.24-2.32a1.5,1.5,0,0,0-1.44-1h-1v3.32h-1Zm2.59,3.77c1,0,1.7-.46,1.7-1.51s-.67-1.48-1.72-1.48h-1.57v3Z"/><path d="M386.15,343h.93l2.78,7.9h-1.05l-.71-2.12h-3l-.7,2.13h-1Zm1.69,5c-.41-1.29-.83-2.5-1.24-3.87-.39,1.33-.84,2.58-1.26,3.87Z"/><path d="M391,343h1v7.9h-1Z"/><path d="M393.7,343h1.17c1.38,2.39,2.64,4.52,3.77,6.55-.06-2.23,0-4.37,0-6.55h1v7.9h-1.16c-1.28-2.2-2.72-4.66-3.77-6.55,0,2.24,0,4.37,0,6.55h-1Z"/><path d="M401.22,343h1v7.9h-1Z"/><path d="M403.9,343h4.7v.78H404.9v2.59h2.87v.78H404.9v3h3.85v.78H403.9Z"/><path d="M410,343h2.57c1.63,0,2.8.67,2.8,2.24a2,2,0,0,1-2.06,2,1.56,1.56,0,0,1,1,.85l1.57,2.77h-1.19l-1.24-2.32a1.5,1.5,0,0,0-1.44-1h-1v3.32h-1Zm2.59,3.77c1,0,1.7-.46,1.7-1.51s-.67-1.48-1.72-1.48H411v3Z"/><path d="M380.85,356.47h2.66c1.3,0,2.56.47,2.56,2a1.76,1.76,0,0,1-1.62,1.79,1.93,1.93,0,0,1,1.86,2c0,1.62-1.15,2.17-2.7,2.17h-2.76Zm2.3,3.39c.87,0,1.86-.15,1.86-1.36,0-1-.78-1.24-1.68-1.24h-1.48v2.61Zm.3,3.72c.9,0,1.78-.31,1.78-1.5s-.94-1.45-1.9-1.45h-1.48v3Z"/><path d="M387.57,356.47h4.7v.78h-3.69v2.59h2.87v.78h-2.87v3h3.85v.78h-4.85Z"/><path d="M396,356.47h.93l2.79,7.9h-1.05l-.71-2.12h-3l-.7,2.13h-1Zm1.69,5c-.41-1.29-.83-2.5-1.24-3.87-.39,1.33-.84,2.58-1.26,3.87Z"/><path d="M406.85,362.7a3.23,3.23,0,0,1-3.13,1.83c-2.36,0-3.6-1.81-3.6-4.15s1.28-4.08,3.6-4.08a3.34,3.34,0,0,1,3.07,1.64l-1,.48a2.31,2.31,0,0,0-2.11-1.25c-1.68,0-2.54,1.42-2.54,3.21s.89,3.28,2.54,3.28a2.2,2.2,0,0,0,2.18-1.44Z"/><path d="M408.08,356.47h1v3.41h3.86v-3.41h1v7.9h-1v-3.65h-3.86v3.65h-1Z"/><path class="cls-4" d="M418.12,315.22A22.18,22.18,0,1,1,395.94,293a22.18,22.18,0,0,1,22.18,22.18"/></g><g data-stop="tukwila"><path d="M263.65,344.83h-2.34V344H267v.78h-2.33v7.11h-1Z"/><path d="M268,344h1v5.09c0,1.44.72,2.1,1.9,2.1s1.91-.67,1.91-2.07V344h1v5.19a2.91,2.91,0,0,1-5.83,0Z"/><path d="M275.4,344h1v4.09L280,344h1.2l-2.91,3.27,3.27,4.63h-1.19l-2.74-3.88-1.21,1.35v2.53h-1Z"/><path d="M282,344h1.07c.51,2.14,1.16,4.64,1.61,6.57.42-1.81,1.16-4.44,1.77-6.57h.86c.65,2.36,1.38,4.73,1.83,6.55.39-1.92,1-4.08,1.55-6.55h1.06l-2.16,7.9h-1c-.65-2.29-1.33-4.49-1.81-6.38-.45,1.91-1.14,4.32-1.72,6.38h-1Z"/><path d="M292.94,344h1v7.9h-1Z"/><path d="M295.61,344h1v7.11h3.77v.78h-4.78Z"/><path d="M303.86,344h.93l2.79,7.9h-1.05l-.71-2.12h-3l-.7,2.13h-1Zm1.69,5c-.41-1.29-.83-2.5-1.24-3.87-.39,1.33-.84,2.58-1.26,3.87Z"/><path d="M258.74,357.47h1v7.9h-1Z"/><path d="M261.41,357.47h1.17c1.38,2.39,2.64,4.52,3.77,6.55-.06-2.23,0-4.37,0-6.55h1v7.9H266.1c-1.28-2.2-2.72-4.66-3.77-6.55,0,2.24,0,4.37,0,6.55h-1Z"/><path d="M270.64,358.25H268.3v-.78H274v.78h-2.33v7.11h-1Z"/><path d="M274.84,359.52a.8.8,0,0,0,.5-.84v-.15h-.49v-1.06h1.05v1.16a1.24,1.24,0,0,1-.85,1.33Z"/><path d="M277.32,357.47h1v7.11h3.77v.78h-4.78Z"/><path d="M285.77,357.47h2.66c1.3,0,2.56.47,2.56,2a1.76,1.76,0,0,1-1.62,1.79,1.93,1.93,0,0,1,1.86,2c0,1.62-1.15,2.17-2.7,2.17h-2.76Zm2.3,3.39c.87,0,1.86-.15,1.86-1.36,0-1-.78-1.24-1.68-1.24h-1.48v2.61Zm.3,3.72c.9,0,1.78-.31,1.78-1.5s-.94-1.45-1.9-1.45h-1.48v3Z"/><path d="M292.49,357.47h1v7.11h3.77v.78h-4.78Z"/><path d="M296.7,357.47h1.07c.76,2.33,1.6,4.73,2.21,6.77.62-2.06,1.44-4.44,2.2-6.77h1.05l-2.8,7.9h-1Z"/><path d="M304.24,357.47h2.38c2.72,0,4,1.33,4,4s-1.3,3.94-3.85,3.94h-2.5Zm2.43,7.11c2.16,0,2.85-1.32,2.85-3.18s-.66-3.15-3-3.15h-1.32v6.33Z"/><path d="M263.65,344.83h-2.34V344H267v.78h-2.33v7.11h-1Z"/><path d="M268,344h1v5.09c0,1.44.72,2.1,1.9,2.1s1.91-.67,1.91-2.07V344h1v5.19a2.91,2.91,0,0,1-5.83,0Z"/><path d="M275.4,344h1v4.09L280,344h1.2l-2.91,3.27,3.27,4.63h-1.19l-2.74-3.88-1.21,1.35v2.53h-1Z"/><path d="M282,344h1.07c.51,2.14,1.16,4.64,1.61,6.57.42-1.81,1.16-4.44,1.77-6.57h.86c.65,2.36,1.38,4.73,1.83,6.55.39-1.92,1-4.08,1.55-6.55h1.06l-2.16,7.9h-1c-.65-2.29-1.33-4.49-1.81-6.38-.45,1.91-1.14,4.32-1.72,6.38h-1Z"/><path d="M292.94,344h1v7.9h-1Z"/><path d="M295.61,344h1v7.11h3.77v.78h-4.78Z"/><path d="M303.86,344h.93l2.79,7.9h-1.05l-.71-2.12h-3l-.7,2.13h-1Zm1.69,5c-.41-1.29-.83-2.5-1.24-3.87-.39,1.33-.84,2.58-1.26,3.87Z"/><path d="M258.74,357.47h1v7.9h-1Z"/><path d="M261.41,357.47h1.17c1.38,2.39,2.64,4.52,3.77,6.55-.06-2.23,0-4.37,0-6.55h1v7.9H266.1c-1.28-2.2-2.72-4.66-3.77-6.55,0,2.24,0,4.37,0,6.55h-1Z"/><path d="M270.64,358.25H268.3v-.78H274v.78h-2.33v7.11h-1Z"/><path d="M274.84,359.52a.8.8,0,0,0,.5-.84v-.15h-.49v-1.06h1.05v1.16a1.24,1.24,0,0,1-.85,1.33Z"/><path d="M277.32,357.47h1v7.11h3.77v.78h-4.78Z"/><path d="M285.77,357.47h2.66c1.3,0,2.56.47,2.56,2a1.76,1.76,0,0,1-1.62,1.79,1.93,1.93,0,0,1,1.86,2c0,1.62-1.15,2.17-2.7,2.17h-2.76Zm2.3,3.39c.87,0,1.86-.15,1.86-1.36,0-1-.78-1.24-1.68-1.24h-1.48v2.61Zm.3,3.72c.9,0,1.78-.31,1.78-1.5s-.94-1.45-1.9-1.45h-1.48v3Z"/><path d="M292.49,357.47h1v7.11h3.77v.78h-4.78Z"/><path d="M296.7,357.47h1.07c.76,2.33,1.6,4.73,2.21,6.77.62-2.06,1.44-4.44,2.2-6.77h1.05l-2.8,7.9h-1Z"/><path d="M304.24,357.47h2.38c2.72,0,4,1.33,4,4s-1.3,3.94-3.85,3.94h-2.5Zm2.43,7.11c2.16,0,2.85-1.32,2.85-3.18s-.66-3.15-3-3.15h-1.32v6.33Z"/><path class="cls-4" d="M305.84,315.22A22.18,22.18,0,1,1,283.66,293a22.18,22.18,0,0,1,22.18,22.18"/></g><g data-stop="seatac"><path d="M152,351.12a2.72,2.72,0,0,0,2.34,1.15c1,0,1.79-.56,1.79-1.46s-.91-1.17-2.1-1.51c-1.35-.38-2.35-.93-2.35-2.23s1.11-2.19,2.67-2.19a3.59,3.59,0,0,1,2.7,1.08l-.68.64a2.72,2.72,0,0,0-2-.88c-1,0-1.62.41-1.62,1.24s.78,1.16,1.88,1.46c1.66.45,2.56,1,2.56,2.27,0,1.53-1.28,2.42-2.84,2.42a3.43,3.43,0,0,1-3-1.32Z"/><path d="M158.41,345h4.7v.78h-3.69v2.59h2.88v.78h-2.87v3h3.85v.78h-4.85Z"/><path d="M166.82,345h.93l2.79,7.9h-1.05l-.71-2.12h-3l-.7,2.13h-1Zm1.69,5c-.41-1.29-.83-2.51-1.24-3.87-.39,1.33-.84,2.58-1.26,3.87Z"/><path d="M172.46,345.83h-2.34V345h5.67v.78h-2.33v7.11h-1Z"/><path d="M178.19,345h.93l2.79,7.9h-1.05l-.71-2.12h-3l-.7,2.13h-1Zm1.69,5c-.41-1.29-.83-2.51-1.24-3.87-.39,1.33-.84,2.58-1.26,3.87Z"/><path d="M189.06,351.28a3.23,3.23,0,0,1-3.13,1.83c-2.36,0-3.6-1.81-3.6-4.15s1.28-4.08,3.6-4.08a3.34,3.34,0,0,1,3.07,1.64l-1,.48a2.31,2.31,0,0,0-2.11-1.25c-1.68,0-2.54,1.42-2.54,3.21s.89,3.28,2.54,3.28a2.2,2.2,0,0,0,2.18-1.44Z"/><path d="M151.18,358.47h.93l2.79,7.9h-1.05l-.71-2.12h-3l-.7,2.13h-1Zm1.69,5c-.41-1.29-.83-2.51-1.24-3.87-.39,1.33-.84,2.58-1.26,3.87Z"/><path d="M156.06,358.47h1v7.9h-1Z"/><path d="M158.73,358.47h2.57c1.63,0,2.8.67,2.8,2.24a2,2,0,0,1-2.06,2,1.56,1.56,0,0,1,1,.85l1.57,2.77h-1.19L162.15,364a1.5,1.5,0,0,0-1.44-1h-1v3.32h-1Zm2.59,3.77c1,0,1.7-.46,1.7-1.51s-.67-1.48-1.72-1.48h-1.57v3Z"/><path d="M165.67,358.47h2.65c1.59,0,2.74.69,2.74,2.29,0,1.8-1.19,2.45-2.73,2.45h-1.66v3.15h-1Zm2.49,3.94c1.15,0,1.83-.46,1.83-1.64s-.78-1.51-1.8-1.51h-1.52v3.15Z"/><path d="M171.92,362.39c0-2.53,1.46-4.09,3.6-4.09s3.62,1.57,3.62,4.09-1.52,4.14-3.62,4.14S171.92,364.91,171.92,362.39Zm6.14,0c0-1.88-.94-3.22-2.56-3.22s-2.5,1.34-2.5,3.22,1,3.27,2.53,3.27S178.06,364.34,178.06,362.39Z"/><path d="M180.39,358.47H183c1.63,0,2.8.67,2.8,2.24a2,2,0,0,1-2.06,2,1.56,1.56,0,0,1,1,.85l1.57,2.77h-1.19L183.82,364a1.5,1.5,0,0,0-1.44-1h-1v3.32h-1Zm2.59,3.77c1,0,1.7-.46,1.7-1.51s-.67-1.48-1.72-1.48H181.4v3Z"/><path d="M188.79,359.25h-2.34v-.78h5.67v.78H189.8v7.11h-1Z"/><path d="M152,351.12a2.72,2.72,0,0,0,2.34,1.15c1,0,1.79-.56,1.79-1.46s-.91-1.17-2.1-1.51c-1.35-.38-2.35-.93-2.35-2.23s1.11-2.19,2.67-2.19a3.59,3.59,0,0,1,2.7,1.08l-.68.64a2.72,2.72,0,0,0-2-.88c-1,0-1.62.41-1.62,1.24s.78,1.16,1.88,1.46c1.66.45,2.56,1,2.56,2.27,0,1.53-1.28,2.42-2.84,2.42a3.43,3.43,0,0,1-3-1.32Z"/><path d="M158.41,345h4.7v.78h-3.69v2.59h2.88v.78h-2.87v3h3.85v.78h-4.85Z"/><path d="M166.82,345h.93l2.79,7.9h-1.05l-.71-2.12h-3l-.7,2.13h-1Zm1.69,5c-.41-1.29-.83-2.51-1.24-3.87-.39,1.33-.84,2.58-1.26,3.87Z"/><path d="M172.46,345.83h-2.34V345h5.67v.78h-2.33v7.11h-1Z"/><path d="M178.19,345h.93l2.79,7.9h-1.05l-.71-2.12h-3l-.7,2.13h-1Zm1.69,5c-.41-1.29-.83-2.51-1.24-3.87-.39,1.33-.84,2.58-1.26,3.87Z"/><path d="M189.06,351.28a3.23,3.23,0,0,1-3.13,1.83c-2.36,0-3.6-1.81-3.6-4.15s1.28-4.08,3.6-4.08a3.34,3.34,0,0,1,3.07,1.64l-1,.48a2.31,2.31,0,0,0-2.11-1.25c-1.68,0-2.54,1.42-2.54,3.21s.89,3.28,2.54,3.28a2.2,2.2,0,0,0,2.18-1.44Z"/><path d="M151.18,358.47h.93l2.79,7.9h-1.05l-.71-2.12h-3l-.7,2.13h-1Zm1.69,5c-.41-1.29-.83-2.51-1.24-3.87-.39,1.33-.84,2.58-1.26,3.87Z"/><path d="M156.06,358.47h1v7.9h-1Z"/><path d="M158.73,358.47h2.57c1.63,0,2.8.67,2.8,2.24a2,2,0,0,1-2.06,2,1.56,1.56,0,0,1,1,.85l1.57,2.77h-1.19L162.15,364a1.5,1.5,0,0,0-1.44-1h-1v3.32h-1Zm2.59,3.77c1,0,1.7-.46,1.7-1.51s-.67-1.48-1.72-1.48h-1.57v3Z"/><path d="M165.67,358.47h2.65c1.59,0,2.74.69,2.74,2.29,0,1.8-1.19,2.45-2.73,2.45h-1.66v3.15h-1Zm2.49,3.94c1.15,0,1.83-.46,1.83-1.64s-.78-1.51-1.8-1.51h-1.52v3.15Z"/><path d="M171.92,362.39c0-2.53,1.46-4.09,3.6-4.09s3.62,1.57,3.62,4.09-1.52,4.14-3.62,4.14S171.92,364.91,171.92,362.39Zm6.14,0c0-1.88-.94-3.22-2.56-3.22s-2.5,1.34-2.5,3.22,1,3.27,2.53,3.27S178.06,364.34,178.06,362.39Z"/><path d="M180.39,358.47H183c1.63,0,2.8.67,2.8,2.24a2,2,0,0,1-2.06,2,1.56,1.56,0,0,1,1,.85l1.57,2.77h-1.19L183.82,364a1.5,1.5,0,0,0-1.44-1h-1v3.32h-1Zm2.59,3.77c1,0,1.7-.46,1.7-1.51s-.67-1.48-1.72-1.48H181.4v3Z"/><path d="M188.79,359.25h-2.34v-.78h5.67v.78H189.8v7.11h-1Z"/><path class="cls-4" d="M192.19,315.22A22.18,22.18,0,1,1,170,293a22.18,22.18,0,0,1,22.18,22.18"/></g><g id="Layer_17" data-name="Layer 17"><path d="M42.73,344h.93l2.78,7.9H45.39l-.71-2.12h-3l-.7,2.13h-1Zm1.69,5c-.41-1.29-.83-2.5-1.24-3.87-.39,1.33-.84,2.58-1.26,3.87Z"/><path d="M47.5,344h1.17c1.38,2.39,2.64,4.52,3.77,6.55-.06-2.23,0-4.37,0-6.55h1v7.9H52.19c-1.28-2.2-2.72-4.66-3.77-6.55,0,2.24,0,4.37,0,6.55h-1Z"/><path d="M60.65,350.57a2.58,2.58,0,0,1-2.45,1.54c-2.34,0-3.58-1.75-3.58-4.15s1.28-4.08,3.58-4.08a3.42,3.42,0,0,1,3.11,1.66l-1,.47a2.24,2.24,0,0,0-2.15-1.25c-1.68,0-2.52,1.42-2.52,3.21s.87,3.28,2.55,3.28a2.22,2.22,0,0,0,2.24-2.17v-.44H58.54v-.77h2.89v4.08H60.8Z"/><path d="M62.95,344h1v7.11h3.77v.78H62.95Z"/><path d="M68.88,344h4.7v.78H69.89v2.59h2.87v.78H69.89v3h3.85v.78H68.88Z"/><path d="M44.56,357.47h1v7.11h3.77v.78H44.56Z"/><path d="M52.81,357.47h.93l2.78,7.9H55.47l-.71-2.12h-3l-.7,2.13H50Zm1.69,5c-.41-1.29-.83-2.5-1.24-3.87-.39,1.33-.84,2.58-1.26,3.87Z"/><path d="M57.58,357.47h1v4.09l3.58-4.09h1.2l-2.91,3.27,3.27,4.63H62.54l-2.74-3.88-1.21,1.35v2.53h-1Z"/><path d="M64.74,357.47h4.7v.78H65.75v2.59h2.88v.78H65.75v3h3.85v.78H64.74Z"/><path d="M42.73,344h.93l2.78,7.9H45.39l-.71-2.12h-3l-.7,2.13h-1Zm1.69,5c-.41-1.29-.83-2.5-1.24-3.87-.39,1.33-.84,2.58-1.26,3.87Z"/><path d="M47.5,344h1.17c1.38,2.39,2.64,4.52,3.77,6.55-.06-2.23,0-4.37,0-6.55h1v7.9H52.19c-1.28-2.2-2.72-4.66-3.77-6.55,0,2.24,0,4.37,0,6.55h-1Z"/><path d="M60.65,350.57a2.58,2.58,0,0,1-2.45,1.54c-2.34,0-3.58-1.75-3.58-4.15s1.28-4.08,3.58-4.08a3.42,3.42,0,0,1,3.11,1.66l-1,.47a2.24,2.24,0,0,0-2.15-1.25c-1.68,0-2.52,1.42-2.52,3.21s.87,3.28,2.55,3.28a2.22,2.22,0,0,0,2.24-2.17v-.44H58.54v-.77h2.89v4.08H60.8Z"/><path d="M62.95,344h1v7.11h3.77v.78H62.95Z"/><path d="M68.88,344h4.7v.78H69.89v2.59h2.87v.78H69.89v3h3.85v.78H68.88Z"/><path d="M44.56,357.47h1v7.11h3.77v.78H44.56Z"/><path d="M52.81,357.47h.93l2.78,7.9H55.47l-.71-2.12h-3l-.7,2.13H50Zm1.69,5c-.41-1.29-.83-2.5-1.24-3.87-.39,1.33-.84,2.58-1.26,3.87Z"/><path d="M57.58,357.47h1v4.09l3.58-4.09h1.2l-2.91,3.27,3.27,4.63H62.54l-2.74-3.88-1.21,1.35v2.53h-1Z"/><path d="M64.74,357.47h4.7v.78H65.75v2.59h2.88v.78H65.75v3h3.85v.78H64.74Z"/><path class="cls-4" d="M79.54,315.22A22.18,22.18,0,1,1,57.36,293a22.18,22.18,0,0,1,22.18,22.18"/></g></svg>